<?xml version="1.0" standalone="no"?>
<!DOCTYPE svg PUBLIC "-//W3C//DTD SVG 20010904//EN"
 "http://www.w3.org/TR/2001/REC-SVG-20010904/DTD/svg10.dtd">
<svg version="1.0" xmlns="http://www.w3.org/2000/svg"
 width="1536.000000pt" height="2048.000000pt" viewBox="0 0 1536.000000 2048.000000"
 preserveAspectRatio="xMidYMid meet">
<metadata>
Created by potrace 1.16, written by Peter Selinger 2001-2019
</metadata>
<g transform="translate(0.000000,2048.000000) scale(0.100000,-0.100000)"
fill="#000000" stroke="none">
<path d="M11046 20318 c-7 -157 -15 -291 -36 -620 -55 -857 -73 -1131 -96
-1493 -14 -231 -26 -438 -27 -460 -2 -79 -59 -1027 -113 -1880 -21 -330 -29
-413 -41 -425 -12 -11 -17 -12 -20 -2 -6 16 -18 15 -38 -4 -13 -13 -18 -14
-31 -4 -12 11 -17 10 -28 -5 -11 -15 -15 -16 -35 -4 -17 11 -23 12 -30 1 -4
-7 -15 -10 -24 -6 -9 3 -17 2 -17 -4 0 -6 4 -12 10 -14 11 -4 -11 -52 -23 -49
-10 2 -57 -54 -57 -68 0 -6 -4 -11 -10 -11 -5 0 -10 -7 -10 -15 0 -8 5 -15 10
-15 6 0 10 -4 10 -10 0 -5 -7 -10 -15 -10 -15 0 -19 16 -16 61 1 17 -4 29 -15
33 -19 7 -37 -12 -29 -31 2 -7 0 -15 -5 -18 -6 -4 -10 1 -10 10 0 11 -5 15
-14 12 -10 -4 -12 0 -9 14 3 10 10 19 15 19 5 0 6 -4 3 -10 -3 -5 -1 -10 4
-10 15 0 14 13 -3 36 -14 18 -15 18 -26 -11 -6 -16 -14 -43 -17 -60 -3 -16
-16 -40 -29 -53 -25 -23 -27 -22 -25 13 1 15 -1 16 -7 7 -5 -7 -13 -12 -18
-10 -5 1 -28 -5 -52 -15 -23 -9 -43 -16 -45 -16 -1 1 -18 -5 -37 -13 -19 -8
-43 -14 -52 -12 -10 1 -17 -1 -17 -4 3 -22 -4 -31 -31 -37 -22 -5 -32 -15 -42
-41 -14 -40 -27 -45 -24 -9 2 13 -1 22 -5 19 -10 -6 -13 9 -9 41 2 20 2 20
-19 1 -11 -10 -18 -23 -15 -27 6 -10 -7 -12 -43 -10 -12 1 -25 -5 -30 -14 -10
-17 -43 -11 -43 7 0 6 7 8 15 4 8 -3 15 -1 15 5 0 6 5 7 10 4 23 -14 8 14 -17
30 -25 17 -26 17 -20 -1 5 -15 3 -14 -9 4 -9 12 -23 22 -32 22 -12 0 -11 5 6
23 18 19 19 26 9 36 -10 11 -8 13 11 8 12 -3 22 -1 22 4 0 5 -9 9 -20 9 -22 0
-26 10 -9 27 7 7 6 12 -5 16 -9 4 -16 2 -16 -4 0 -6 -4 -8 -9 -4 -19 11 -101
12 -101 1 0 -6 -4 -5 -9 3 -11 18 -51 -3 -52 -27 0 -14 -2 -14 -9 3 -5 11 -9
14 -9 8 -1 -19 -21 -15 -29 5 -7 18 -8 18 -27 -1 -11 -11 -15 -18 -10 -14 14
7 49 -19 36 -28 -6 -3 -11 0 -11 7 -1 9 -5 7 -14 -4 -7 -10 -20 -18 -28 -18
-9 0 -15 -8 -14 -17 0 -10 -7 -19 -18 -21 -14 -3 -17 0 -13 11 4 11 1 14 -7
11 -8 -3 -16 4 -19 15 -6 23 3 27 20 10 13 -13 43 14 43 40 0 9 6 23 13 30 10
11 7 12 -13 7 -21 -6 -22 -5 -7 4 9 6 17 16 17 22 0 6 -3 8 -7 5 -3 -4 -12 -2
-18 3 -9 8 -14 4 -19 -15 -6 -25 -26 -35 -26 -14 0 8 -4 8 -14 0 -8 -7 -21
-11 -28 -9 -19 4 -68 -50 -62 -67 3 -8 -5 -30 -19 -50 -23 -33 -25 -34 -30
-14 -5 18 -10 20 -39 14 -18 -4 -34 -11 -36 -16 -2 -4 -10 -5 -19 -2 -11 5
-14 3 -9 -6 6 -10 -3 -11 -37 -8 -28 3 -47 1 -50 -6 -3 -10 -21 -16 -64 -20
-13 -1 -23 -6 -23 -11 0 -5 -6 -3 -13 3 -10 8 -19 6 -35 -9 -25 -24 -32 -25
-32 -5 0 9 -8 6 -25 -11 -14 -14 -29 -23 -34 -19 -5 3 -11 -5 -13 -17 -3 -22
-14 -29 -87 -63 -25 -11 -37 -12 -47 -4 -10 9 -14 8 -14 0 0 -14 -51 -4 -65
13 -8 9 -15 9 -33 0 -16 -8 -19 -13 -10 -16 11 -4 11 -8 -1 -21 -12 -15 -15
-15 -25 -2 -15 20 -38 4 -40 -26 -1 -17 -7 -24 -22 -24 -12 -1 -29 -6 -37 -13
-9 -8 -26 -10 -42 -6 -22 5 -26 4 -23 -12 2 -11 -2 -18 -10 -16 -10 2 -10 -2
-2 -18 12 -23 6 -40 -15 -40 -14 0 -26 -23 -21 -42 1 -7 1 -10 -1 -5 -9 14
-23 7 -23 -13 0 -10 -12 -30 -27 -44 -25 -23 -25 -25 -8 -42 17 -17 17 -18 -1
-25 -17 -6 -17 -8 6 -17 l25 -11 -22 -7 c-13 -3 -21 -10 -18 -14 3 -5 -9 -11
-25 -15 -24 -5 -29 -11 -25 -25 9 -28 -12 -33 -29 -8 -14 19 -16 20 -16 5 0
-10 -5 -15 -10 -12 -6 3 -18 -7 -28 -24 -9 -17 -23 -31 -30 -31 -7 0 -11 4 -8
8 4 7 -17 12 -61 15 -10 0 -10 4 -1 14 9 11 7 12 -14 4 -14 -5 -29 -7 -32 -4
-3 4 -6 -1 -6 -10 0 -20 -21 -22 -38 -5 -9 9 -12 9 -12 -1 0 -8 -6 -11 -15 -7
-13 4 -13 2 -5 -14 11 -20 1 -34 -15 -22 -15 11 -17 55 -3 64 9 5 7 8 -7 8
-17 0 -17 2 -5 10 9 6 11 10 3 10 -7 0 -10 7 -6 16 5 14 3 15 -16 4 -13 -6
-20 -18 -17 -25 3 -8 -5 -16 -21 -19 -18 -5 -22 -10 -15 -19 11 -13 4 -67 -8
-67 -5 0 -6 10 -2 22 4 17 2 20 -12 15 -10 -4 -15 -3 -11 3 6 9 -6 13 -21 8
-4 -2 -10 7 -15 20 -8 22 -29 31 -29 12 0 -5 5 -10 10 -10 6 0 10 -5 10 -11 0
-5 -6 -7 -12 -3 -9 5 -9 2 1 -9 9 -11 11 -28 7 -48 -4 -20 -1 -38 6 -47 11
-13 10 -15 -6 -9 -13 5 -17 3 -13 -6 3 -8 1 -20 -5 -28 -8 -11 -9 -10 -4 5 5
16 3 17 -21 11 -16 -4 -41 -6 -58 -6 -16 0 -32 -4 -36 -11 -5 -8 -15 -8 -38 0
-29 10 -46 0 -18 -11 6 -3 -3 -6 -20 -7 -42 -3 -46 -4 -60 -13 -6 -4 -18 -5
-25 -2 -21 8 -38 -16 -34 -50 3 -25 8 -30 32 -32 16 -1 23 0 17 3 -7 3 -13 10
-13 15 0 5 9 4 20 -3 10 -7 17 -14 15 -17 -5 -5 26 -30 38 -31 5 0 6 4 3 9 -3
5 3 11 14 14 13 3 24 -1 30 -13 14 -27 12 -32 -8 -21 -13 7 -22 7 -29 0 -6 -6
-14 -5 -23 6 -12 14 -15 14 -31 -1 -11 -10 -19 -12 -19 -6 0 14 -44 16 -69 3
-15 -8 -49 -16 -83 -20 -5 -1 -8 -8 -8 -16 0 -21 -32 -85 -43 -85 -5 0 -7 9
-4 20 5 19 4 19 -22 -2 -40 -34 -31 -84 17 -93 9 -2 19 -4 21 -4 13 -3 -23
-29 -37 -27 -25 4 -50 -29 -44 -59 2 -15 0 -25 -7 -25 -22 0 -167 41 -251 72
-153 54 -152 54 -421 25 -134 -15 -368 -38 -519 -52 -151 -14 -315 -30 -365
-36 -110 -12 -324 -31 -715 -64 -349 -30 -607 -52 -745 -65 -55 -5 -140 -20
-190 -33 -49 -13 -106 -27 -126 -31 l-37 -6 -6 242 c-14 558 -26 1183 -31
1638 -3 267 -8 503 -10 526 l-4 40 316 95 315 94 19 43 c13 29 28 46 47 53 21
7 31 19 39 49 14 55 34 45 -237 121 -80 22 -197 56 -260 74 -63 19 -164 48
-225 65 -60 18 -141 42 -180 55 -160 53 -347 106 -495 140 -30 6 -102 26 -160
43 -236 69 -850 241 -1069 298 -104 28 -229 64 -258 75 -15 6 -82 25 -148 44
-66 18 -190 53 -275 78 -414 121 -688 200 -715 207 -52 13 -217 60 -295 84
-41 13 -87 26 -102 30 l-28 6 0 -2114 0 -2114 40 -4 c32 -3 39 -1 35 11 -5 11
-1 11 13 -2 10 -9 31 -17 45 -17 l27 0 -2 -107 -2 -108 -3 103 -4 102 -37 0
c-20 0 -54 3 -74 6 l-38 7 0 -2942 c0 -1617 2 -2941 4 -2941 3 0 34 13 69 30
36 16 76 30 89 29 l23 0 -25 -11 c-14 -6 -55 -25 -92 -42 l-68 -30 0 -43 c0
-24 2 -43 4 -43 6 0 143 64 326 153 152 73 230 103 230 87 0 -6 -4 -10 -10
-10 -5 0 -62 -25 -125 -55 -64 -30 -119 -55 -122 -55 -3 0 -56 -24 -117 -54
-61 -30 -128 -61 -149 -70 -35 -14 -37 -17 -37 -60 0 -30 4 -46 12 -46 7 0 67
27 133 59 66 32 149 71 185 86 36 15 93 43 128 61 122 67 398 202 445 218 55
19 57 19 57 7 0 -5 -24 -19 -52 -31 -29 -12 -98 -44 -153 -71 -331 -158 -481
-229 -510 -239 -11 -3 -70 -31 -132 -60 l-112 -54 -1 -726 0 -727 30 5 c16 2
30 0 30 -4 -1 -17 -28 -45 -41 -42 -20 5 -23 -30 -2 -35 17 -4 17 -5 1 -6 -17
-1 -18 -20 -18 -263 1 -184 4 -258 11 -246 11 19 44 24 54 9 3 -5 -4 -11 -15
-13 -12 -2 -19 -7 -18 -13 3 -10 10 -11 38 -4 9 3 16 -5 18 -18 2 -13 -2 -23
-8 -23 -7 0 -9 8 -5 23 7 21 7 21 -8 2 -21 -27 -10 -45 27 -43 17 1 40 -2 50
-7 15 -7 17 -5 11 6 -7 12 -6 12 7 1 17 -13 43 -8 70 15 12 11 21 12 37 4 25
-14 71 -14 71 -1 0 6 -10 8 -23 5 -16 -4 -29 0 -41 14 -15 16 -22 18 -33 10
-17 -14 -17 3 0 20 10 10 9 12 -3 9 -9 -2 -15 6 -16 20 -1 16 3 21 13 18 8 -3
19 -6 24 -6 6 0 7 -4 4 -10 -3 -5 -1 -10 4 -10 21 0 10 19 -23 39 -39 25 -47
26 -40 7 3 -8 1 -17 -5 -21 -6 -3 -11 1 -11 9 0 9 -11 23 -25 32 -14 9 -25 21
-25 26 0 5 12 0 26 -11 21 -16 29 -18 45 -8 16 10 23 7 52 -21 24 -23 33 -41
31 -58 -1 -13 1 -22 6 -19 10 6 55 -17 59 -30 1 -5 12 -15 24 -22 21 -12 20
-12 -13 -14 -19 -1 -54 -1 -76 0 -23 2 -45 -2 -48 -7 -9 -15 27 -21 73 -12 64
12 97 5 128 -26 15 -16 41 -39 57 -52 16 -12 22 -22 15 -22 -11 0 -11 -2 1
-10 12 -8 11 -10 -6 -10 -11 0 -25 5 -31 11 -6 6 -19 9 -29 6 -16 -4 -15 -5 4
-6 12 0 22 -7 22 -15 0 -7 7 -19 15 -26 20 -17 19 -30 -2 -30 -15 0 -16 2 -3
10 9 6 10 10 3 10 -30 0 -20 -21 19 -39 47 -21 63 -19 32 4 -18 14 -16 14 18
12 21 -1 38 -5 38 -8 0 -3 13 -4 30 -1 25 4 30 1 30 -16 0 -16 -6 -20 -24 -18
-14 1 -32 9 -41 16 -14 12 -18 11 -26 -1 -14 -22 -11 -27 18 -32 27 -4 27 -4
-4 -6 -17 0 -33 -7 -36 -13 -2 -7 -8 -9 -13 -5 -5 4 -2 12 5 16 9 6 10 11 2
15 -6 4 -11 2 -11 -3 0 -6 -7 -11 -16 -11 -10 0 -14 -6 -11 -15 8 -19 -13 -31
-23 -14 -5 7 -7 16 -4 20 2 4 -6 5 -18 1 -20 -5 -21 -3 -10 10 10 12 9 18 -3
28 -12 10 -15 10 -15 -4 0 -22 -7 -20 -46 9 -39 30 -45 31 -38 7 5 -14 3 -14
-10 3 -15 18 -15 20 1 27 16 6 16 7 -2 9 -11 1 -29 2 -40 3 -14 1 -19 7 -17
22 1 11 -6 29 -18 39 -15 14 -17 21 -9 32 9 10 8 17 -2 30 -10 11 -10 14 -1 9
16 -9 16 8 -1 22 -10 8 -46 10 -89 3 -12 -2 -9 -29 3 -37 6 -3 14 -2 18 4 4 6
12 7 20 3 8 -6 10 -14 5 -22 -14 -23 -10 -53 8 -73 10 -11 16 -21 14 -23 -2
-2 -27 19 -54 46 -28 28 -46 51 -41 51 6 0 7 5 4 10 -4 6 -11 8 -16 5 -5 -4
-12 1 -15 9 -3 9 -12 16 -18 16 -7 0 -23 18 -36 40 -33 51 -48 57 -46 17 1
-20 7 -33 16 -33 8 -1 21 -2 28 -3 19 -2 14 -35 -8 -49 -12 -7 -18 -18 -14
-24 5 -7 3 -8 -5 -4 -7 5 -10 15 -7 23 3 8 1 11 -4 8 -14 -9 -12 -42 3 -48 9
-4 9 -8 -2 -15 -11 -8 -9 -10 10 -10 13 0 35 -1 49 -2 14 -2 34 1 45 5 17 7
18 6 7 -6 -8 -8 -33 -14 -65 -14 l-51 0 -3 -67 c-2 -61 -1 -68 16 -68 10 0 29
-9 42 -20 17 -14 19 -18 6 -14 -13 5 -16 2 -11 -9 3 -9 12 -13 20 -10 8 3 14
0 14 -7 0 -19 33 -47 38 -32 2 6 8 12 14 12 6 0 8 -7 4 -15 -3 -8 0 -15 7 -15
7 0 1 -9 -13 -20 -17 -13 -34 -18 -55 -14 -16 3 -40 6 -52 7 -13 1 -23 5 -23
10 0 5 7 6 16 3 10 -4 13 -2 8 6 -5 7 1 9 19 4 21 -5 25 -3 21 8 -4 11 -12 13
-30 6 -21 -8 -24 -7 -24 15 0 14 -4 25 -9 25 -4 0 -8 -26 -8 -57 0 -32 2 -52
4 -45 3 6 13 12 24 12 13 0 17 -5 12 -18 -6 -15 -5 -15 10 -3 18 14 20 10 18
-26 -1 -11 3 -24 8 -28 6 -3 11 -11 11 -17 0 -6 -3 -8 -6 -5 -10 9 -46 -12
-39 -24 4 -5 13 -9 21 -9 8 0 13 4 10 8 -2 4 4 9 15 9 18 2 18 1 -3 -16 -17
-15 -28 -17 -48 -9 -13 5 -28 15 -32 21 -4 7 -8 -1056 -8 -2360 l0 -2373 6900
0 c6331 0 6900 1 6900 16 0 11 5 14 16 10 9 -3 20 -6 25 -6 6 0 7 -5 4 -10 -4
-7 247 -10 754 -10 l761 0 0 3347 c0 2584 -3 3344 -12 3335 -17 -17 -33 -15
-19 2 7 9 8 17 2 20 -11 7 -2 46 11 46 5 0 7 -4 4 -8 -2 -4 -1 -14 5 -22 6
-11 9 -2 9 27 0 34 -3 41 -15 36 -9 -3 -15 -2 -14 3 4 24 -3 34 -23 35 -17 1
-19 2 -5 6 9 2 17 11 17 19 0 8 8 14 18 13 10 0 12 -3 5 -6 -18 -7 -16 -23 2
-23 10 0 14 9 13 25 -1 14 -3 25 -5 25 -13 0 -51 -25 -47 -31 5 -9 -34 -6 -59
5 -14 7 -15 11 -6 22 15 19 30 18 23 -1 -7 -17 13 -20 36 -5 10 6 11 10 3 10
-7 0 -13 4 -13 9 0 6 16 7 35 4 l35 -6 0 44 c0 24 -4 51 -10 59 -6 9 -5 17 3
22 8 5 4 8 -10 8 -12 0 -24 6 -27 13 -3 9 -9 7 -19 -6 -9 -11 -18 -14 -21 -8
-11 17 31 33 53 21 33 -17 35 -11 5 16 l-29 26 28 -6 c31 -7 36 7 10 32 -16
16 -16 17 0 20 23 5 23 58 0 71 -17 10 -17 10 0 11 13 0 17 7 15 30 l-2 29
-156 -6 c-85 -3 -165 -6 -177 -5 -14 0 -20 -5 -16 -14 3 -8 1 -14 -5 -14 -6 0
-12 5 -14 11 -2 5 -22 12 -45 13 -24 2 -40 0 -38 -4 3 -5 -2 -10 -10 -14 -8
-3 -15 -1 -15 4 0 14 -137 13 -146 -1 -4 -8 -9 -7 -15 2 -14 22 -11 25 24 25
17 0 97 4 177 8 80 4 182 7 228 6 64 -1 83 2 88 14 8 21 30 27 56 15 21 -9 21
-9 -4 -4 -15 3 -30 1 -33 -5 -4 -6 14 -10 48 -10 40 0 54 4 54 14 0 18 -41 35
-82 34 -16 0 -31 4 -33 10 -2 6 -11 8 -20 4 -15 -5 -15 -4 1 12 9 9 17 22 17
27 0 12 37 12 44 0 3 -5 -3 -11 -14 -14 -28 -7 -25 -27 4 -27 13 0 38 -3 55
-6 24 -5 31 -3 31 10 0 9 -8 16 -17 16 -10 0 -25 5 -33 10 -11 7 -6 8 18 5
l32 -4 -2 72 c-3 66 -5 72 -25 75 -31 5 -29 22 2 22 27 0 32 9 13 28 -9 9 -9
12 0 12 14 0 12 21 -3 32 -6 5 -5 8 4 8 11 0 11 3 1 15 -9 10 -9 15 -1 15 14
0 15 37 1 45 -8 5 -7 11 1 21 7 8 7 14 1 14 -5 0 -12 -7 -16 -15 -6 -17 -36
-21 -36 -5 0 6 7 10 15 10 8 0 15 5 15 10 0 6 -11 10 -25 10 -16 0 -25 6 -25
15 0 8 9 15 20 15 11 0 20 -4 20 -9 0 -5 9 -11 20 -14 11 -3 20 -1 20 4 0 5
-8 9 -17 9 -15 0 -16 2 -3 10 8 5 11 10 5 10 -5 0 -3 5 5 10 11 8 8 9 -12 4
-18 -4 -32 -1 -42 8 -13 13 -12 17 5 31 30 26 23 40 -16 35 -38 -4 -45 5 -17
21 16 10 16 10 -2 11 -11 0 -16 3 -12 7 10 10 48 14 66 7 12 -5 10 -8 -10 -17
-20 -8 -22 -11 -8 -14 25 -6 53 12 55 36 1 12 -2 21 -8 21 -5 0 -9 -6 -10 -12
0 -7 -4 -4 -8 7 -5 11 -4 25 1 32 7 9 7 13 0 13 -12 0 -24 -29 -16 -41 3 -5
-6 -9 -20 -9 -21 0 -26 5 -26 25 0 19 4 23 18 19 13 -5 14 -4 3 4 -8 6 -20 8
-27 5 -6 -2 -15 0 -19 6 -3 6 1 11 9 11 9 0 16 4 16 9 0 5 -8 7 -19 4 -19 -5
-52 21 -50 40 0 9 2 9 5 1 3 -7 15 -10 27 -8 12 2 16 2 10 -2 -7 -3 -13 -10
-13 -16 0 -13 41 1 65 22 15 14 25 16 38 9 23 -13 22 -33 -2 -26 -11 2 -25 -3
-35 -14 -15 -19 -15 -19 11 -13 16 3 34 7 41 10 15 4 16 36 0 52 -9 9 -9 12 0
12 7 0 12 9 12 20 0 11 -7 20 -15 20 -9 0 -12 -6 -9 -15 4 -8 2 -15 -4 -15
-12 0 -24 29 -16 41 3 5 14 9 25 9 10 0 19 7 19 15 0 11 -7 14 -25 9 -15 -4
-25 -2 -25 5 0 6 11 11 25 11 14 0 25 5 25 10 0 13 -53 13 -66 0 -12 -12 -44
-3 -44 11 0 5 6 9 13 10 6 1 19 2 27 3 8 2 26 3 39 4 20 2 21 4 11 17 -10 12
-10 15 4 15 13 0 16 11 16 55 l0 55 -64 0 c-36 0 -77 5 -93 11 -15 7 -44 13
-63 14 -19 2 -43 3 -53 4 -10 0 -16 5 -13 10 3 4 17 7 31 5 22 -2 24 0 14 12
-8 10 -8 14 0 14 6 0 11 7 11 16 0 14 3 14 15 4 8 -7 15 -8 15 -2 0 6 38 9
100 7 l100 -3 0 733 0 733 -32 6 c-44 8 -98 38 -98 53 0 16 -5 17 58 -7 75
-29 88 -24 17 6 -33 15 -61 27 -63 29 -2 2 5 54 14 115 l18 112 36 -6 c19 -3
30 -2 23 2 -14 9 -5 26 17 36 8 3 1 4 -15 2 -43 -6 -59 6 -51 38 4 18 11 24
23 19 15 -6 14 -7 -3 -15 -15 -7 -14 -7 6 -3 14 2 32 5 40 5 8 1 -2 8 -22 17
-46 18 -52 45 -9 37 17 -4 32 -1 36 6 8 14 7 15 -24 25 -16 5 -21 4 -17 -4 4
-6 0 -11 -9 -11 -16 0 -14 9 8 37 6 9 15 10 28 3 18 -10 19 17 19 1044 l0
1055 -22 4 -23 4 23 2 22 1 0 315 c-1 200 -4 314 -10 310 -6 -3 -10 -1 -10 4
0 6 5 11 11 11 6 0 9 17 7 42 -3 35 -7 43 -28 49 -21 5 -22 7 -8 14 9 4 21 4
26 1 5 -3 10 5 10 19 0 23 -1 23 -26 7 -15 -9 -23 -11 -19 -4 5 7 3 12 -7 12
-9 0 -13 -6 -10 -14 4 -10 -6 -18 -33 -25 -50 -14 -53 -14 -47 7 5 14 3 14
-10 -2 -16 -19 -16 -19 -16 2 0 12 5 23 10 23 6 1 13 2 18 3 4 0 37 15 73 31
l66 30 1 130 c1 94 -1 125 -9 113 -5 -10 -15 -18 -22 -18 -8 0 -7 4 2 9 12 8
13 12 1 25 -12 15 -14 15 -27 -4 -15 -21 -43 -27 -43 -9 0 6 -7 8 -16 5 -14
-5 -15 -1 -10 29 4 19 4 41 -1 48 -4 6 -6 25 -4 41 2 18 -1 26 -8 22 -6 -4
-11 0 -11 8 0 19 -16 21 -23 4 -3 -9 -7 -8 -11 3 -7 15 -10 15 -37 2 -16 -8
-33 -12 -38 -9 -5 3 -11 -4 -15 -17 -9 -36 -7 -47 9 -41 8 4 12 11 8 18 -4 6
1 5 10 -3 9 -7 17 -21 17 -30 0 -14 2 -14 10 -1 5 8 11 12 14 9 8 -8 -5 -49
-16 -49 -5 0 -6 5 -3 10 3 6 -3 10 -14 10 -12 0 -21 5 -21 11 0 6 -7 3 -16 -5
-20 -20 -25 -20 -17 0 5 14 3 14 -16 2 -16 -10 -23 -10 -29 -1 -5 8 -19 9 -45
4 -47 -11 -47 -1 -1 35 40 32 60 37 58 13 -1 -9 5 -16 12 -16 8 0 12 3 9 5 -3
3 1 12 8 20 10 13 9 15 -6 9 -11 -4 -16 -3 -12 3 3 6 1 10 -6 10 -9 0 -9 4 1
15 6 8 9 19 5 25 -4 6 -3 16 3 23 5 7 12 21 15 32 7 19 6 19 -7 2 -8 -10 -16
-14 -18 -10 -3 4 -3 3 -2 -4 4 -17 -16 -73 -26 -73 -5 0 -4 16 1 35 7 23 7 41
0 53 -9 15 -10 14 -11 -8 0 -20 -2 -22 -11 -10 -9 13 -11 13 -16 1 -4 -10 -10
-5 -19 15 -7 16 -13 23 -13 16 -1 -7 -5 -10 -11 -7 -6 4 -10 -7 -10 -24 0 -17
-5 -31 -11 -31 -5 0 -8 4 -5 9 4 5 -9 6 -29 1 -30 -7 -35 -5 -35 11 0 10 5 19
11 19 5 0 7 5 4 11 -5 7 -14 4 -28 -8 -15 -12 -18 -13 -10 -2 10 12 10 18 1
27 -9 9 -9 12 1 12 7 0 10 4 7 9 -4 5 0 12 6 14 7 3 -1 3 -19 0 -17 -3 -39 0
-50 7 -13 8 -14 10 -2 7 11 -4 20 3 28 19 6 13 17 24 26 24 8 0 15 5 15 10 0
6 -4 10 -8 10 -5 0 -17 7 -28 16 -14 12 -15 14 -3 11 13 -4 15 -1 12 14 -3 11
0 19 6 19 7 0 10 -3 8 -7 -9 -14 19 -32 34 -22 11 7 10 9 -5 9 -14 0 -17 5
-12 24 8 31 -10 43 -33 22 -20 -18 -41 -21 -41 -6 0 5 -8 6 -17 3 -16 -6 -16
-5 -4 10 12 15 10 17 -30 15 -24 -1 -55 -7 -69 -15 -14 -7 -33 -13 -42 -13 -9
0 -20 -5 -23 -10 -5 -8 -11 -7 -21 1 -11 9 -18 8 -31 -2 -15 -12 -16 -12 -10
3 3 9 1 19 -6 22 -21 8 11 23 92 40 113 25 162 38 158 42 -2 2 -46 -5 -97 -16
-124 -27 -134 -26 -126 4 4 15 1 26 -7 29 -6 2 -9 8 -5 12 4 4 14 2 23 -5 12
-10 15 -10 15 4 0 9 5 16 11 16 6 0 9 7 5 15 -3 9 0 15 8 15 8 0 17 -16 20
-36 4 -19 12 -34 18 -32 14 5 24 29 11 27 -20 -3 -27 2 -13 11 13 8 11 13 -10
33 -14 13 -33 23 -43 21 -9 -1 -17 2 -17 8 0 6 -7 8 -15 4 -8 -3 -15 -1 -15 3
0 5 -10 7 -22 4 -13 -3 -21 -3 -18 0 3 3 21 9 39 12 35 6 65 28 53 39 -3 4 2
4 12 0 10 -4 13 -10 8 -13 -5 -3 -12 -15 -16 -26 -5 -17 -1 -21 19 -23 28 -2
45 22 27 40 -7 7 -7 18 1 35 9 19 8 27 -4 35 -11 8 -11 9 3 5 9 -3 19 1 22 9
3 8 15 14 26 14 14 0 19 -4 14 -12 -4 -7 -4 -10 0 -6 4 3 19 0 34 -8 31 -16
36 -13 27 15 -5 16 -15 21 -41 21 -19 0 -34 5 -34 10 0 6 4 10 10 10 5 0 7 6
4 13 -3 8 3 20 12 28 16 12 17 12 11 -3 -3 -10 -2 -18 2 -18 16 0 21 31 6 36
-21 8 -6 37 16 31 13 -3 17 -1 12 6 -4 7 -8 19 -8 28 -1 13 5 16 31 13 26 -3
35 1 49 22 9 15 13 29 8 33 -20 14 3 61 29 61 15 0 18 5 14 17 -4 9 -1 20 6
24 8 5 3 10 -15 14 -15 4 -34 17 -42 28 -8 12 -15 16 -15 9 0 -6 -4 -12 -10
-12 -5 0 -10 9 -10 20 0 25 -18 26 -37 3 -10 -13 -16 -14 -19 -6 -8 18 -34 4
-34 -18 0 -10 -4 -19 -10 -19 -5 0 -10 7 -10 15 0 9 -6 12 -15 9 -8 -4 -15
-13 -15 -21 0 -8 5 -11 10 -8 6 3 10 1 10 -4 0 -6 -4 -11 -9 -11 -10 0 -34
-55 -36 -80 0 -8 -8 -14 -18 -14 -9 1 -17 -3 -17 -9 0 -8 -3 -8 -11 0 -6 6
-19 9 -28 5 -13 -5 -14 -3 -3 10 7 9 24 19 37 22 27 7 33 21 11 29 -7 3 -17
18 -20 33 -7 27 -31 53 -50 54 -4 0 -6 -7 -2 -15 3 -8 1 -15 -4 -15 -5 0 -13
12 -16 27 -4 15 -14 35 -23 44 -15 17 -17 16 -28 -7 -7 -16 -8 -24 -1 -24 6 0
5 -7 -2 -15 -18 -21 -31 0 -20 31 6 16 5 24 -5 28 -16 6 -30 -28 -19 -45 4 -8
3 -9 -4 -5 -7 4 -12 16 -12 27 0 11 -7 19 -16 19 -11 0 -15 -6 -11 -20 4 -15
0 -20 -14 -20 -10 0 -19 -7 -19 -15 0 -9 10 -15 26 -15 22 0 24 -3 19 -22 -9
-30 -25 -47 -25 -26 0 11 -9 15 -32 14 -25 -1 -32 -5 -30 -17 1 -9 -5 -22 -13
-29 -13 -10 -15 -9 -15 8 0 11 6 27 14 35 9 8 12 24 9 36 -3 11 0 28 7 36 10
12 10 19 2 27 -9 9 -12 9 -12 -1 0 -7 -4 -9 -10 -6 -5 3 -10 21 -9 38 1 30 1
31 9 7 5 -18 9 -21 13 -10 9 24 5 50 -9 50 -6 0 -14 7 -18 15 -3 8 -15 15 -27
15 -21 0 -21 1 -5 19 14 15 15 24 7 40 -14 26 -14 27 9 27 14 0 18 -5 15 -17
-3 -10 0 -21 8 -26 8 -4 17 -15 20 -23 3 -9 6 -5 6 11 1 23 9 37 51 87 16 19
2 51 -25 58 -29 7 -45 -1 -45 -25 0 -10 -12 -23 -26 -30 -22 -10 -29 -9 -41 6
-13 17 -14 17 -9 -2 5 -18 0 -20 -37 -21 -23 -1 -36 1 -29 3 6 3 12 13 12 23
0 10 9 22 20 25 17 5 29 25 15 25 -18 0 -55 -26 -55 -39 0 -12 -3 -12 -12 -3
-15 15 -38 16 -38 2 0 -5 6 -10 14 -10 21 0 31 -21 15 -31 -11 -6 -10 -9 3
-14 10 -4 23 -3 30 1 10 6 10 5 2 -7 -6 -8 -10 -24 -8 -35 2 -15 -5 -28 -24
-40 -27 -18 -27 -18 -5 -23 21 -6 21 -8 8 -31 -26 -46 -28 -51 -16 -63 8 -8
14 -8 23 1 23 23 31 12 8 -13 -18 -19 -27 -22 -42 -14 -11 6 -22 8 -26 5 -3
-3 0 -6 6 -6 7 0 12 -13 12 -30 0 -26 4 -30 28 -30 21 0 24 2 12 10 -13 8 -12
10 3 10 21 0 23 -26 2 -34 -21 -8 -7 -36 17 -36 12 0 27 8 34 18 13 16 14 16
7 -3 -4 -11 -17 -29 -28 -40 -23 -21 -23 -45 1 -45 8 0 14 -10 14 -25 0 -14
-4 -25 -10 -25 -5 0 -10 3 -10 8 0 7 -47 32 -62 32 -4 0 -6 -13 -4 -30 3 -31
-3 -35 -46 -31 -24 3 -23 -11 3 -27 18 -12 24 -11 40 7 11 12 22 21 25 21 7 0
-15 -38 -27 -45 -6 -4 -14 -17 -19 -29 -9 -21 -9 -21 -9 2 -1 26 -27 40 -44
23 -9 -9 -8 -14 3 -21 8 -5 10 -10 4 -10 -7 0 -9 -11 -6 -26 4 -24 3 -25 -17
-13 -13 9 -21 24 -21 42 0 16 4 26 10 22 16 -10 12 15 -6 32 -8 9 -13 22 -10
30 4 8 9 27 13 41 6 26 5 26 -13 11 -19 -16 -54 -15 -54 1 0 5 7 7 17 3 13 -5
15 -2 11 15 -4 15 -2 19 8 15 14 -5 20 12 7 20 -5 2 -3 3 3 1 6 -1 24 12 40
29 16 17 24 28 17 24 -6 -4 -14 -3 -18 3 -3 5 -1 10 4 10 6 0 11 7 11 15 0 19
-76 -39 -84 -64 -3 -9 -3 -2 0 14 11 61 12 85 4 80 -5 -3 -13 3 -19 12 -6 10
-11 13 -11 5 0 -7 -11 -31 -25 -53 -20 -31 -30 -39 -45 -34 -27 9 -25 -9 3
-23 12 -7 15 -11 7 -11 -33 3 -44 -3 -20 -11 l25 -8 -27 -1 c-31 -1 -29 -26 3
-34 22 -6 26 -27 5 -27 -8 0 -18 -4 -21 -10 -4 -6 12 -8 40 -6 25 2 48 0 50
-4 7 -11 -74 -52 -87 -44 -7 5 -9 1 -5 -9 3 -10 2 -17 -3 -17 -6 0 -10 4 -10
10 0 5 -8 7 -17 4 -15 -5 -15 -3 2 11 19 15 18 16 -24 11 -40 -4 -84 -26 -52
-26 8 0 11 -6 7 -15 -6 -17 9 -21 19 -5 3 6 12 10 18 10 7 0 3 -7 -7 -15 -23
-17 -56 -20 -56 -5 0 6 -4 10 -9 10 -6 0 -7 -16 -4 -35 4 -27 2 -35 -10 -35
-8 0 -17 5 -19 12 -3 7 -7 6 -11 -5 -5 -13 -1 -17 20 -17 21 0 23 -3 14 -14
-9 -11 -9 -15 1 -19 7 -2 1 -8 -14 -12 -16 -4 -26 -11 -23 -15 3 -4 -10 -13
-28 -19 -23 -9 -28 -14 -18 -20 8 -6 11 -16 6 -31 -5 -15 -4 -20 4 -16 6 4 11
18 11 31 0 31 14 39 33 20 9 -8 22 -15 29 -15 9 0 10 2 1 8 -8 5 -8 12 3 26 8
11 14 14 14 7 0 -16 25 -41 41 -41 7 0 21 -8 32 -17 15 -13 21 -15 24 -5 7 20
33 14 33 -8 0 -11 5 -20 11 -20 7 0 9 10 5 25 -4 14 -2 25 4 25 5 0 10 6 10
14 0 9 7 12 21 9 12 -3 18 -11 15 -19 -3 -8 -1 -14 4 -14 6 0 10 -8 11 -17 0
-15 2 -15 9 2 10 24 12 21 15 -32 2 -24 -1 -45 -6 -49 -5 -3 -9 6 -9 20 0 14
-4 26 -10 26 -5 0 -10 -16 -10 -36 0 -29 -3 -35 -16 -30 -9 3 -18 6 -20 6 -12
0 -1 39 16 55 11 10 17 21 14 26 -2 5 -14 -1 -24 -11 -11 -11 -29 -20 -39 -20
-11 0 -23 -5 -26 -10 -4 -6 -11 -8 -16 -5 -13 8 -11 -9 2 -22 8 -8 2 -13 -20
-18 -17 -4 -29 -11 -25 -16 3 -5 10 -7 15 -4 5 4 9 1 9 -4 0 -6 -6 -11 -12
-11 -9 0 -8 -3 2 -10 12 -7 12 -12 -4 -29 -10 -11 -16 -26 -13 -33 2 -7 0 -22
-5 -33 -6 -13 -1 -11 14 8 13 15 33 27 43 28 11 0 15 3 8 5 -8 4 -5 13 9 30
22 25 40 25 19 0 -10 -12 -9 -20 5 -41 15 -22 15 -28 3 -35 -7 -5 -10 -13 -5
-17 5 -4 11 -2 13 5 3 6 8 10 13 7 4 -3 11 2 14 11 3 8 2 12 -3 9 -11 -6 -21
7 -26 36 -2 11 1 19 6 17 6 -2 9 -6 7 -10 -2 -3 5 -15 15 -25 16 -18 16 -23 3
-48 -8 -15 -12 -34 -9 -41 3 -8 0 -14 -6 -14 -6 0 -11 7 -11 15 0 8 -7 15 -15
15 -18 0 -20 -16 -3 -26 15 -10 -24 -24 -84 -31 -52 -6 -52 -6 -38 31 11 31
40 35 40 6 0 -12 7 -20 16 -20 28 0 12 43 -19 51 -25 7 -31 4 -45 -22 -18 -31
-32 -38 -32 -14 0 9 -6 12 -16 8 -10 -4 -17 1 -21 16 -6 24 -23 28 -23 5 0 -8
-5 -12 -11 -9 -6 4 -17 -2 -24 -13 -11 -14 -24 -19 -50 -16 -19 1 -35 -2 -35
-7 0 -6 -4 -7 -10 -4 -16 10 -12 57 8 78 16 19 16 20 0 14 -25 -9 -22 8 5 26
12 8 19 18 15 22 -4 4 -14 2 -22 -4 -9 -8 -16 -8 -20 -2 -4 5 -2 12 2 15 5 3
7 17 4 31 -5 31 6 33 17 3 7 -19 9 -17 8 14 -1 22 -7 40 -15 43 -9 3 -12 13
-9 26 4 16 3 18 -8 9 -7 -6 -11 -21 -8 -33 4 -18 3 -19 -6 -7 -9 13 -11 13
-11 0 0 -9 5 -21 12 -28 9 -9 7 -12 -10 -12 -19 0 -21 4 -16 33 5 30 5 31 -10
13 -16 -19 -16 -19 -16 6 0 15 -4 29 -9 33 -14 8 -8 58 8 63 8 3 11 0 8 -5 -4
-6 3 -8 17 -6 15 3 25 -1 29 -11 4 -10 1 -16 -7 -16 -8 0 -16 -7 -20 -15 -3
-8 -1 -15 4 -15 6 0 10 4 10 9 0 5 9 11 20 14 12 3 20 14 20 25 0 29 11 53 21
46 15 -9 47 5 54 24 3 9 3 13 -1 10 -4 -4 -15 -3 -24 2 -13 7 -20 5 -24 -6 -6
-14 -9 -14 -26 6 l-19 22 2 -29 c2 -23 -3 -29 -22 -31 -15 -3 -21 0 -16 8 4 6
13 9 20 6 17 -6 7 36 -12 47 -7 4 -13 13 -13 19 0 7 5 6 14 -2 11 -8 20 -9 33
-1 16 9 15 10 -8 11 -19 0 -28 6 -32 22 -7 25 13 44 26 25 5 -8 7 -3 6 13 -2
40 0 50 12 50 5 0 7 -4 4 -10 -3 -5 -2 -10 4 -10 14 0 19 22 10 48 -8 20 -5
22 21 22 17 0 30 4 30 10 0 5 -7 7 -15 3 -13 -5 -14 -2 -4 21 8 17 15 22 19
15 6 -8 9 -8 14 0 4 6 4 11 -1 11 -4 1 3 7 17 15 18 10 20 14 8 15 -9 0 -19
-4 -22 -9 -12 -18 -46 -18 -67 0 -22 19 -22 19 -33 -3 -6 -13 -19 -24 -29 -26
-24 -5 -21 15 3 23 23 7 27 25 5 25 -8 0 -15 4 -15 10 0 5 -12 -3 -27 -18 -15
-15 -26 -29 -24 -31 8 -10 -57 -41 -76 -36 -13 3 -23 2 -23 -2 0 -5 -12 -9
-26 -10 -31 -1 -47 -22 -32 -40 8 -10 6 -13 -6 -13 -9 0 -25 -9 -35 -19 -14
-14 -16 -22 -7 -31 8 -10 8 -11 -1 -6 -8 4 -13 1 -13 -8 0 -19 -5 -20 -31 -6
-13 7 -19 7 -19 0 0 -5 6 -10 13 -10 8 -1 7 -4 -3 -13 -8 -7 -20 -21 -26 -32
-11 -19 -32 -20 -26 -1 2 5 -4 6 -13 2 -9 -3 -19 -6 -21 -6 -3 0 -2 -5 1 -10
4 -6 11 -8 16 -5 5 4 9 1 9 -4 0 -6 6 -11 14 -11 7 0 16 -8 18 -18 4 -15 12
-18 35 -15 17 3 34 0 37 -6 4 -7 -1 -11 -13 -11 -11 0 -23 -4 -26 -10 -10 -16
-22 -11 -28 11 -4 14 -11 20 -21 16 -8 -3 -18 -2 -21 3 -4 6 -19 10 -35 10
-16 0 -35 7 -44 15 -19 20 -21 19 -24 -9 -1 -20 4 -25 31 -29 17 -2 34 -1 35
4 5 12 26 11 39 -2 14 -14 6 -39 -14 -39 -8 0 -11 5 -8 10 4 6 -12 10 -39 10
-50 0 -63 -20 -27 -40 29 -15 48 -12 25 5 -29 22 -4 18 34 -5 18 -11 37 -18
43 -15 5 4 9 2 9 -4 0 -5 -6 -12 -12 -15 -7 -4 1 -4 17 -2 17 3 37 0 45 -5 13
-9 13 -10 0 -6 -8 2 -26 0 -39 -5 -15 -5 -28 -4 -37 3 -11 9 -14 8 -14 -5 0
-9 -7 -16 -17 -16 -15 0 -15 2 1 19 10 11 15 25 11 31 -5 8 -17 0 -36 -22 -29
-34 -39 -59 -16 -40 15 13 39 1 35 -18 -2 -7 3 -15 11 -18 10 -3 12 0 8 11 -4
10 0 20 11 26 20 10 62 -2 44 -13 -7 -4 -16 -4 -22 -1 -6 3 -7 -1 -4 -10 4 -9
13 -14 21 -11 15 6 36 -11 40 -32 2 -6 -2 -12 -7 -12 -6 0 -10 7 -10 16 0 14
-3 14 -15 4 -8 -7 -15 -20 -16 -29 0 -10 -2 -11 -6 -3 -5 13 -43 17 -43 4 0
-4 5 -13 11 -19 7 -7 5 -15 -6 -27 -15 -14 -15 -16 -1 -16 9 0 16 -4 16 -10 0
-5 -4 -10 -10 -10 -5 0 -7 -7 -4 -15 4 -8 2 -15 -4 -15 -6 0 -13 6 -15 13 -3
6 -6 2 -6 -11 -1 -14 -5 -21 -12 -16 -8 4 -9 -1 -4 -17 4 -13 12 -25 16 -27 5
-2 9 -10 9 -18 0 -10 -5 -12 -12 -7 -7 4 -20 6 -29 5 -9 -2 -19 4 -22 13 -4 8
-18 15 -32 15 -27 0 -35 23 -12 37 6 4 13 16 13 25 1 14 -2 16 -17 7 -11 -5
-19 -13 -19 -18 0 -5 -7 -26 -16 -47 -15 -34 -18 -37 -24 -19 -7 19 -8 19 -18
-5 -13 -33 3 -67 24 -49 10 8 14 8 14 0 0 -6 9 -11 19 -11 28 0 23 -40 -6 -51
-28 -10 -29 -25 -5 -38 13 -7 23 -6 30 1 7 7 14 9 18 6 12 -13 -35 -27 -161
-47 -72 -12 -155 -28 -185 -36 -30 -8 -109 -21 -175 -30 -118 -16 -289 -53
-250 -54 11 -1 36 4 55 9 19 6 97 19 173 30 75 11 163 26 195 34 31 8 95 20
142 26 47 6 96 13 108 16 18 3 22 1 16 -8 -6 -10 -5 -11 7 -1 9 7 33 15 54 18
l38 5 -29 -31 c-29 -30 -29 -30 -4 -21 14 5 29 19 35 30 11 25 18 26 46 11 21
-11 17 -31 -5 -23 -8 3 -17 1 -21 -5 -3 -6 2 -14 11 -18 10 -4 19 -2 22 5 6
19 29 14 35 -7 6 -24 -10 -31 -53 -25 -25 4 -30 3 -24 -8 11 -18 14 -38 5 -38
-4 0 -13 -11 -19 -25 -6 -14 -15 -25 -19 -24 -22 4 -43 -2 -43 -12 0 -6 7 -9
15 -5 9 3 15 0 15 -8 0 -9 7 -12 20 -9 18 5 19 2 13 -28 -3 -19 -11 -38 -17
-42 -8 -6 -7 -10 1 -14 10 -3 9 -8 -2 -20 -23 -23 -7 -35 22 -16 14 9 21 19
14 21 -15 5 -14 32 3 38 8 3 11 15 8 30 -2 13 0 24 7 24 5 0 8 6 5 14 -6 15
34 48 48 40 13 -8 9 -24 -6 -24 -26 0 -26 -28 0 -34 22 -6 23 -9 13 -29 -11
-20 -11 -21 4 -9 9 8 22 12 29 10 8 -3 -2 -19 -25 -42 -20 -20 -37 -40 -37
-45 0 -12 37 -22 82 -24 20 0 35 -4 32 -8 -2 -4 0 -10 5 -14 6 -3 4 -19 -5
-40 -11 -27 -11 -35 -2 -36 7 0 1 -5 -14 -11 -19 -6 -28 -17 -28 -31 0 -16
-17 -33 -61 -60 -59 -37 -97 -42 -85 -12 3 9 0 15 -9 15 -8 0 -15 -6 -15 -14
0 -8 -7 -16 -15 -20 -8 -3 -15 -12 -15 -20 0 -9 -9 -20 -20 -26 -17 -9 -18
-14 -9 -31 6 -12 8 -23 6 -26 -3 -2 -36 5 -74 17 -60 19 -83 21 -198 16 -313
-15 -468 -16 -481 -5 -10 8 -14 35 -14 85 0 68 2 74 21 74 13 0 18 -4 13 -12
-6 -10 -4 -10 7 0 7 6 30 12 51 12 37 0 38 1 32 28 -9 35 -14 41 -14 14 0 -24
-5 -25 -65 -21 -22 1 -48 2 -57 3 -11 0 -18 8 -19 21 0 19 -1 19 -11 -2 -6
-13 -20 -23 -30 -23 -12 0 -22 9 -26 23 -6 22 -6 22 -12 -3 -9 -34 -4 -40 35
-40 41 0 57 -22 49 -71 l-6 -34 -134 1 c-132 1 -163 6 -134 24 12 8 13 11 2
22 -11 11 -18 8 -39 -16 -18 -22 -27 -26 -33 -16 -4 7 -13 9 -19 6 -6 -4 -9
-12 -6 -17 4 -5 2 -9 -4 -9 -6 0 -15 9 -21 20 -13 24 -30 26 -30 4 0 -9 5 -12
12 -8 7 4 8 3 4 -4 -4 -7 -16 -12 -28 -12 -17 0 -18 3 -8 15 15 18 7 31 -26
39 -15 4 -33 14 -41 22 -14 13 -13 17 6 35 15 14 20 27 15 41 -4 12 -1 24 7
29 20 12 15 68 -10 122 -17 38 -25 46 -35 38 -11 -9 -15 -6 -18 14 -4 21 -1
26 21 31 45 10 47 12 11 14 -19 1 -38 2 -42 1 -13 -2 -9 17 5 22 9 4 8 8 -3
16 -12 9 -10 11 10 12 14 0 19 3 13 6 -7 2 -14 21 -14 41 -1 21 -3 29 -6 20
-5 -21 -7 -22 -34 -5 -17 10 -23 10 -26 0 -3 -7 -10 -13 -16 -13 -7 0 2 14 20
30 18 17 36 30 41 30 5 0 12 9 15 20 3 11 12 20 21 20 22 0 20 16 -4 33 -13 9
-17 20 -13 35 4 18 8 20 19 11 18 -15 17 -1 -1 31 -18 32 -19 41 -1 34 8 -3
17 -1 20 5 4 5 -3 12 -14 16 -11 3 -20 13 -20 20 0 9 6 12 18 9 9 -4 4 5 -13
20 -16 14 -39 26 -50 26 -32 1 -58 26 -51 48 7 21 -17 48 -34 37 -5 -3 -10 0
-10 7 -1 16 -86 72 -99 64 -5 -3 -14 1 -20 8 -7 8 -23 13 -37 10 -29 -5 -39
14 -29 54 4 15 10 21 12 15 3 -7 11 -13 18 -13 7 0 15 -9 18 -20 7 -26 27 -26
27 -1 0 32 -11 50 -26 44 -16 -6 -20 32 -5 41 11 7 2 46 -10 46 -5 0 -9 -4 -9
-10 0 -5 -7 -10 -16 -10 -14 0 -14 3 -4 15 7 8 8 15 3 15 -5 0 -3 73 4 173 24
336 64 953 82 1277 11 185 22 395 41 780 6 113 19 363 30 555 11 193 24 490
30 660 6 171 15 384 20 475 5 91 17 327 25 525 9 198 17 371 19 385 2 21 9 26
42 31 l39 6 -39 2 -39 1 7 183 c4 100 15 328 26 507 11 179 22 391 26 473 l7
147 -210 0 -210 0 -7 -162z m3054 -5888 c0 -11 6 -20 13 -20 7 -1 5 -6 -6 -14
-18 -14 -18 -14 -1 -18 15 -3 13 -8 -14 -36 -17 -17 -29 -32 -26 -32 2 0 0 -9
-6 -20 -7 -14 -17 -19 -29 -15 -10 3 -24 -1 -30 -9 -7 -8 -20 -12 -29 -9 -12
4 -10 0 5 -14 21 -18 21 -21 5 -37 -13 -13 -14 -18 -4 -25 7 -4 10 -14 7 -22
-7 -18 -45 -43 -45 -29 0 6 -8 5 -20 -2 -13 -8 -16 -16 -10 -22 15 -15 12 -36
-4 -36 -24 0 -26 15 -10 71 8 30 17 68 19 84 8 48 13 55 40 55 22 0 24 3 16
19 -6 10 -7 22 -3 26 4 5 1 5 -6 0 -10 -5 -13 -2 -10 11 2 12 11 18 23 16 19
-2 19 -2 2 11 -15 13 -15 16 -2 27 10 9 15 9 15 1 0 -6 7 -11 15 -11 8 0 15 4
15 8 0 5 15 14 34 22 22 8 32 18 29 27 -3 7 0 13 6 13 6 0 11 -9 11 -20z
m-3445 -270 c-3 -65 -10 -132 -15 -148 -4 -17 -5 -33 -2 -37 9 -8 2 -194 -9
-222 -6 -17 -16 -23 -39 -23 -21 0 -29 4 -24 12 5 7 1 9 -12 6 -14 -4 -20 0
-20 13 0 13 3 15 13 7 8 -6 13 -6 13 -1 0 13 33 12 42 -1 5 -7 8 -5 8 5 0 8
-5 20 -12 27 -8 8 -8 12 -1 12 6 0 8 11 5 25 -2 14 -11 25 -18 25 -22 0 -16
31 7 37 11 3 18 11 15 18 -2 7 1 18 7 24 6 6 7 11 1 11 -5 0 -2 5 6 11 10 7
11 12 4 15 -9 4 -9 18 1 54 l13 49 -35 26 c-23 18 -31 31 -25 38 5 7 7 25 5
40 -3 21 -1 27 8 21 9 -5 10 -2 6 9 -4 11 -2 14 8 11 10 -4 13 0 10 16 -5 25
14 50 33 43 10 -4 11 -33 7 -123z m3536 88 c1 -7 1 -17 0 -22 -1 -5 4 -13 10
-17 10 -6 10 -11 0 -23 -7 -8 -10 -20 -6 -26 4 -6 3 -10 -2 -9 -4 1 -15 1 -23
0 -12 -1 -12 -4 3 -12 20 -12 23 -41 3 -33 -7 3 -20 -2 -29 -10 -9 -9 -22 -16
-31 -16 -8 0 -18 -5 -21 -10 -4 -6 -11 -7 -17 -4 -7 4 -7 0 0 -13 9 -16 6 -22
-17 -36 -16 -9 -46 -19 -67 -22 -36 -5 -38 -5 -20 10 11 8 17 15 13 15 -5 0
-2 6 5 14 11 12 14 11 20 -3 5 -11 7 -8 7 12 1 18 -4 27 -14 27 -8 0 -15 5
-15 11 0 5 5 7 10 4 27 -17 43 39 17 57 -6 3 2 17 18 32 31 29 34 30 69 17 17
-7 26 -7 28 1 3 7 13 3 26 -10 12 -12 22 -18 22 -13 0 6 -4 12 -8 15 -11 6 -2
76 9 76 5 0 10 -6 10 -12z m-630 -542 c5 3 9 1 9 -4 0 -5 9 -12 21 -15 15 -4
19 -11 15 -24 -5 -16 -1 -19 21 -19 23 1 29 -4 31 -25 2 -15 -4 -31 -14 -40
-16 -12 -17 -12 -10 1 6 13 5 13 -6 0 -7 -9 -22 -15 -33 -13 -11 1 -14 0 -7
-3 6 -3 10 -10 6 -15 -7 -12 -61 -12 -68 0 -4 5 4 7 16 5 13 -2 17 -2 10 2 -6
3 -9 10 -6 15 3 6 -6 9 -22 7 -16 -2 -29 2 -32 11 -3 10 0 11 9 5 12 -7 12 -5
0 9 -12 15 -11 17 13 17 14 0 26 5 26 10 0 6 6 10 13 10 7 0 13 8 13 18 0 14
-6 17 -23 14 -26 -5 -28 0 -11 31 7 14 13 17 16 9 2 -6 8 -10 13 -6z m-12070
-291 c41 -3 110 -8 154 -10 44 -3 86 -8 94 -10 9 -4 11 0 7 10 -3 9 0 15 10
15 9 0 12 -5 8 -12 -5 -8 5 -9 37 -4 24 3 39 3 32 -1 -6 -5 12 -8 40 -8 60 0
219 -15 228 -21 7 -4 69 -11 164 -19 28 -2 73 -7 101 -11 28 -3 67 -1 87 4 41
11 50 6 15 -8 -17 -6 -5 -9 47 -10 42 0 64 -4 55 -9 -8 -4 -112 0 -230 10
-510 43 -946 79 -962 79 -11 0 -15 5 -12 14 4 11 12 13 29 6 12 -5 56 -11 96
-15z m4398 -199 c3 5 83 9 176 10 94 0 131 -1 84 -3 -85 -4 -86 -4 -81 -28 3
-18 11 -25 26 -24 20 0 20 1 1 9 l-20 9 20 0 c17 1 17 3 5 11 -13 8 -12 10 3
10 9 0 17 -4 17 -10 0 -5 9 -10 21 -10 11 0 17 5 14 10 -3 6 1 10 9 10 9 0 16
-4 16 -10 0 -5 9 -10 20 -10 11 0 20 5 20 10 0 14 33 13 48 -2 13 -13 225 -18
282 -6 26 6 31 5 20 -3 -11 -7 -3 -8 30 -3 25 3 50 10 56 15 7 5 11 3 11 -6 0
-18 -45 -23 -292 -30 -104 -3 -228 -8 -275 -11 -47 -2 -265 -11 -485 -19 -509
-19 -1069 -43 -1207 -51 -108 -6 -108 -6 -109 18 -2 22 -2 22 -6 2 -4 -21 -12
-22 -131 -28 -70 -3 -185 -7 -256 -8 l-128 -3 -3 38 c-1 29 2 37 15 37 22 0
917 38 1170 50 113 5 293 12 400 16 107 3 260 9 340 13 80 4 153 3 164 -2 10
-5 21 -5 25 -1z m-5687 -374 c8 -12 18 -19 21 -15 4 3 8 0 8 -8 1 -8 2 -20 3
-28 2 -26 26 -24 26 3 0 13 4 27 8 30 9 6 3 -56 -7 -64 -3 -3 -15 -16 -26 -29
l-20 -24 22 12 c30 15 32 14 26 -11 -4 -21 -4 -21 9 2 7 14 13 51 13 82 0 33
4 56 10 55 5 -1 10 7 10 17 0 11 6 21 13 24 6 2 12 10 12 17 0 7 7 15 15 19 8
3 15 1 15 -4 0 -6 -4 -10 -9 -10 -4 0 -21 -27 -36 -61 -19 -44 -25 -68 -20
-87 4 -15 9 -51 10 -80 2 -29 5 -56 9 -59 3 -4 6 -37 6 -75 l0 -68 -45 0 c-42
0 -45 2 -46 28 0 15 -4 70 -8 122 -4 61 -3 101 4 113 8 14 3 30 -22 77 -18 32
-32 71 -32 87 1 25 2 24 8 -8 4 -19 14 -45 23 -57z m183 66 c-3 -7 8 -35 24
-62 23 -39 30 -45 34 -30 4 15 5 14 6 -6 1 -14 2 -40 2 -58 0 -18 4 -30 9 -27
6 4 10 19 10 34 0 15 5 32 11 38 8 8 8 13 0 17 -6 4 -11 2 -11 -5 0 -7 -2 -10
-5 -7 -3 3 -3 13 1 22 5 14 9 14 22 4 13 -11 15 -10 9 5 -3 9 -2 17 3 17 5 0
12 11 16 25 9 35 26 31 54 -14 14 -21 28 -37 32 -34 4 2 5 -3 2 -12 -7 -18 14
-47 28 -39 6 4 5 -2 -1 -14 -14 -26 -14 -43 0 -19 6 9 15 14 21 11 7 -5 9 -1
5 9 -4 11 -2 14 9 10 7 -3 14 0 14 6 0 11 -9 14 -42 14 -10 0 -18 3 -18 8 0
11 53 6 63 -6 5 -5 6 6 2 27 -5 34 11 68 34 68 20 0 18 -17 -10 -71 -25 -50
-28 -63 -18 -82 7 -12 14 -77 17 -145 l5 -123 -49 3 -49 3 -10 123 c-7 79 -7
126 -1 132 16 16 -42 150 -65 150 -11 0 -59 -105 -59 -129 0 -9 4 -21 9 -26 6
-6 13 -63 17 -127 l7 -118 -45 0 -45 0 -6 126 c-4 82 -3 133 4 146 9 16 4 33
-20 85 -17 35 -29 69 -26 74 9 13 15 11 10 -3z m393 -8 c13 -11 21 -24 17 -30
-3 -5 -1 -18 4 -27 10 -17 10 -17 11 0 0 9 5 17 11 17 6 0 8 -9 4 -21 -5 -15
-4 -19 4 -15 6 4 11 0 11 -8 0 -9 -5 -16 -12 -16 -6 0 -8 -3 -4 -7 11 -11 46
38 46 66 0 16 4 21 15 18 8 -4 17 -2 20 4 4 5 12 6 18 2 7 -4 14 -8 17 -9 3
-1 16 -5 29 -9 l25 -8 -23 -9 c-27 -10 -23 -32 7 -36 15 -2 22 -10 22 -25 0
-20 0 -20 -15 -1 -8 10 -15 14 -15 7 0 -6 7 -19 16 -28 13 -13 14 -18 3 -32
-15 -18 -13 -64 4 -75 6 -3 8 -26 4 -55 l-5 -48 11 37 c12 36 27 60 27 42 0
-5 9 -10 20 -11 30 -2 24 11 -10 24 -32 12 -41 33 -14 33 11 0 14 6 10 23 -4
15 -2 13 6 -5 14 -34 27 -36 29 -5 3 37 17 -94 18 -165 l1 -68 -42 0 c-24 0
-49 4 -57 9 -16 11 -35 239 -20 257 13 15 -50 136 -69 132 -8 -2 -23 -27 -35
-57 -16 -44 -18 -60 -9 -85 6 -17 14 -79 17 -138 l7 -108 -31 0 c-17 0 -33 6
-36 13 -7 22 -13 237 -6 233 3 -2 7 10 8 26 3 33 -42 138 -64 151 -14 9 -18
27 -5 27 4 -1 17 -9 30 -20z m4052 -13 c0 -19 3 -69 7 -111 l6 -77 -106 3
c-59 2 -107 0 -107 -4 0 -5 -20 -8 -45 -8 -25 0 -45 4 -45 10 0 5 7 7 15 4 9
-4 15 0 15 7 0 11 3 11 10 -1 5 -8 10 -10 10 -4 0 6 14 10 33 8 17 -1 58 0 90
3 53 5 57 8 57 31 0 24 -2 25 -52 18 -29 -3 -142 -6 -251 -6 -155 0 -198 -3
-194 -12 5 -15 -10 -48 -21 -48 -4 0 -6 19 -4 43 3 30 8 44 20 46 10 1 125 5
257 7 132 3 244 10 250 15 6 6 -99 8 -285 7 l-295 -3 3 -62 c3 -53 1 -63 -12
-63 -14 0 -16 -8 -12 -47 15 -135 17 -276 5 -284 -24 -15 -34 2 -32 54 l1 52
-6 -45 -7 -45 -14 33 c-10 23 -12 65 -9 152 l4 120 -40 0 c-22 0 -47 7 -56 15
-24 22 -120 2 -120 -25 0 -10 4 -20 8 -22 5 -1 12 -65 15 -140 l6 -138 -69 0
-70 0 0 38 c-1 20 -3 130 -6 245 -5 185 -4 207 10 207 9 0 16 -4 16 -9 0 -5
31 -8 69 -7 45 2 75 -2 87 -11 23 -17 34 -16 34 2 0 8 5 15 10 15 6 0 10 -7
10 -15 0 -18 12 -19 28 -3 7 7 12 8 12 4 0 -5 7 -3 15 4 12 10 15 10 15 -4 0
-9 4 -16 9 -16 5 0 14 -12 19 -27 9 -25 11 -22 12 30 2 31 3 63 4 70 1 16 123
23 449 25 l247 2 0 -33z m10217 13 c3 -11 10 -20 16 -20 7 0 7 -4 -1 -12 -13
-13 -16 -29 -4 -27 22 4 30 -3 28 -25 -1 -16 -5 -22 -16 -18 -12 5 -11 1 3
-21 17 -27 11 -37 -10 -16 -14 14 -47 4 -38 -11 4 -6 -6 -10 -24 -10 -23 0
-31 5 -31 18 0 15 -2 15 -11 2 -9 -12 -10 -12 -5 3 5 14 -1 22 -24 30 -39 15
-34 27 19 45 37 12 42 17 37 38 -4 16 -1 26 11 33 28 16 44 13 50 -9z m-13907
-20 c10 -15 16 -16 23 -7 5 7 6 2 2 -13 -6 -24 -6 -24 19 5 17 20 24 23 19 11
-4 -13 -3 -17 4 -13 7 5 9 0 6 -13 -3 -11 -9 -20 -14 -20 -5 0 -6 8 -2 18 5
14 3 13 -10 -3 -14 -18 -14 -20 1 -24 8 -2 22 5 29 15 11 15 13 15 13 2 0 -8
-7 -21 -15 -28 -8 -7 -15 -9 -15 -5 0 5 -2 6 -5 3 -3 -3 -3 -13 1 -22 5 -14
10 -12 25 14 11 17 19 37 19 45 0 8 5 15 11 15 5 0 8 4 5 8 -3 5 1 9 9 9 8 0
12 -4 9 -9 -3 -4 1 -8 8 -8 7 0 21 -23 31 -51 10 -28 21 -49 24 -46 2 3 0 14
-6 25 -6 12 -11 27 -11 34 1 7 7 0 15 -17 l14 -30 -5 36 c-3 20 -2 39 3 42 4
3 8 -23 8 -58 0 -35 -3 -61 -8 -58 -4 2 -5 -12 -2 -32 2 -21 0 -33 -5 -30 -6
4 -10 -1 -10 -9 0 -9 6 -16 13 -17 8 0 8 -2 1 -5 -8 -4 -9 -16 -2 -42 5 -20
14 -55 19 -76 5 -22 8 -45 5 -53 -3 -7 -1 -13 3 -13 5 0 12 6 14 13 3 7 6 5 6
-6 1 -13 -6 -17 -28 -15 l-29 2 -7 103 c-4 56 -4 120 0 141 5 31 1 51 -21 95
-14 32 -30 57 -35 57 -5 0 -22 -26 -38 -58 -28 -55 -29 -61 -17 -98 8 -21 16
-83 19 -136 5 -97 5 -98 -17 -98 -22 0 -24 4 -30 114 -4 63 -4 129 -1 149 5
27 0 47 -24 96 -17 33 -36 61 -41 61 -5 0 -23 -29 -39 -64 -16 -35 -33 -66
-38 -69 -6 -4 3 19 19 51 15 31 26 63 23 70 -3 7 0 10 5 7 6 -3 13 1 16 9 8
21 17 20 34 -4z m3882 -57 c17 -15 21 -15 29 -3 8 13 10 13 19 0 9 -13 11 -13
20 0 9 13 12 13 21 -2 12 -21 55 -24 62 -5 4 9 8 8 16 -3 9 -13 11 -13 11 3 0
21 28 23 36 2 4 -8 13 -15 21 -15 8 0 11 5 7 11 -4 6 -1 9 7 7 106 -31 109
-32 109 -55 0 -14 6 -23 15 -23 11 0 15 -13 16 -52 2 -46 3 -41 13 37 l11 90
52 3 52 3 3 -188 c2 -103 -1 -193 -5 -200 -5 -7 -6 -17 -2 -23 4 -6 -6 -10
-24 -10 -30 0 -31 1 -32 48 l-1 47 -9 -35 c-6 -19 -10 -48 -11 -65 0 -16 -3
-22 -5 -13 -2 9 -13 20 -24 23 -10 4 -19 15 -19 26 0 18 -18 28 -21 12 -1 -5
-3 -80 -5 -168 -2 -88 -5 -171 -7 -184 -4 -29 -27 -41 -28 -14 0 16 -1 16 -9
-2 -5 -12 -9 38 -9 133 -1 150 1 158 32 153 4 0 7 3 7 9 0 6 -4 10 -10 10 -5
0 -10 7 -10 15 0 8 -4 15 -10 15 -5 0 -10 12 -10 26 0 14 -4 23 -9 20 -5 -3
-12 -91 -16 -196 -5 -129 -11 -190 -19 -190 -7 0 -7 -3 -1 -8 6 -4 11 -16 12
-27 1 -11 0 -14 -3 -7 -7 14 -24 6 -24 -11 0 -17 39 -19 55 -4 6 7 10 19 8 27
-4 13 -3 13 6 0 7 -9 14 -11 19 -5 4 6 14 11 22 12 8 1 45 11 82 22 47 13 127
23 275 31 222 14 430 10 858 -15 300 -18 285 -17 285 -5 0 5 -10 9 -22 9 -21
-2 -201 10 -258 16 -14 2 -37 3 -52 4 -16 0 -28 5 -28 9 0 10 120 7 251 -6
l106 -11 54 -50 c68 -63 93 -70 126 -37 16 16 24 33 20 45 -4 17 -1 18 23 11
16 -5 31 -6 33 -3 3 3 14 0 24 -7 17 -11 17 -11 0 -6 -11 3 -15 2 -12 -4 4 -6
24 -7 48 -4 61 10 44 -1 -67 -41 -235 -85 -669 -331 -1191 -675 -152 -101
-155 -103 -155 -97 0 10 289 204 487 326 242 149 433 260 566 329 l92 47 -110
6 c-60 4 -137 8 -170 9 l-60 2 50 14 50 13 -70 -6 c-91 -8 -75 -10 -194 26
-57 17 -111 31 -120 30 -9 0 19 -11 62 -24 43 -12 81 -26 85 -31 4 -4 -2 -4
-13 0 -42 15 -147 36 -305 61 -202 32 -526 45 -635 26 -82 -14 -176 -60 -294
-142 -81 -57 -116 -74 -89 -45 7 8 15 12 17 10 2 -2 19 10 38 26 18 17 39 30
46 30 7 0 3 8 -8 17 -12 10 -14 14 -5 10 11 -3 16 2 18 16 1 17 -1 19 -8 7 -7
-10 -8 -5 -4 18 5 25 3 32 -10 32 -9 0 -16 6 -17 13 -8 131 -8 174 0 255 7 66
7 100 0 109 -6 6 -8 17 -5 22 4 5 2 12 -3 15 -13 8 -19 -64 -25 -269 -3 -93
-7 -178 -9 -187 -4 -25 -17 -35 -17 -14 0 9 -5 14 -11 11 -7 -5 -9 64 -8 224
2 207 -1 254 -15 240 -2 -2 -6 -124 -7 -272 -2 -147 -7 -267 -11 -267 -4 0 -8
28 -9 63 -1 44 -3 55 -9 37 -4 -14 -5 -37 -3 -51 3 -15 0 -29 -5 -33 -6 -4
-11 27 -11 87 -1 50 -3 144 -5 207 -2 63 0 124 4 135 4 11 2 40 -5 65 l-11 45
-7 -70 c-4 -38 -7 -180 -8 -315 -1 -137 -4 -231 -9 -213 -4 18 -6 53 -4 78 3
26 0 45 -6 45 -6 0 -10 69 -10 189 0 116 -4 192 -10 196 -5 3 -10 17 -10 31 0
14 4 23 9 20 5 -3 9 21 10 54 0 53 -2 60 -19 60 -18 0 -19 -12 -19 -375 1
-278 4 -375 12 -376 12 0 -20 -17 -36 -18 -11 -1 -7 232 5 246 5 7 7 17 3 24
-6 8 -10 7 -16 -2 -5 -8 -9 111 -9 286 0 165 0 308 0 318 0 10 -8 17 -20 17
-18 0 -20 7 -20 64 0 36 5 68 10 71 6 3 28 -4 50 -16 39 -22 65 -20 42 3 -26
26 -14 38 42 47 5 0 18 -7 28 -16z m1553 -43 c-3 -5 -2 -16 2 -26 6 -16 7 -16
20 2 10 13 13 14 13 3 1 -11 4 -10 14 3 7 10 16 15 19 11 4 -3 7 1 7 10 0 9 5
19 11 23 8 5 10 -54 8 -214 -2 -121 -7 -223 -9 -226 -3 -3 -16 -3 -28 1 -18 4
-22 12 -22 49 0 23 -5 46 -10 49 -11 7 -16 -3 -25 -57 -9 -59 -28 -47 -21 15
3 28 6 133 6 232 1 123 4 173 11 157 5 -13 7 -28 4 -32z m3410 -390 c10 0 17
-14 21 -40 5 -30 11 -40 25 -40 11 0 19 7 19 15 0 8 5 15 10 15 6 0 10 7 10
15 0 24 17 17 24 -10 4 -14 11 -25 17 -25 6 0 7 -5 3 -12 -11 -18 76 -2 90 17
16 22 46 9 46 -21 0 -17 6 -24 19 -24 11 0 27 -3 36 -6 13 -6 14 -9 3 -16 -9
-7 -8 -8 5 -4 10 3 40 7 65 7 46 2 47 2 12 9 -31 7 237 6 405 -1 l60 -2 -60
-7 -60 -7 63 -1 c44 -2 62 2 62 11 0 8 4 7 10 -3 8 -12 12 -12 18 -3 6 10 63
11 273 3 145 -6 271 -12 279 -15 8 -2 -97 -2 -233 0 -137 2 -251 6 -255 9 -3
3 -16 6 -30 6 -16 0 -22 -4 -19 -14 7 -17 -52 -28 -110 -22 l-38 4 38 -11 c20
-6 37 -14 37 -17 0 -4 17 -6 38 -4 20 2 89 4 152 5 89 1 106 3 75 9 -22 5 -80
6 -130 3 -85 -4 -88 -4 -62 11 15 8 37 13 50 10 12 -2 139 -5 282 -6 143 0
247 -3 230 -5 -125 -15 -122 -14 -95 -29 30 -16 82 -18 97 -3 7 7 99 9 281 7
148 -2 268 0 266 3 -2 3 -99 9 -215 12 -117 4 -214 9 -217 12 -15 14 17 17
105 8 54 -6 133 -8 176 -4 42 3 77 3 77 0 0 -9 115 -19 206 -18 75 0 390 -26
509 -42 38 -5 162 -18 275 -29 412 -41 582 -73 641 -122 20 -17 89 -107 89
-117 0 -4 -26 -4 -57 0 -32 4 -90 8 -128 8 -39 1 -76 6 -82 12 -6 6 -39 13
-73 16 -42 4 -57 9 -48 15 9 7 2 8 -20 4 -22 -4 -31 -2 -26 5 4 7 22 9 43 6
20 -3 52 0 71 7 l35 13 -70 6 c-38 3 -117 10 -175 16 -96 9 -282 26 -437 38
-35 3 -63 9 -63 13 0 14 -148 31 -350 40 -113 5 -276 15 -363 21 -246 19 -647
-10 -941 -67 -127 -25 -339 -87 -363 -106 -6 -5 -25 -10 -42 -10 -17 -1 -28
-5 -25 -9 3 -5 -1 -6 -9 -3 -18 7 -150 -59 -243 -121 -59 -39 -64 -41 -32 -12
l38 34 -63 1 c-34 1 -116 2 -182 2 -138 0 -368 18 -405 31 -14 5 -65 11 -115
14 -49 3 -115 10 -145 16 -61 12 -265 8 -293 -5 -13 -6 -16 -5 -11 8 8 20 -9
21 -26 1 -9 -11 -16 -12 -26 -4 -7 6 -18 8 -24 4 -6 -4 -18 -1 -27 7 -13 10
-17 10 -20 1 -3 -9 -26 -13 -67 -13 -81 0 -156 -10 -156 -21 0 -5 8 -9 19 -9
10 0 24 -7 31 -15 7 -8 9 -15 4 -15 -5 0 -110 7 -234 15 -216 14 -1108 66
-1373 81 -70 3 -126 8 -124 10 13 14 286 102 417 136 276 70 631 98 1271 98
268 0 458 4 495 11 66 12 155 38 167 49 16 14 -325 23 -598 16 -148 -4 -267
-4 -263 -1 7 8 801 36 958 35 52 -1 103 -3 113 -6 10 -3 20 1 23 10 3 8 12 12
21 9 8 -3 19 0 24 8 7 11 9 10 9 -4 0 -11 5 -16 13 -13 6 3 20 9 30 12 9 4 17
15 17 25 0 21 1 22 24 13 9 -3 14 -10 11 -14 -3 -5 -1 -11 5 -15 5 -3 10 -1
10 6 0 10 3 10 12 1 7 -7 17 -12 23 -12 5 0 3 5 -5 11 -12 8 -10 9 8 4 12 -4
22 -2 22 4 0 6 15 14 33 19 17 4 32 12 32 18 0 5 5 16 10 24 5 8 9 24 7 35 -2
17 -1 17 8 -2 5 -13 16 -23 25 -23z m-9655 -72 c4 -42 30 -471 30 -490 0 -26
-3 -28 -43 -28 l-44 0 -7 138 c-3 75 -9 175 -11 222 -4 58 -2 79 4 65 8 -16
10 -16 10 -4 1 9 -6 22 -14 29 -8 7 -15 25 -15 41 0 28 2 29 45 29 25 0 45 -1
45 -2z m191 -10 c2 -14 28 -424 29 -460 l0 -48 -44 0 -43 0 -6 113 c-4 61 -10
176 -13 255 l-7 142 42 0 c22 0 41 -1 42 -2z m205 -13 c0 -5 3 -95 7 -200 4
-104 10 -214 13 -242 l6 -53 -51 0 c-29 0 -51 5 -51 10 0 22 -20 358 -25 428
l-6 73 53 -3 c29 -2 53 -7 54 -13z m168 -17 c4 -20 26 -411 26 -460 0 -14 -8
-18 -34 -18 -33 0 -33 0 -39 58 -4 31 -9 144 -13 250 l-7 192 31 0 c25 0 33
-5 36 -22z m207 -5 c0 -16 6 -126 12 -246 7 -120 10 -220 8 -223 -8 -7 -101
-4 -101 4 0 4 -7 104 -15 222 -20 302 -25 270 40 270 53 0 55 -1 56 -27z m159
-226 l15 -247 -26 0 -27 0 -7 155 c-4 85 -5 169 -1 185 3 17 1 30 -4 30 -6 0
-10 30 -10 66 0 62 1 65 23 62 22 -3 22 -7 37 -251z m115 233 l-30 -8 31 -1
31 -1 5 -192 c3 -106 2 -200 -3 -208 -10 -18 -12 8 -11 185 0 72 -2 115 -5 98
-2 -18 -8 -33 -14 -33 -5 0 -9 -19 -8 -42 1 -37 2 -39 9 -18 8 24 8 23 9 -8 1
-18 -4 -54 -11 -80 -9 -35 -9 -47 1 -50 8 -3 9 -19 5 -52 -6 -49 9 -77 27 -49
7 11 9 10 9 -3 0 -12 -8 -18 -24 -18 -23 0 -25 4 -30 73 -5 61 -26 386 -26
410 0 4 15 6 33 6 l32 -1 -30 -8z m2559 -77 c3 -21 6 -64 6 -95 l0 -58 -70 0
-70 0 0 43 c0 23 -3 66 -6 95 l-7 52 70 0 70 0 7 -37z m10142 -190 c-3 -32 -8
-98 -12 -148 -3 -49 -10 -97 -15 -107 -7 -13 -5 -15 11 -11 17 4 20 14 21 57
0 28 6 94 13 146 12 85 13 89 15 40 1 -49 -18 -291 -35 -440 -3 -30 -9 -88
-12 -128 -4 -40 -11 -71 -17 -70 -5 2 -9 5 -9 8 1 3 7 64 14 135 6 72 13 145
15 162 2 18 0 35 -5 38 -11 7 -26 -95 -41 -280 -8 -96 -15 -142 -20 -128 -4
12 -6 34 -4 50 3 32 23 221 30 299 3 28 1 54 -3 58 -4 4 -7 18 -7 29 0 12 -6
21 -12 20 -7 -2 -13 2 -13 8 0 6 6 9 13 6 8 -3 18 -2 24 1 5 4 15 72 21 151 7
79 15 148 18 152 12 20 15 6 10 -48z m980 -15 c-3 -35 -8 -103 -10 -153 -3
-70 -3 -79 4 -40 4 28 9 75 9 106 1 30 5 59 10 65 5 5 11 23 14 39 6 46 -3
-136 -13 -260 -23 -274 -22 -262 -46 -485 -22 -214 -34 -271 -28 -140 2 58 9
172 15 253 6 81 9 150 7 152 -3 3 -10 -59 -17 -137 -7 -79 -15 -145 -18 -148
-7 -6 -1 80 32 455 26 292 33 355 42 355 2 0 2 -28 -1 -62z m-11119 29 c2 -3
2 -52 1 -111 l-3 -107 -24 23 c-14 13 -36 30 -49 39 -24 17 -24 17 -4 23 14 5
19 13 15 24 -15 46 -36 84 -54 95 -10 6 -19 16 -19 20 0 8 128 2 137 -6z
m10219 -64 c-3 -38 -9 -102 -12 -143 -4 -41 -10 -77 -15 -80 -4 -3 -7 -26 -5
-50 1 -25 -1 -72 -5 -105 -4 -33 -13 -125 -18 -205 -12 -163 -20 -220 -31
-220 -8 0 -8 1 15 280 8 102 15 208 16 235 1 28 6 57 10 65 4 8 10 44 13 80
14 169 20 210 29 210 6 0 7 -26 3 -67z m264 -65 c-6 -68 -17 -129 -23 -137 -7
-8 -7 -12 -2 -9 12 7 13 24 -16 -280 -27 -284 -40 -360 -32 -192 3 69 7 141 8
160 2 19 6 58 9 85 3 28 8 88 11 135 14 203 39 379 52 366 3 -3 0 -60 -7 -128z
m-114 -15 c-4 -76 -11 -156 -16 -178 -6 -22 -12 -80 -15 -130 -5 -102 -10
-165 -25 -315 -6 -58 -12 -123 -14 -145 -2 -22 -8 -38 -12 -35 -5 3 -8 7 -8
10 4 12 34 337 33 360 0 14 4 61 9 105 5 44 6 85 3 90 -10 19 -9 34 3 38 9 4
15 42 20 114 9 143 18 223 24 223 3 0 2 -62 -2 -137z m600 -26 c-9 -78 -21
-176 -26 -217 -22 -184 -24 -206 -22 -222 1 -10 -3 -18 -8 -18 -6 0 -10 8 -11
18 0 14 -2 14 -9 -3 -15 -34 -12 -49 5 -35 12 10 15 9 15 -7 0 -42 -13 -112
-20 -108 -4 2 -5 15 -3 27 2 13 0 33 -4 46 -7 17 -9 9 -9 -32 0 -31 -5 -61
-11 -67 -9 -9 -10 -2 -7 27 2 22 6 62 8 89 7 82 45 456 52 510 3 28 7 58 7 67
1 9 5 14 9 12 5 -3 5 -17 2 -31 -5 -18 -3 -24 5 -19 6 4 11 22 11 40 0 34 22
93 29 75 2 -6 -4 -74 -13 -152z m-290 141 c4 -6 3 -8 -2 -5 -6 3 -10 -18 -11
-51 -2 -106 -66 -717 -76 -727 -6 -6 -7 13 -3 55 3 36 15 169 26 295 11 127
24 274 29 327 11 111 19 135 37 106z m-430 -95 c-4 -54 -9 -111 -12 -128 -3
-16 -9 -84 -14 -150 -15 -202 -31 -387 -39 -455 -8 -63 1 -115 13 -80 3 8 7
26 8 40 3 18 5 14 9 -16 4 -39 3 -40 -26 -42 -16 -2 -31 -7 -33 -12 -8 -22
-30 -8 -46 28 -10 21 -28 52 -41 68 l-25 29 4 -30 c2 -16 11 -47 20 -69 10
-21 15 -40 12 -43 -7 -7 -75 68 -82 92 -4 11 -27 40 -50 64 -41 42 -58 71 -32
55 8 -5 9 -2 5 9 -3 10 -5 17 -3 17 13 0 76 -32 98 -49 31 -24 44 -15 16 12
-10 9 -18 15 -18 12 0 -3 -11 2 -24 10 -14 9 -41 17 -60 18 -20 1 -36 5 -36
10 0 4 -6 7 -14 7 -17 0 -179 172 -219 234 -18 26 -18 27 2 14 11 -6 18 -15
16 -19 -3 -3 7 -11 20 -17 25 -12 25 -12 9 13 -9 14 -14 28 -11 32 4 3 38 2
76 -4 75 -10 89 -1 19 12 -39 7 -83 11 -158 14 -24 1 -24 2 8 21 35 21 45 37
12 20 -11 -6 -26 -8 -32 -4 -7 4 -8 3 -4 -4 4 -7 1 -12 -9 -12 -11 0 -15 5
-12 15 4 8 2 17 -4 20 -5 4 -6 11 -3 17 5 7 2 8 -6 3 -10 -6 -12 -4 -6 10 5
15 4 16 -9 5 -13 -11 -14 -10 -9 5 5 13 4 16 -4 11 -13 -8 -29 6 -50 42 -7 13
-8 22 -2 22 5 0 10 -4 10 -10 0 -5 9 -10 20 -10 11 0 20 4 20 10 0 5 7 6 17 3
11 -4 14 -3 9 6 -5 7 -14 10 -21 7 -20 -7 -85 42 -79 59 4 9 -4 23 -17 35
l-24 20 130 -3 129 -2 36 -52 c20 -28 44 -62 54 -75 17 -22 17 -22 0 7 -9 17
-32 52 -50 79 -32 48 -38 75 -10 45 31 -32 172 -272 223 -379 143 -300 176
-362 185 -348 7 9 8 7 4 -8 -4 -11 1 -29 9 -40 11 -14 14 -15 15 -4 0 8 5 56
10 105 5 50 11 126 14 170 3 44 10 124 16 178 5 55 7 104 4 109 -10 16 -7 70
4 77 8 5 32 197 32 254 0 9 3 17 6 17 4 0 4 -44 0 -97z m90 65 c-3 -18 -8 -73
-11 -123 -4 -49 -11 -110 -17 -135 -5 -25 -12 -90 -14 -145 -5 -127 -3 -107
-20 -270 -8 -77 -15 -159 -16 -183 -1 -26 -6 -41 -12 -39 -6 3 -10 8 -9 13 9
52 34 341 29 357 -3 11 -1 26 3 31 14 17 19 125 7 130 -7 3 -5 8 4 15 11 7 12
13 4 21 -12 12 -7 60 6 60 4 0 13 68 20 150 7 83 17 150 22 150 5 0 7 -15 4
-32z m80 10 c-3 -13 -10 -79 -16 -148 -13 -153 -17 -188 -25 -200 -4 -6 6 -10
22 -10 15 0 24 -4 18 -8 -5 -4 -10 -23 -11 -42 -1 -75 -16 -250 -29 -350 l-14
-105 5 90 c3 50 7 130 10 178 2 49 5 91 8 95 11 19 16 121 7 127 -6 3 -11 3
-11 -2 0 -4 -5 -37 -10 -73 -5 -36 -12 -110 -15 -164 -3 -55 -10 -129 -15
-165 -14 -95 -13 -114 5 -108 8 4 17 2 20 -3 4 -6 -7 -10 -23 -10 -34 0 -33
-15 -12 175 6 55 13 121 15 147 4 29 1 49 -6 54 -8 5 -8 8 1 14 7 5 12 39 13
96 1 49 5 91 9 94 4 4 38 295 38 334 0 3 5 6 10 6 6 0 8 -10 6 -22z m144 -20
c0 -34 -30 -349 -55 -578 -8 -74 -18 -171 -21 -215 -4 -44 -11 -87 -16 -95
-10 -16 -7 43 11 200 5 47 12 117 16 155 3 39 12 149 21 245 9 96 18 208 21
248 6 71 23 102 23 40z m-1793 -23 c31 -11 69 -34 91 -55 44 -44 135 -216 216
-408 81 -192 100 -261 94 -337 -7 -82 -39 -140 -142 -257 -146 -166 -225 -216
-451 -287 -137 -42 -635 -176 -695 -186 -19 -3 -118 -26 -220 -50 -102 -25
-264 -63 -360 -85 -96 -23 -183 -43 -192 -46 -14 -4 -18 1 -18 19 0 23 7 26
98 47 939 213 1424 342 1587 423 57 28 200 160 241 223 9 13 20 22 24 19 23
-14 109 157 92 181 -13 17 -40 15 -45 -3 -2 -10 -7 -1 -11 22 -41 225 -212
632 -299 712 -59 54 -89 58 -427 50 -367 -9 -886 -53 -1105 -93 -265 -50 -406
-102 -610 -227 -33 -20 -258 -219 -296 -262 -68 -77 -205 -251 -251 -320 -14
-22 -37 -51 -50 -65 -13 -14 -18 -19 -13 -10 9 13 8 13 -7 1 -10 -7 -15 -17
-12 -22 7 -12 -37 -69 -49 -62 -6 3 -7 1 -3 -6 9 -14 -12 -43 -25 -35 -5 3 -6
-1 -3 -9 3 -8 0 -18 -7 -23 -8 -5 -10 -3 -4 6 5 9 4 11 -4 6 -6 -4 -10 -15 -9
-24 2 -9 -2 -16 -9 -15 -7 2 -10 -3 -8 -10 3 -6 -5 -23 -16 -37 -11 -14 -17
-18 -13 -10 7 13 5 13 -9 1 -19 -15 -23 -36 -5 -25 7 4 8 3 4 -5 -4 -6 -12 -8
-18 -5 -7 5 -9 1 -5 -9 3 -9 1 -19 -5 -23 -7 -5 -8 -2 -3 6 6 9 4 11 -4 6 -7
-5 -10 -14 -7 -22 3 -8 0 -13 -6 -11 -6 1 -13 -4 -16 -12 -3 -9 0 -11 8 -6 9
5 11 4 6 -4 -4 -6 -12 -8 -18 -5 -8 5 -9 1 -5 -10 5 -11 3 -15 -5 -10 -8 5 -9
2 -5 -10 4 -10 3 -15 -3 -11 -5 3 -14 -3 -19 -13 -6 -11 -26 -38 -45 -61 -53
-64 -106 -249 -132 -463 -6 -54 -24 -65 -24 -15 0 52 27 188 55 280 43 141
114 272 288 532 99 147 253 355 263 355 3 0 2 -5 -2 -12 -5 -7 -3 -8 5 -4 7 5
10 15 7 23 -3 8 -2 12 3 9 7 -5 51 46 51 59 0 14 144 177 223 252 243 230 511
345 922 398 72 9 156 20 188 24 54 7 59 6 67 -13 l9 -21 0 21 c1 19 10 21 174
34 446 33 882 36 974 5z m2279 -22 c16 -21 18 -112 5 -198 -5 -33 -12 -104
-15 -158 -7 -114 -21 -253 -35 -352 -6 -38 -11 -89 -11 -112 0 -24 -5 -43 -11
-43 -5 0 -7 -4 -4 -10 3 -5 -1 -10 -9 -10 -20 0 -21 36 -2 73 8 15 11 27 6 27
-12 0 -2 254 16 445 3 33 7 96 10 140 2 44 9 95 15 113 6 18 8 49 5 68 -8 38
7 46 30 17z m-6826 -58 c206 -14 380 -28 385 -30 10 -3 -20 -5 -138 -9 -40 -1
-63 -6 -70 -17 -7 -9 -18 -14 -25 -11 -7 2 -25 -4 -40 -14 -15 -10 -34 -18
-42 -16 -10 1 -11 -1 -2 -4 6 -3 12 -9 12 -12 0 -10 -60 -35 -67 -28 -3 3 -13
-3 -21 -15 -16 -23 -58 -43 -84 -40 -9 1 -27 -13 -40 -32 -13 -19 -29 -32 -37
-29 -8 3 -11 0 -7 -7 6 -10 -26 -29 -59 -35 -5 -1 -14 -4 -20 -7 -5 -3 -30
-12 -54 -19 -40 -13 -42 -15 -20 -21 15 -4 -7 -9 -62 -14 -62 -5 -93 -4 -110
5 -19 10 -22 10 -12 0 16 -17 109 -31 153 -24 35 6 91 26 120 44 8 5 34 19 57
31 22 12 64 39 92 60 28 22 56 39 61 39 5 0 37 22 72 48 77 59 94 64 183 51
38 -5 93 -12 120 -15 55 -6 73 -14 32 -14 -14 0 -30 -6 -34 -13 -4 -8 -55 -30
-113 -51 -57 -20 -107 -40 -110 -44 -3 -4 -25 -14 -49 -22 -24 -8 -45 -20 -48
-27 -3 -7 -11 -13 -18 -13 -6 0 -26 -7 -43 -16 -18 -8 -36 -13 -42 -9 -5 3
-15 -6 -20 -20 -11 -29 -63 -55 -110 -55 -16 0 -30 -4 -30 -10 0 -13 -59 -43
-74 -37 -7 3 -18 -9 -25 -25 -15 -34 -8 -31 -131 -53 -52 -9 -119 -28 -149
-41 -29 -13 -67 -24 -83 -24 -16 0 -31 -6 -34 -15 -4 -8 -14 -15 -24 -15 -11
0 -21 -4 -24 -9 -3 -4 -28 -11 -56 -14 -55 -7 -106 -28 -138 -57 -12 -11 -30
-20 -42 -20 -11 0 -20 -4 -20 -10 0 -5 -5 -10 -11 -10 -9 0 -101 -39 -140 -60
-8 -4 -28 -6 -42 -3 -31 6 -171 -57 -180 -81 -3 -8 -30 -22 -59 -31 -29 -10
-60 -25 -68 -34 -13 -15 -61 -39 -175 -87 -15 -6 -7 -10 35 -13 l55 -4 -95
-24 c-52 -13 -119 -29 -147 -35 -33 -6 -50 -14 -46 -21 3 -6 1 -7 -5 -3 -7 4
-19 3 -28 -2 -17 -9 31 -20 239 -54 104 -16 76 -26 -76 -27 -72 -1 -116 -5
-112 -11 3 -5 -22 -10 -62 -12 l-68 -3 45 -23 45 -24 -49 6 c-27 3 -61 7 -75
8 -16 0 -8 4 19 8 l45 7 -41 1 c-22 1 -85 9 -140 17 -158 25 -201 28 -184 16
13 -10 12 -13 -5 -24 -11 -6 -29 -15 -40 -19 -14 -4 -9 -6 17 -7 20 -1 58 -5
85 -11 26 -5 93 -13 147 -16 87 -5 97 -8 77 -18 -16 -9 -36 -10 -64 -5 -73 14
-255 39 -287 39 -22 0 -55 18 -120 66 -50 36 -90 71 -90 77 0 6 10 1 23 -10
12 -11 28 -23 35 -27 8 -5 80 59 210 185 108 106 287 273 397 372 261 235 256
231 355 311 47 38 90 74 95 79 26 26 -158 -81 -291 -168 -153 -101 -224 -139
-249 -133 -8 2 72 58 178 124 199 126 249 157 477 292 74 43 173 104 220 133
l86 55 364 -18 c201 -9 534 -29 740 -43z m5096 -546 c95 -190 154 -293 185
-321 25 -24 38 -28 87 -28 38 0 52 -3 42 -9 -8 -6 -27 -7 -42 -4 -28 5 -41
-11 -15 -20 9 -3 9 -7 -1 -19 -11 -13 -8 -16 20 -20 18 -3 46 -1 63 3 16 5 93
18 169 29 77 11 142 22 144 25 3 2 -30 3 -72 1 -42 -2 -79 1 -82 5 -6 10 14
13 66 10 19 -1 43 4 54 12 16 12 11 13 -45 10 -45 -2 -20 5 83 22 81 13 157
29 169 36 29 15 46 -3 71 -77 14 -42 16 -59 8 -64 -18 -11 -3 -82 26 -121 13
-18 24 -36 24 -39 0 -9 -115 -90 -127 -90 -4 0 -25 -11 -45 -25 -21 -14 -50
-26 -65 -27 -15 -1 -53 -9 -83 -19 -149 -48 -210 -60 -251 -49 -21 6 -39 15
-39 20 0 6 -13 10 -29 10 -20 0 -30 6 -34 20 -3 11 -13 20 -22 20 -14 0 -13 4
6 21 21 18 22 20 4 14 -11 -3 -33 -9 -50 -12 -16 -3 -35 -10 -41 -14 -6 -5
-15 -5 -19 -1 -5 4 -5 -1 -2 -10 9 -25 6 -23 -34 19 -18 20 -26 31 -17 24 9
-7 22 -10 28 -6 6 4 9 1 8 -5 -2 -7 5 -14 15 -15 13 -3 17 1 13 11 -3 9 -1 12
4 9 6 -3 10 -1 10 4 0 6 8 11 18 11 11 0 59 14 108 31 115 40 183 59 210 59
28 0 54 10 54 20 0 5 -7 15 -15 23 -13 13 -10 15 17 13 26 -1 35 4 46 27 10
21 20 27 45 27 23 0 28 3 18 9 -11 7 -5 13 24 25 20 9 46 16 57 16 10 0 16 5
13 10 -3 6 0 10 8 10 10 0 13 7 10 19 -7 26 -19 29 -78 21 l-50 -7 48 -2 c51
-1 58 -20 9 -22 -20 -1 -22 -3 -7 -6 33 -9 -50 -43 -87 -36 -22 4 -29 3 -24
-5 4 -6 14 -9 24 -6 14 5 15 4 2 -5 -8 -6 -27 -11 -41 -11 -16 0 -30 -7 -33
-16 -4 -9 -9 -14 -12 -11 -3 3 -1 14 4 24 10 18 6 19 -46 21 -31 1 -91 -5
-132 -13 -41 -8 -106 -17 -145 -19 -66 -5 -69 -4 -42 10 18 10 27 23 27 39 0
14 -4 25 -9 25 -16 0 -90 111 -84 126 3 8 1 14 -5 14 -8 0 -182 341 -182 356
0 17 18 -12 66 -107z m469 22 c-3 -9 -3 -12 1 -8 8 8 97 -82 116 -117 9 -18 8
-17 -17 2 -15 12 -32 22 -37 22 -14 0 71 -70 85 -71 7 0 22 -13 35 -30 22 -27
22 -29 5 -29 -11 0 -28 7 -39 15 -28 21 -50 20 -34 -2 7 -10 -2 -3 -19 16 -17
19 -33 32 -37 29 -3 -3 -18 -2 -34 2 -28 8 -29 7 -32 -28 -2 -22 -8 -36 -15
-35 -7 2 -10 -3 -7 -11 3 -8 -5 -21 -17 -29 -21 -15 -21 -16 -4 -34 18 -17 17
-18 -26 -25 -24 -3 -73 -7 -109 -7 -71 -1 -95 10 -129 58 l-20 28 24 -3 c14
-1 23 2 19 7 -3 5 -13 9 -22 9 -14 0 -15 2 -2 9 8 6 19 7 25 4 5 -4 0 5 -12
19 -13 13 -23 32 -23 41 0 10 -8 17 -20 17 -11 0 -20 7 -20 16 0 9 -5 13 -12
9 -23 -12 29 29 63 50 18 11 42 26 54 32 11 7 16 13 11 13 -5 0 -6 3 -3 7 4 3
14 -2 22 -13 12 -15 14 -16 9 -2 -5 15 0 16 33 11 32 -4 123 -32 198 -59 13
-4 17 -4 10 3 -21 21 -222 82 -247 75 -5 -1 -6 8 -4 21 4 31 39 33 132 7 42
-11 79 -18 82 -15 3 3 -1 5 -9 5 -17 0 -52 54 -42 64 11 11 74 -57 68 -73z
m-8672 -518 c-18 -7 -16 -23 2 -23 8 0 15 -5 15 -11 0 -6 -9 -9 -20 -6 -16 4
-20 0 -20 -21 1 -33 17 -107 31 -144 10 -25 14 -26 62 -21 34 3 99 -4 190 -21
76 -15 152 -26 170 -25 60 5 97 -1 95 -13 -2 -7 8 -13 22 -14 92 -9 328 -67
402 -99 45 -21 94 -39 108 -40 14 -2 68 -8 120 -14 52 -6 119 -15 149 -21 74
-14 77 -5 4 11 -32 7 -65 16 -73 21 -11 7 -10 8 5 4 11 -3 238 -48 505 -101
267 -53 508 -105 535 -115 l50 -19 -135 -1 c-151 -1 -156 -2 -330 -31 -490
-81 -1447 -296 -2020 -454 -354 -97 -946 -282 -1012 -316 -19 -10 -107 25 -89
35 6 4 18 0 27 -8 20 -20 45 -21 38 -1 -6 15 -37 20 -184 31 -143 10 -144 10
-160 16 -25 11 -268 55 -367 68 -51 6 -134 10 -185 9 -51 -2 -127 3 -170 10
-79 14 -88 13 -218 -29 -87 -28 -120 -33 -137 -19 -11 10 -14 10 -9 2 4 -7 3
-13 -3 -13 -25 0 -18 23 26 80 33 44 60 69 91 82 42 19 67 22 232 33 165 10
201 15 350 49 222 50 667 138 915 181 55 10 132 24 170 32 108 22 385 70 540
93 77 11 156 23 175 27 l35 6 -55 13 c-35 8 -138 13 -278 14 l-223 2 -17 26
c-9 15 -32 47 -52 72 -33 42 -70 102 -70 113 0 3 9 7 21 10 16 4 19 11 14 26
-5 17 0 21 30 27 24 4 33 10 27 18 -5 6 -14 26 -20 44 -8 24 -8 32 1 32 7 0 4
5 -6 11 -21 12 -107 -6 -567 -117 -576 -140 -1019 -264 -1476 -415 -135 -44
-249 -78 -252 -74 -4 3 11 40 32 80 45 89 115 157 207 202 123 60 341 136 399
139 68 3 308 50 590 115 118 28 377 86 575 129 469 103 707 159 714 166 3 4
-7 4 -24 0 -16 -3 -93 -18 -170 -32 -77 -13 -174 -31 -215 -38 -41 -8 -76 -13
-78 -12 -5 6 78 56 92 56 9 0 48 11 88 23 40 13 98 24 128 25 58 1 145 20 215
46 22 8 52 12 67 9 16 -3 34 -1 40 4 20 16 57 22 60 11 4 -12 110 8 150 28 15
8 41 12 60 9 18 -3 27 -2 20 1 -10 5 -7 10 10 19 12 7 28 13 33 13 6 0 4 -2
-2 -5z m5955 -552 c2 -28 -1 -30 -55 -43 -43 -10 -139 -12 -367 -11 -170 2
-311 5 -314 8 -3 3 3 12 14 20 16 12 71 14 309 15 258 0 296 3 345 20 30 10
57 19 60 19 3 1 7 -12 8 -28z m-2288 -82 c11 -8 12 -12 2 -16 -7 -2 -19 -11
-26 -19 -8 -8 -21 -14 -28 -14 -10 0 -9 -3 2 -10 23 -14 -13 -24 -39 -11 -28
16 -48 14 -26 -2 29 -22 32 -21 -1180 -273 -308 -63 -814 -167 -1125 -229
-575 -116 -825 -169 -1165 -249 l-190 -44 -95 25 c-52 14 -102 26 -110 26 -8
0 -124 -25 -257 -56 -134 -31 -248 -57 -255 -56 -7 0 10 9 37 20 102 39 -18 7
-178 -47 -87 -30 -167 -54 -178 -54 -32 0 -21 15 19 27 20 6 132 40 247 76
429 133 687 204 1415 387 384 96 407 102 765 185 335 79 1127 255 1143 255 24
0 2 -18 -31 -26 -28 -6 -29 -8 -12 -14 39 -15 -98 -66 -282 -107 -95 -20 -170
-39 -168 -41 2 -2 60 8 130 22 69 14 129 25 133 25 4 -1 9 0 12 1 3 1 24 4 48
6 23 2 101 15 172 29 72 15 139 23 150 20 12 -4 20 -2 20 5 0 6 5 8 10 5 11
-7 138 6 300 30 146 21 249 34 320 40 127 11 195 36 138 49 -13 3 -2 3 24 2
26 -2 48 0 50 3 2 4 44 14 93 22 50 9 92 17 95 17 3 1 12 -3 20 -9z m-8517
-708 c-5 -20 -3 -23 11 -18 9 4 16 3 16 -2 0 -4 21 -7 48 -7 l47 1 3 -53 c3
-50 2 -53 -17 -43 -30 17 -58 13 -64 -8 -7 -29 10 -40 48 -31 39 9 45 -2 45
-90 0 -53 -1 -56 -27 -58 -37 -3 -40 -10 -7 -18 52 -13 62 -63 17 -81 l-28
-11 27 -1 c26 -1 26 -2 32 -98 11 -157 15 -213 22 -295 3 -43 2 -78 -2 -79 -5
0 -16 -2 -24 -4 -8 -1 -36 -6 -62 -10 l-46 -7 -6 63 c-6 72 -33 598 -41 789
-3 80 -2 118 4 105 5 -11 7 -31 4 -44z m-107 -84 c6 -97 4 -121 -7 -128 -12
-7 -11 -10 2 -21 14 -11 19 -61 33 -328 9 -173 18 -326 19 -339 1 -17 -5 -26
-21 -32 -19 -7 -22 -5 -22 16 0 16 6 25 15 25 8 0 15 5 15 11 0 6 -7 9 -15 6
-19 -8 -21 7 -40 318 -9 143 -20 318 -25 389 -12 163 -13 156 4 156 17 0 30
34 20 52 -5 9 -4 10 4 3 6 -5 14 -63 18 -128z m2474 -143 c228 -78 386 -121
919 -254 264 -66 491 -124 504 -129 26 -10 74 -72 125 -163 32 -55 32 -56 10
-51 -22 4 -22 4 2 -9 21 -11 25 -22 28 -67 l3 -53 -48 6 c-61 7 -246 20 -255
18 -4 -1 -17 12 -29 29 -28 40 -114 79 -259 118 -63 17 -136 37 -162 45 -27 8
-48 12 -48 8 0 -4 -9 -13 -21 -20 -19 -12 -19 -11 -9 7 9 18 7 21 -17 27 -16
3 -58 15 -94 25 -36 10 -76 19 -88 19 -12 0 -24 7 -28 16 -3 8 -12 13 -19 10
-8 -3 -14 1 -14 9 0 7 -13 16 -30 20 -16 4 -30 11 -30 16 0 5 -10 9 -22 9 -40
0 -67 11 -62 25 6 13 -52 32 -63 21 -3 -3 -11 1 -17 9 -6 9 -28 16 -51 17 -22
0 -44 3 -50 7 -5 3 -16 6 -24 8 -8 1 -17 7 -21 12 -8 14 -270 102 -281 95 -5
-3 -9 -1 -9 4 0 6 -47 29 -104 52 -57 23 -112 47 -122 54 -16 13 -15 15 14 30
30 16 34 15 90 -8 179 -76 527 -190 762 -251 58 -15 111 -29 119 -31 11 -4 11
-7 0 -21 -12 -14 -12 -15 1 -7 82 50 114 83 70 71 -11 -3 -20 -2 -20 2 0 9
-68 31 -93 31 -9 0 -17 -6 -20 -12 -2 -7 -3 -5 -2 4 3 21 -44 35 -56 16 -7
-10 -9 -9 -9 3 0 11 -36 25 -137 54 -138 39 -415 128 -508 164 -41 16 -52 25
-60 52 -5 19 -14 40 -18 47 -5 7 13 4 45 -9 29 -12 123 -46 208 -75z m3665
-64 c-11 -5 -30 -9 -42 -9 -13 -1 -23 -4 -23 -8 0 -5 -14 -9 -32 -10 -17 -1
-34 -7 -38 -12 -3 -6 -21 -12 -40 -14 -19 -2 -53 -9 -75 -15 -52 -14 -174 -39
-250 -51 -86 -15 -337 -42 -341 -38 -2 2 106 22 239 45 133 24 319 60 412 81
94 21 179 39 190 39 l20 1 -20 -9z m-5525 -47 c1 -21 3 -62 6 -90 5 -51 5 -53
-19 -53 -14 0 -32 -3 -41 -6 -29 -11 -17 -24 23 -24 29 0 41 -5 45 -17 2 -10
7 -82 11 -159 l7 -141 -39 -8 c-90 -17 -79 -34 -87 138 -3 83 -9 191 -12 240
l-7 87 31 0 c17 0 34 5 37 10 6 9 -7 13 -47 13 -10 0 -18 5 -18 12 0 13 37 14
57 2 7 -5 21 -3 30 2 10 6 12 11 6 11 -18 0 -16 20 2 20 11 0 15 -11 15 -37z
m126 -16 c14 17 14 17 8 -1 -6 -15 -3 -17 13 -12 22 7 23 2 39 -302 7 -132 5
-142 -42 -142 -20 0 -21 7 -27 113 -10 167 -16 397 -11 359 5 -32 6 -33 20
-15z m182 -93 c24 -1 30 11 10 19 -8 3 -6 6 5 6 12 1 17 -7 18 -26 2 -24 2
-25 6 -5 10 53 21 14 27 -100 4 -68 9 -141 12 -164 6 -45 3 -48 -63 -64 -22
-5 -33 -4 -37 5 -2 7 -7 104 -9 216 -3 112 -2 184 1 159 6 -38 11 -45 30 -46z
m13189 18 c7 -7 13 -11 13 -7 0 7 24 -12 48 -38 9 -10 33 -28 52 -40 19 -11
41 -29 48 -39 7 -10 22 -18 33 -18 10 0 19 -4 19 -9 0 -5 12 -11 28 -14 15 -4
45 -10 67 -15 l40 -8 -55 -8 c-30 -4 -66 -7 -80 -7 -71 2 -206 11 -236 17 -26
5 -34 3 -34 -8 0 -8 -7 -15 -15 -15 -19 0 -19 4 5 90 11 40 25 92 31 117 7 25
14 39 17 30 3 -8 11 -21 19 -28z m-13009 -54 c7 1 12 -2 12 -7 0 -5 8 -7 18
-4 17 4 20 -4 25 -73 4 -42 7 -96 7 -120 0 -41 -2 -44 -32 -52 -42 -11 -46 -1
-47 100 -1 52 3 78 11 80 9 3 8 9 -5 22 -12 13 -17 32 -16 69 2 47 2 49 8 17
4 -20 12 -34 19 -32z m-688 43 c0 -5 -10 -11 -22 -13 -26 -3 -22 -23 4 -22 14
0 17 -17 22 -120 4 -67 9 -157 12 -201 4 -44 3 -77 -1 -73 -4 4 -17 3 -30 -2
-22 -8 -22 -7 -28 78 -4 48 -10 149 -13 225 l-7 137 32 0 c17 0 31 -4 31 -9z
m1715 -91 c307 -134 480 -191 965 -321 295 -78 507 -127 690 -158 53 -8 52 -9
-25 -6 -83 4 -170 18 -360 61 -60 13 -119 26 -130 29 -127 27 -559 150 -735
208 -201 67 -502 198 -555 242 -26 21 -19 19 150 -55z m12131 -147 c0 -10 8
-19 19 -21 10 -2 31 -17 46 -33 26 -27 26 -30 9 -39 -24 -13 -33 -13 -25 0 3
6 -3 10 -14 10 -12 0 -21 5 -21 10 0 6 7 10 15 10 8 0 15 8 14 18 0 10 -3 12
-6 5 -3 -9 -10 -10 -21 -4 -29 15 -122 24 -122 12 0 -6 9 -11 19 -11 11 0 26
-7 35 -15 8 -8 19 -15 25 -15 5 0 13 -5 16 -10 8 -13 -41 -5 -107 16 -28 9
-48 22 -48 30 0 18 -49 19 -56 0 -5 -13 -54 -20 -54 -7 1 30 88 54 145 41 61
-14 88 -13 81 5 -4 11 2 15 23 15 21 0 28 -5 27 -17z m320 -391 c-2 -4 -1 -14
4 -22 8 -12 13 -13 30 -2 16 10 20 10 21 0 0 -7 4 -4 9 7 5 11 9 15 9 8 1 -8
15 -12 36 -11 56 2 51 -9 -6 -17 -29 -4 -71 -15 -94 -24 -22 -10 -48 -15 -57
-13 -10 2 -18 -2 -18 -8 0 -8 -9 -10 -27 -6 -21 5 -24 4 -13 -4 10 -6 11 -10
3 -10 -7 0 -13 -7 -13 -15 0 -9 -6 -12 -15 -9 -9 4 -26 -5 -42 -20 -20 -20
-22 -26 -9 -26 9 0 16 -4 16 -8 0 -4 15 -6 34 -4 42 5 50 -7 23 -33 -17 -17
-19 -17 -14 -2 4 11 1 17 -8 17 -8 0 -15 -5 -15 -11 0 -7 -10 -9 -25 -7 -26 5
-35 -6 -12 -16 8 -4 7 -5 -3 -5 -51 4 -91 -2 -85 -12 5 -7 -14 -10 -56 -9 -61
1 -156 -10 -244 -27 -22 -4 -74 -8 -115 -8 l-75 0 3 33 c4 58 19 75 58 69 22
-4 34 -2 35 6 0 9 2 8 6 0 6 -16 33 -17 33 -2 0 5 -4 7 -10 4 -5 -3 -10 -1
-10 5 0 8 10 9 30 5 41 -9 73 2 65 23 -5 14 -4 15 6 5 18 -18 30 -16 23 2 -4
8 -13 15 -21 15 -14 0 -43 23 -43 35 0 3 10 -1 22 -9 12 -9 29 -16 38 -16 10
1 7 5 -8 13 -12 7 -19 16 -16 20 4 4 3 7 -3 7 -6 0 -13 9 -16 21 -4 14 -2 19
7 16 7 -3 19 -1 27 4 9 6 0 9 -28 9 -24 0 -43 5 -43 10 0 6 15 8 38 5 70 -11
242 -11 247 0 3 6 7 5 11 -2 3 -7 15 -13 25 -13 11 0 17 5 14 10 -3 6 1 10 10
10 9 0 14 -4 11 -8 -3 -5 1 -9 9 -9 8 0 15 5 15 11 0 6 4 6 8 -2 10 -15 102
-24 102 -9 0 5 12 7 27 4 28 -5 73 10 73 25 0 4 5 8 11 8 5 0 8 -4 5 -8z
m-13035 -58 c7 -9 8 -14 1 -14 -6 0 -13 6 -15 13 -4 8 -6 7 -6 -4 -1 -8 -17
-23 -36 -32 -21 -10 -35 -24 -35 -34 0 -15 2 -16 10 -3 8 12 10 10 11 -10 l1
-25 11 26 c7 16 19 25 30 23 11 -1 17 5 18 19 1 12 7 -5 13 -38 9 -42 9 -64 2
-75 -6 -8 2 -4 18 8 16 12 31 20 33 18 8 -7 -21 -46 -34 -46 -17 0 -16 -8 2
-60 15 -42 14 -44 -11 -77 -14 -19 -28 -32 -30 -30 -3 2 5 25 16 51 23 55 23
56 11 56 -6 0 -26 -31 -47 -70 -20 -38 -40 -70 -44 -70 -8 0 -20 151 -20 266
0 69 3 85 18 93 9 6 12 11 6 11 -7 0 -14 6 -17 13 -6 17 79 9 94 -9z m1350 15
c7 -12 162 -57 499 -145 96 -25 176 -47 178 -48 10 -10 -14 -36 -34 -36 -69 0
-396 78 -604 144 -88 28 -120 43 -136 64 l-21 27 55 3 c36 2 58 -1 63 -9z
m3064 -109 c-5 -78 -12 -114 -27 -140 -30 -53 -120 -160 -134 -160 -6 0 -16
-6 -22 -13 -6 -7 -33 -14 -59 -15 -26 -2 -64 -8 -83 -14 -25 -9 -202 -12 -610
-12 -638 -1 -872 7 -863 30 3 8 11 14 18 14 7 0 29 14 50 30 48 38 57 38 21 1
l-27 -28 43 -2 c24 0 130 -4 236 -8 107 -5 196 -5 199 0 2 4 8 5 13 2 12 -8
740 -6 900 1 73 4 136 12 151 20 32 16 114 106 136 148 10 19 18 67 21 123 l5
92 -156 -2 c-160 -2 -192 3 -84 14 l62 6 -85 3 -85 4 100 5 c55 3 142 6 193 6
l94 0 -7 -105z m-3090 -85 c388 -117 645 -178 880 -210 66 -9 122 -21 125 -25
3 -5 26 -11 50 -13 25 -3 -7 -3 -70 -1 -228 8 -532 75 -1012 225 -197 62 -211
67 -203 79 3 5 8 10 11 10 2 0 101 -29 219 -65z m-715 -203 c437 -233 1223
-489 1654 -537 43 -5 55 -10 45 -17 -10 -6 -3 -8 24 -6 20 2 37 0 37 -4 0 -22
-224 3 -430 49 -398 88 -1080 337 -1279 467 -36 23 -99 62 -138 85 -40 23 -73
44 -73 47 0 3 15 -3 33 -14 17 -11 75 -42 127 -70z m-920 -17 c0 -3 -105 -57
-232 -119 -272 -133 -468 -226 -468 -222 0 13 552 297 645 333 34 12 55 16 55
8z m1633 -89 c3 -8 37 -24 74 -35 105 -31 397 -106 508 -131 55 -12 104 -26
108 -30 5 -4 3 -18 -3 -30 -11 -20 -17 -22 -64 -16 -114 13 -652 164 -691 194
-5 4 -19 17 -29 30 l-19 22 38 0 c32 0 36 -2 25 -15 -8 -10 -9 -15 -1 -15 6 0
16 9 23 20 15 24 24 25 31 6z m9551 -30 c39 -13 79 -26 88 -28 11 -2 32 -33
53 -76 19 -40 29 -70 23 -66 -8 5 -9 2 -5 -9 5 -12 1 -17 -12 -17 -11 0 -27
-3 -37 -7 -13 -5 -15 -3 -9 8 7 12 6 12 -6 0 -10 -10 -11 -15 -2 -18 13 -5 6
-34 -11 -45 -7 -5 -7 -8 2 -8 20 0 13 -16 -8 -17 -13 -1 -18 2 -14 9 4 6 -2 5
-13 -3 -12 -8 -43 -14 -77 -13 -55 1 -59 -2 -57 -36 0 -10 -1 -11 -5 -2 -3 6
-15 12 -26 12 -21 0 -21 0 -2 -21 19 -22 19 -22 -3 -8 -13 8 -23 19 -23 26 0
7 -4 13 -10 13 -5 0 -10 -7 -10 -15 0 -8 -6 -13 -12 -11 -7 3 -26 7 -41 11
-20 4 -27 10 -23 20 3 9 -1 15 -10 15 -8 0 -13 -4 -10 -9 4 -5 0 -12 -6 -14
-8 -4 -4 -8 9 -12 13 -4 20 -11 17 -16 -3 -5 -14 -5 -24 1 -21 11 -64 8 -123
-10 -22 -6 -41 -10 -43 -7 -2 2 32 14 76 27 48 14 80 29 80 37 0 22 38 15 51
-9 8 -14 14 -18 17 -10 2 6 10 12 18 12 20 0 17 20 -3 21 -15 0 -15 2 2 8 11
5 23 4 26 -1 4 -6 9 -6 13 1 11 17 -37 31 -99 28 -37 -1 -54 -6 -51 -14 5 -12
-15 -23 -40 -23 -9 0 -13 4 -9 10 3 5 11 7 19 4 7 -3 13 2 13 11 0 11 -6 13
-20 9 -12 -4 -17 -2 -13 4 9 15 -20 22 -34 9 -8 -7 -10 -8 -7 -1 4 7 -7 11
-30 12 -51 2 -55 12 -5 12 46 0 59 19 15 21 -22 1 -24 2 -8 7 15 4 6 10 -35
24 l-55 18 45 -4 c42 -4 43 -4 21 8 -23 13 -23 14 -5 24 40 21 102 27 97 10
-2 -4 6 -12 16 -18 13 -6 18 -18 17 -35 -3 -24 -2 -25 59 -21 74 5 145 25 152
43 6 15 -16 38 -54 58 -24 13 -25 15 -8 16 14 0 9 5 -15 14 -19 7 -27 14 -18
14 9 1 18 4 20 9 3 6 81 38 102 41 5 0 41 -10 80 -23z m1274 -105 c18 -5 65
-11 105 -12 39 -1 78 -7 85 -12 7 -6 12 -6 12 0 0 6 10 9 23 8 12 -1 31 -3 42
-5 11 -1 15 -4 8 -7 -21 -8 -15 -22 7 -16 11 3 20 10 20 16 0 8 3 8 11 0 6 -6
19 -9 28 -6 10 3 12 2 6 -4 -6 -4 -12 -18 -12 -30 -1 -16 2 -20 15 -16 16 6
16 5 0 -14 -16 -18 -16 -21 -2 -39 15 -18 15 -18 11 4 -3 12 -2 20 3 17 4 -3
13 2 20 10 8 10 9 15 2 15 -6 0 -9 7 -5 16 3 9 9 12 12 7 7 -11 51 -12 45 -1
-3 4 2 8 10 8 9 0 16 -2 16 -4 0 -2 3 -12 6 -21 5 -11 2 -15 -7 -13 -14 3 -69
-34 -69 -46 0 -3 -9 -15 -21 -27 -16 -16 -23 -18 -35 -8 -11 9 -14 8 -14 -3 0
-16 -85 -46 -114 -40 -15 3 -16 6 -5 13 10 6 10 9 2 9 -7 0 -10 8 -7 18 3 12
-11 -12 -21 -35 -1 -2 -83 15 -100 21 -5 2 -14 4 -20 6 -5 1 -19 7 -30 13 -11
7 -27 12 -35 13 -118 15 -121 20 -67 106 23 37 42 68 42 68 0 0 15 -4 33 -9z
m-9560 -146 c-46 -90 -63 -114 -82 -117 -31 -6 -24 17 7 26 12 3 18 8 14 12
-3 4 -18 -1 -31 -10 -29 -18 -106 -22 -106 -5 0 6 21 56 46 110 l47 99 81 -1
82 -1 -58 -113z m-2178 15 c14 -11 29 -20 33 -20 4 0 50 -27 103 -60 238 -150
706 -367 829 -384 89 -12 158 -28 278 -63 141 -41 501 -123 540 -123 15 0 27
-3 27 -7 0 -3 -26 -38 -58 -77 -33 -39 -72 -91 -87 -115 l-29 -43 -51 7 c-27
3 -65 15 -83 26 -18 10 -30 15 -27 9 3 -5 1 -10 -4 -10 -6 0 -11 9 -11 21 0
22 -89 121 -102 113 -4 -3 -8 1 -8 8 -1 18 -48 51 -62 42 -8 -5 -9 -2 -5 10 4
10 3 15 -4 11 -5 -4 -26 12 -46 34 -30 35 -38 39 -51 29 -12 -11 -16 -10 -20
1 -2 7 -7 9 -11 5 -3 -5 -29 -20 -56 -34 l-51 -26 -64 80 -65 80 -265 121
c-146 67 -320 151 -388 188 -132 73 -286 170 -297 186 -10 17 8 12 35 -9z
m935 -227 c9 -11 142 -50 325 -97 36 -9 117 -30 180 -47 63 -17 132 -35 153
-40 40 -10 40 -15 2 -63 -13 -18 -19 -18 -72 -7 -113 24 -343 91 -499 146
-124 43 -165 62 -191 87 l-33 33 63 0 c36 0 66 -5 72 -12z m11610 -83 c19 -8
19 -9 -2 -9 -13 -1 -23 -5 -23 -11 0 -6 23 -7 57 -4 49 4 55 3 44 -9 -8 -11
-24 -13 -53 -9 -35 4 -40 3 -35 -11 6 -17 -11 -27 -46 -27 -22 -1 -22 -1 -3
-15 14 -11 16 -15 5 -15 -12 0 -12 -2 1 -10 8 -5 12 -10 8 -10 -3 0 -14 -3
-24 -7 -13 -5 -16 -3 -11 10 5 14 0 17 -26 17 -27 -1 -29 -2 -14 -11 30 -18
18 -26 -39 -28 -31 0 -60 -3 -65 -7 -5 -3 -15 -2 -21 3 -9 5 1 12 27 20 38 12
38 13 7 10 -18 -2 -35 0 -38 5 -3 5 -12 1 -19 -8 -11 -16 -12 -15 -10 9 2 15
-1 27 -6 27 -5 0 -9 6 -9 14 0 15 -41 30 -50 17 -14 -22 -160 0 -160 25 0 3 5
2 12 -2 17 -11 88 -22 88 -15 0 4 37 8 81 9 45 1 86 5 92 9 5 3 8 0 5 -8 -3
-8 1 -19 8 -26 18 -19 29 -16 13 3 -19 23 0 31 79 33 37 1 73 3 80 3 6 1 12
10 12 20 0 20 5 21 35 8z m-13071 -390 c-18 -9 -39 -22 -48 -29 -9 -8 -40 -22
-69 -31 -29 -10 -51 -23 -50 -29 2 -6 -2 -11 -9 -11 -6 0 -20 -8 -31 -17 -10
-10 -31 -18 -46 -18 -18 0 -25 -5 -23 -16 3 -19 -70 -62 -92 -53 -11 4 -16 1
-16 -10 0 -9 -7 -16 -15 -16 -8 0 -15 5 -15 10 0 6 -6 10 -14 10 -32 0 -25 21
11 36 21 9 51 27 66 40 16 13 37 24 47 24 10 0 28 13 40 29 11 17 31 33 43 37
12 3 29 13 37 21 35 33 64 53 75 53 6 0 22 12 36 26 13 14 40 34 59 44 l35 18
5 -51 c5 -50 4 -53 -26 -67z m56 -83 c0 -10 -4 -15 -10 -12 -5 3 -10 1 -10 -4
0 -6 -7 -11 -15 -11 -9 0 -15 -7 -13 -17 2 -11 -6 -19 -27 -24 -61 -15 -104
-36 -131 -63 -16 -15 -40 -30 -55 -33 -17 -3 -26 -10 -23 -18 3 -7 -4 -16 -15
-20 -12 -3 -33 -17 -49 -29 -15 -13 -43 -26 -62 -29 -25 -5 -31 -4 -20 3 8 5
22 10 30 10 8 0 21 14 29 31 7 17 24 34 37 40 14 5 34 18 46 29 12 11 26 20
31 20 6 0 24 10 41 23 17 13 52 33 78 46 25 12 49 28 51 36 3 7 16 15 29 17
13 2 27 13 33 25 10 24 25 13 25 -20z m4131 -28 c45 -14 54 -31 29 -54 -15
-14 -22 -15 -41 -4 -16 8 -54 10 -124 6 -143 -8 -229 -25 -271 -54 -41 -27
-49 -25 -40 11 13 53 97 80 290 95 56 5 105 9 110 10 5 0 26 -4 47 -10z
m-3988 -213 c9 -13 40 -53 71 -88 l55 -65 -52 -16 c-57 -18 -96 -27 -142 -33
-48 -6 -59 -9 -82 -22 -20 -11 -22 -10 -20 15 2 23 8 29 31 31 18 2 30 11 33
23 3 10 13 19 22 19 9 0 24 7 34 14 17 13 17 14 -1 18 -10 3 -29 -3 -41 -13
-13 -11 -27 -17 -32 -14 -12 8 -79 -22 -79 -34 0 -6 -5 -11 -11 -11 -5 0 -7 5
-4 10 7 12 3 12 -19 4 -9 -3 -13 -11 -9 -17 4 -6 -2 -8 -15 -5 -12 4 -25 2
-28 -3 -3 -5 -13 -9 -22 -9 -15 1 -14 3 3 16 11 8 19 18 17 22 -2 4 17 13 43
20 34 10 45 18 41 28 -3 8 -2 12 3 9 5 -3 12 4 16 15 4 11 19 27 35 35 16 8
35 24 43 35 13 19 52 37 83 39 7 1 19 -10 27 -23z m376 -134 c339 -284 525
-409 860 -577 68 -34 78 -36 110 -26 19 6 35 9 36 8 0 -1 9 -12 19 -24 18 -22
18 -22 -10 -47 -16 -13 -27 -27 -24 -29 3 -3 66 -32 140 -65 160 -71 408 -155
613 -207 146 -38 190 -56 174 -71 -10 -10 -228 44 -397 98 -278 90 -570 207
-615 248 -16 15 -92 56 -167 93 -252 121 -554 300 -691 410 -29 23 -69 55 -90
71 -22 16 -36 34 -33 41 3 8 -2 19 -10 25 -27 23 -14 30 16 9 30 -22 55 -20
32 3 -16 16 -16 41 1 32 6 -4 4 2 -5 13 -19 20 -23 33 -11 33 4 0 27 -17 52
-38z m-193 -73 c20 -20 30 -37 27 -47 -5 -10 -2 -13 6 -8 16 10 73 -43 66 -62
-2 -7 -1 -11 4 -8 4 3 32 -16 61 -43 38 -34 49 -50 39 -54 -11 -5 -11 -6 1 -6
29 2 40 -1 40 -11 0 -5 -11 -10 -24 -10 -14 0 -28 5 -31 10 -3 6 -11 10 -17
10 -7 0 -6 -6 2 -15 10 -12 9 -15 -4 -15 -12 0 -16 -5 -11 -19 7 -23 -19 -36
-34 -17 -16 19 -86 14 -109 -8 -11 -9 -29 -16 -39 -15 -35 5 -103 -12 -103
-27 0 -16 16 -19 24 -5 3 5 21 11 40 13 33 4 33 3 19 -19 -10 -15 -11 -23 -4
-23 6 0 11 3 11 8 0 4 6 15 14 24 11 15 19 16 50 7 27 -7 41 -7 51 1 7 6 16 7
19 2 3 -5 -7 -15 -22 -23 -15 -8 -33 -20 -40 -26 -20 -19 -34 -15 -27 7 8 25
-6 26 -36 0 -20 -16 -21 -19 -7 -20 60 -1 -15 -63 -80 -66 -25 0 -54 -9 -70
-21 -27 -20 -82 -36 -82 -24 0 3 5 13 10 21 8 12 12 12 18 2 7 -9 15 -6 36 13
15 14 25 25 22 25 -2 0 -11 3 -20 6 -11 4 -16 1 -16 -11 0 -15 -2 -16 -17 -4
-13 11 -17 11 -20 2 -3 -7 -11 -13 -20 -13 -10 0 -12 -6 -8 -20 4 -11 2 -20
-4 -20 -6 0 -11 8 -12 18 0 11 -2 12 -6 4 -3 -7 1 -19 7 -27 10 -12 9 -15 -9
-15 -15 0 -20 4 -15 13 5 8 3 8 -9 -2 -9 -7 -14 -17 -11 -22 6 -10 -29 -12
-39 -3 -7 7 35 44 50 44 4 0 13 11 19 25 l12 24 -32 -16 c-17 -9 -37 -24 -44
-34 -17 -24 -24 -24 -52 1 -13 11 -31 20 -42 20 -27 0 -22 19 7 26 14 3 22 10
19 15 -3 6 -14 7 -25 4 -24 -8 -79 15 -79 32 0 16 16 17 25 3 9 -15 25 -2 25
21 0 10 4 19 10 19 5 0 7 7 4 15 -4 9 -19 15 -35 15 -36 0 -38 17 -4 26 28 7
34 26 8 23 -31 -3 -34 0 -23 21 7 12 21 20 38 20 25 1 26 2 9 14 -18 14 -18
15 0 24 10 6 15 13 12 16 -8 9 -69 -51 -69 -68 0 -20 -60 -45 -95 -40 -25 4
-26 3 -10 -5 18 -9 17 -10 -10 -11 -18 -2 -23 -4 -12 -7 9 -2 17 -9 17 -15 0
-6 -11 -8 -26 -4 -14 4 -23 3 -20 -2 3 -5 -13 -15 -34 -22 -22 -7 -40 -19 -40
-26 0 -7 -8 -10 -20 -7 -28 7 -20 24 21 46 l34 18 -35 -4 c-49 -6 -67 19 -38
51 12 12 17 22 11 22 -6 0 -19 3 -29 7 -11 4 -15 2 -11 -4 7 -12 -30 -49 -39
-40 -4 4 -1 13 6 22 10 12 10 15 -1 15 -8 1 -3 7 10 14 19 11 29 11 48 1 20
-11 30 -10 64 6 43 22 52 34 15 25 -51 -13 -32 9 26 29 58 21 64 21 82 6 18
-15 19 -15 14 5 -5 18 3 24 62 42 36 12 75 22 86 22 10 0 32 7 48 15 35 19 37
19 30 0 -8 -21 2 -19 24 5 10 11 29 21 43 22 13 2 26 6 29 10 11 14 161 56
182 50 14 -3 19 -1 14 6 -5 9 22 23 64 31 2 1 19 -13 36 -30z m-862 -331 c-3
-4 -12 -4 -21 -1 -11 4 -14 2 -11 -8 3 -8 11 -13 17 -11 6 1 11 -5 11 -13 0
-12 -4 -14 -16 -7 -9 5 -26 7 -37 4 -14 -3 -18 -1 -13 6 9 16 -7 15 -22 0 -22
-22 -14 -38 16 -32 15 3 38 1 52 -5 20 -8 12 -10 -46 -10 -62 -1 -74 -4 -88
-23 -10 -15 -14 -17 -10 -5 4 11 1 17 -9 17 -25 0 -27 -39 -4 -64 12 -13 29
-25 37 -28 9 -3 3 -9 -18 -19 -18 -7 -32 -17 -32 -21 0 -15 22 -19 37 -7 13
11 17 10 28 -4 15 -21 45 -22 45 -2 0 8 -5 15 -12 15 -6 0 -2 10 10 23 12 13
22 29 22 35 0 7 5 12 10 12 16 0 12 -18 -10 -40 -11 -11 -20 -22 -20 -25 0 -3
19 -5 43 -6 l42 -1 -39 -12 c-21 -7 -44 -20 -51 -29 -7 -9 -18 -17 -24 -17 -7
0 -9 -5 -6 -11 4 -6 13 -8 20 -5 8 3 18 -1 24 -8 8 -10 4 -13 -20 -13 -25 0
-33 6 -41 28 -5 16 -18 29 -32 31 -24 5 -60 -14 -49 -26 11 -10 -30 -35 -58
-36 -15 0 -29 7 -33 15 -3 9 -19 21 -35 26 -20 7 -28 15 -24 25 3 8 0 20 -6
28 -9 11 -8 18 4 30 20 20 35 21 35 2 0 -15 16 -16 36 -3 7 4 14 -2 18 -16 6
-25 -17 -49 -40 -40 -10 4 -12 0 -8 -11 8 -20 48 -21 64 -1 7 9 19 14 27 11 7
-3 13 1 13 9 0 8 4 15 10 15 5 0 7 7 3 16 -3 8 -12 13 -19 10 -7 -3 -16 -1
-20 5 -3 6 3 13 15 16 12 3 21 11 21 18 0 8 -8 11 -19 8 -10 -3 -22 0 -25 6
-4 6 -2 11 5 11 7 0 4 7 -7 15 -18 14 -17 14 14 15 25 0 32 4 32 20 0 15 7 20
25 20 14 0 25 5 25 10 0 6 6 10 14 10 8 0 16 7 20 15 3 8 14 15 25 15 14 0 18
5 14 19 -3 13 1 20 14 23 23 4 83 -14 77 -24z m3246 -98 l49 0 66 -82 c37 -46
87 -104 111 -130 37 -39 43 -51 35 -66 -27 -50 -35 -47 -117 51 -44 51 -95
116 -114 144 -23 34 -44 54 -62 58 -15 4 -33 14 -40 23 -11 14 -11 15 5 9 10
-4 41 -7 67 -7z m-3423 -232 c4 -7 6 -25 4 -40 -2 -23 1 -26 20 -21 19 5 21 3
17 -15 -5 -17 -1 -23 19 -28 19 -5 22 -9 11 -16 -8 -6 -2 -7 20 -3 22 5 32 3
32 -5 0 -9 -15 -11 -50 -8 -27 3 -47 1 -44 -4 9 -15 -26 -21 -53 -9 -14 6 -34
9 -45 5 -18 -5 -16 -8 14 -31 l33 -24 -30 7 c-16 4 -34 10 -40 14 -15 10 -85
10 -85 -1 0 -5 21 -9 46 -9 25 0 43 -4 40 -9 -7 -11 45 -22 72 -15 11 3 23 15
26 27 3 12 8 18 11 15 4 -3 1 -16 -5 -28 -6 -12 -9 -25 -5 -28 3 -3 8 4 12 17
4 17 11 22 29 18 14 -2 29 2 36 11 11 13 9 15 -14 10 -16 -3 -28 -1 -28 3 0
13 88 14 100 2 3 -3 -1 -8 -8 -10 -6 -3 -9 -10 -5 -15 4 -7 -2 -9 -15 -6 -13
4 -25 1 -30 -7 -4 -7 -17 -15 -30 -17 -33 -5 -31 -22 4 -29 l29 -7 -33 -1
c-18 0 -41 3 -50 8 -35 17 -82 21 -82 7 0 -8 -13 -17 -30 -21 -31 -7 -42 -25
-15 -25 8 0 15 4 15 9 0 15 158 11 164 -4 2 -7 18 -16 35 -20 17 -4 31 -11 31
-16 0 -14 -83 1 -96 17 -11 14 -54 15 -54 2 0 -4 -11 -8 -24 -8 -26 0 -50 -22
-38 -35 4 -4 -6 -4 -23 1 -16 4 -56 7 -87 6 -31 -2 -59 2 -63 8 -3 6 -10 8
-15 5 -4 -3 -10 2 -13 10 -4 10 -16 12 -44 8 -21 -3 -42 -9 -46 -13 -12 -11
-73 5 -92 24 -9 9 -13 16 -8 16 4 0 -4 8 -17 17 -14 9 -31 25 -38 35 -7 10
-20 18 -28 18 -8 0 -14 5 -14 10 0 6 4 10 9 10 5 0 16 3 24 6 8 3 22 -2 31
-12 9 -9 19 -14 22 -11 11 11 -6 25 -36 32 -36 8 -38 18 -7 33 20 10 19 10 -9
5 -33 -5 -55 11 -29 21 8 3 15 0 15 -7 1 -7 5 -6 13 4 33 43 89 41 101 -4 3
-14 15 -27 27 -30 16 -4 20 -11 15 -24 -6 -14 -5 -16 5 -5 19 18 35 15 63 -13
27 -27 55 -31 87 -14 19 10 20 9 9 -11 -8 -15 -18 -20 -31 -17 -29 8 -32 -9
-4 -21 15 -7 25 -8 25 -2 0 6 11 5 25 -2 19 -8 28 -9 37 0 8 8 6 10 -8 6 -23
-5 -49 10 -41 24 10 14 59 6 69 -12 5 -9 19 -16 31 -15 22 0 22 0 -2 10 -16 6
-21 14 -17 25 5 14 1 16 -29 11 -33 -5 -47 5 -25 18 8 5 7 11 -1 21 -9 12 -15
11 -36 -6 l-25 -19 -32 24 c-18 14 -39 25 -47 25 -10 1 -9 3 3 11 10 5 25 25
34 45 15 31 18 33 29 17 11 -14 16 -15 36 -5 21 11 21 11 3 7 -16 -4 -23 0
-27 15 -3 11 -1 20 3 20 5 0 15 3 24 6 9 3 16 1 16 -5 0 -6 -8 -11 -17 -12
-11 0 -13 -2 -5 -6 7 -3 24 3 39 12 20 13 27 14 33 5 5 -7 15 -10 25 -7 9 4
14 3 10 -3 -3 -6 -15 -10 -26 -10 -10 0 -19 -7 -19 -15 0 -8 -6 -15 -12 -15
-7 -1 5 -7 27 -15 39 -15 71 -13 61 3 -10 16 68 10 80 -6 10 -14 12 -13 18 6
4 12 5 26 2 31 -7 11 -55 11 -62 0 -3 -5 -16 -1 -30 8 l-26 17 24 18 c12 9 19
18 13 19 -9 2 45 15 72 18 6 0 15 -5 20 -11z m341 -44 c18 -8 32 -21 32 -28 0
-17 -21 -36 -41 -36 -13 0 -16 -6 -11 -22 4 -17 2 -20 -11 -15 -10 4 -32 -3
-51 -14 -20 -11 -41 -17 -52 -13 -16 6 -17 5 -6 -7 15 -16 16 -49 2 -49 -6 0
-13 7 -16 15 -4 8 -11 12 -17 8 -6 -4 -8 0 -4 9 3 9 3 19 0 22 -4 3 -8 18 -9
32 -3 23 0 26 22 21 17 -3 24 -1 20 8 -2 7 11 19 30 29 39 18 58 21 49 7 -10
-17 11 -21 49 -10 45 12 37 33 -9 25 -38 -7 -55 7 -28 23 10 6 18 11 19 11 0
0 15 -7 32 -16z m3420 -38 c41 -21 201 -41 447 -56 197 -12 270 -8 319 17 20
10 31 12 39 4 17 -17 -28 -57 -78 -70 -74 -19 -462 -9 -433 11 8 5 -5 6 -32 3
-49 -7 -214 11 -239 25 -13 8 -11 10 9 10 23 1 23 2 5 10 l-20 9 20 1 c16 1
13 4 -10 13 -52 21 -95 47 -95 59 0 7 7 5 18 -4 9 -9 32 -23 50 -32z m-4410
-563 c7 -12 14 -11 45 2 46 19 53 19 61 -1 3 -8 2 -12 -4 -9 -6 3 -10 1 -10
-4 0 -6 -7 -11 -15 -11 -8 0 -15 4 -15 9 0 5 -9 7 -20 4 -15 -4 -18 -9 -10
-18 5 -6 7 -15 3 -19 -4 -4 0 -4 9 -1 9 4 19 2 23 -4 11 -18 35 -13 28 6 -4
11 -3 14 5 9 7 -4 12 -13 12 -21 0 -7 6 -15 13 -18 6 -2 9 -7 6 -11 -4 -4 -18
-2 -32 5 -18 8 -30 8 -43 0 -17 -10 -17 -11 5 -8 37 3 36 -20 -1 -28 -18 -4
-39 -12 -45 -17 -7 -6 -13 -7 -13 -4 0 4 -6 1 -13 -6 -11 -10 -8 -17 15 -41
15 -17 28 -34 28 -39 0 -15 -39 15 -43 34 -3 10 -13 18 -22 18 -9 0 -13 -4
-10 -10 3 -5 -1 -10 -11 -10 -14 0 -14 3 -4 15 19 22 -5 65 -34 62 -13 -1 -20
3 -18 12 1 7 -3 19 -9 27 -10 12 -9 13 5 8 9 -3 16 -2 16 3 0 14 -38 33 -54
27 -8 -3 -25 2 -38 11 l-23 17 24 -5 c14 -4 31 -2 37 4 9 8 16 5 26 -10 14
-23 34 -27 41 -8 3 9 10 7 23 -7 19 -18 18 -18 -3 -11 -26 7 -30 -7 -8 -25 13
-11 13 -15 3 -21 -9 -6 -4 -9 15 -9 16 0 27 -5 27 -14 0 -9 8 -12 25 -9 26 6
28 21 5 41 -13 11 -11 12 10 6 22 -6 23 -5 11 10 -7 9 -21 16 -30 16 -14 0
-14 2 -1 10 13 9 13 11 0 20 -10 6 -16 6 -18 0 -2 -6 -12 -5 -25 2 -12 7 -34
11 -49 9 -28 -3 -39 13 -15 22 27 11 108 4 115 -10z"/>
<path d="M10689 12216 c-2 -3 -37 -6 -77 -7 -46 -1 -76 -7 -83 -16 -6 -7 -17
-13 -24 -13 -12 0 -21 -19 -31 -62 -2 -11 2 -18 10 -18 7 0 16 -9 19 -20 6
-22 -8 -28 -16 -7 -8 24 -19 -2 -24 -62 -8 -90 -3 -97 54 -66 27 14 55 29 63
34 8 5 51 17 95 27 44 9 98 23 120 30 22 7 59 17 83 24 31 8 42 16 42 30 0 11
5 20 12 20 9 0 9 3 0 12 -16 16 -15 23 3 42 13 13 9 15 -40 15 -30 0 -59 2
-65 6 -5 3 -32 6 -60 7 -30 0 -49 4 -47 11 2 11 -25 22 -34 13z"/>
<path d="M4855 10541 c-77 -16 -147 -30 -156 -32 -15 -4 -15 -10 3 -69 23 -74
33 -90 59 -90 25 0 31 14 19 44 -5 14 -6 27 -2 29 18 11 51 -15 65 -50 l15
-38 58 2 c53 2 138 20 106 22 -20 1 -4 21 17 21 17 0 17 3 4 58 -30 121 -34
132 -41 131 -4 0 -70 -13 -147 -28z"/>
<path d="M4495 10472 c-44 -8 -81 -16 -83 -17 -2 -2 6 -28 17 -58 10 -31 16
-58 13 -61 -3 -3 4 -6 15 -6 11 0 23 -3 27 -7 12 -12 50 -14 91 -4 22 5 52 12
67 15 27 6 27 7 12 41 -7 19 -14 47 -14 63 0 55 -15 59 -145 34z"/>
<path d="M6185 9764 c-61 -14 -208 -48 -370 -85 -49 -12 -133 -32 -185 -45
-542 -139 -698 -182 -665 -183 11 -1 36 4 55 10 19 5 50 12 69 15 18 2 42 9
52 15 11 5 24 7 29 4 5 -3 18 -1 29 4 16 9 144 40 221 54 38 7 266 65 495 126
83 22 195 52 250 66 134 36 149 49 20 19z"/>
<path d="M15223 19259 c-157 -11 -930 -47 -1273 -59 -442 -15 -1268 -30 -1890
-34 -311 -3 -566 -5 -567 -5 -2 -1 -3 -9 -3 -18 0 -15 8 -18 44 -17 25 0 51 5
58 11 9 7 285 12 818 16 983 8 1708 28 2565 72 338 18 385 22 385 36 0 5 -6 8
-12 8 -7 -1 -64 -6 -125 -10z"/>
</g>
</svg>
