<?xml version="1.0" standalone="no"?>
<!DOCTYPE svg PUBLIC "-//W3C//DTD SVG 20010904//EN"
 "http://www.w3.org/TR/2001/REC-SVG-20010904/DTD/svg10.dtd">
<svg version="1.0" xmlns="http://www.w3.org/2000/svg"
 width="768.000000pt" height="1024.000000pt" viewBox="0 0 768.000000 1024.000000"
 preserveAspectRatio="xMidYMid meet">

<g transform="translate(0.000000,1024.000000) scale(0.100000,-0.100000)"
fill="#000000" stroke="none">
<path d="M0 5700 l0 -4540 39 6 c34 5 40 3 46 -16 4 -12 4 -24 1 -27 -3 -4 -6
1 -6 10 0 10 -5 17 -11 17 -19 0 -50 -21 -44 -31 4 -5 -1 -12 -9 -15 -13 -5
-16 -26 -16 -120 0 -125 7 -140 56 -114 29 16 31 41 4 58 -37 23 -20 30 78 31
53 1 99 6 100 11 5 14 82 13 82 -1 0 -8 5 -8 15 1 8 7 21 10 29 7 8 -3 17 1
20 9 8 20 -11 54 -29 54 -8 0 -20 8 -27 18 -7 11 -23 24 -35 31 -19 10 -23 20
-23 61 0 28 4 50 9 50 5 0 11 9 14 20 5 20 27 28 27 10 0 -11 39 -13 64 -4 11
4 16 19 16 49 0 35 4 45 20 50 27 9 60 -3 60 -21 0 -15 48 -63 63 -64 5 0 15
-7 23 -15 20 -19 74 -20 74 -1 0 8 -5 16 -12 18 -8 3 -8 13 3 37 l14 32 85 -7
c90 -7 103 -10 95 -24 -10 -16 28 -34 76 -34 26 0 50 2 52 5 3 2 7 22 11 44 5
27 4 35 -3 26 -8 -12 -11 -10 -16 11 -5 19 -14 28 -33 30 -23 3 -27 8 -30 40
-2 22 1 38 7 38 6 0 11 6 11 14 0 26 23 30 41 8 12 -15 19 -18 22 -10 3 9 14
6 37 -11 18 -13 35 -19 39 -15 35 49 70 35 73 -30 l1 -41 4 38 c2 21 11 41 19
44 8 3 14 19 14 40 0 22 8 43 25 61 14 15 25 35 25 44 0 21 11 23 28 6 9 -9
12 -5 12 20 0 32 -13 42 -26 21 -5 -8 -9 -8 -14 1 -9 15 -30 4 -30 -16 0 -8
-9 -14 -20 -14 -11 0 -20 -6 -20 -13 0 -16 -32 -47 -48 -47 -24 0 -102 62
-102 81 0 35 34 57 87 57 70 0 70 0 76 22 7 25 27 26 34 1 3 -12 16 -20 36
-23 52 -6 67 1 67 29 0 26 1 26 65 21 79 -7 92 5 68 64 -14 34 -13 41 4 75
l18 38 123 -2 c76 -2 122 1 122 7 0 6 18 10 40 10 27 0 40 -4 40 -14 0 -16
106 -41 145 -34 17 4 30 0 38 -11 30 -40 60 -50 128 -40 35 5 108 12 162 15
90 5 102 4 143 -18 32 -17 44 -28 40 -40 -2 -10 1 -18 9 -18 7 0 23 -34 36
-75 l24 -75 38 0 c20 0 37 -4 37 -9 0 -17 100 -24 128 -10 20 11 26 11 29 2 3
-7 11 -13 19 -13 9 0 24 -4 34 -10 16 -9 17 -13 4 -50 -15 -44 -12 -60 12 -60
8 0 14 -4 14 -10 0 -6 45 -10 114 -10 66 0 117 -4 121 -10 8 -13 48 -13 80 2
20 9 25 18 25 50 0 36 2 38 30 38 17 0 30 4 30 8 0 5 10 8 23 8 16 -1 23 5 25
22 3 17 10 22 35 22 21 1 44 11 67 30 41 36 60 37 88 7 29 -30 28 -48 -4 -82
-30 -33 -21 -48 27 -43 33 3 34 5 43 60 7 48 13 61 42 83 19 14 56 31 84 38
42 10 50 15 50 34 0 31 16 29 51 -6 28 -28 33 -29 102 -26 39 2 85 8 100 14
37 14 147 14 147 0 0 -5 5 -7 11 -3 30 18 162 44 227 44 75 0 112 -11 112 -33
0 -20 68 -40 139 -43 35 -1 67 -7 70 -13 13 -21 95 -41 167 -41 41 0 74 4 74
9 0 5 14 14 31 21 17 7 36 18 42 24 7 6 32 24 57 40 25 16 57 37 72 48 15 10
40 18 55 18 17 0 33 8 41 20 7 11 18 17 27 14 8 -4 22 -3 30 0 13 4 14 10 5
26 -6 11 -17 20 -25 20 -22 0 -18 29 8 51 18 15 19 20 8 28 -17 11 -7 41 13
41 8 0 21 -7 30 -15 15 -15 82 -21 88 -7 6 13 72 40 113 46 26 3 47 14 60 30
25 32 74 30 89 -3 8 -18 3 -28 -30 -62 -21 -22 -64 -52 -94 -66 -30 -15 -56
-30 -58 -35 -2 -4 -12 -8 -22 -8 -10 0 -21 -9 -25 -19 -6 -20 -35 -37 -35 -21
0 6 -18 10 -40 10 -29 0 -40 -4 -40 -15 0 -11 11 -15 40 -15 41 0 50 -9 26
-29 -7 -6 -16 -35 -19 -64 -6 -46 -4 -54 16 -69 12 -10 16 -18 9 -18 -24 0 11
-40 47 -51 26 -9 35 -9 41 2 7 10 19 7 58 -14 41 -22 54 -25 81 -17 59 17 104
-18 80 -62 -9 -18 -18 -20 -65 -16 -35 3 -54 1 -54 -6 0 -6 -5 -27 -10 -47 -8
-30 -18 -40 -50 -53 -22 -9 -51 -16 -64 -16 -36 0 -56 -10 -56 -29 0 -9 -5
-22 -12 -29 -18 -18 -8 -20 52 -11 106 15 121 12 166 -30 38 -37 107 -67 126
-55 5 3 4 12 -3 20 -9 11 -8 14 8 14 10 0 23 -4 28 -9 6 -6 34 -7 70 -2 36 5
71 4 88 -2 16 -5 45 -6 65 -3 101 19 102 19 102 -3 0 -13 -8 -23 -23 -27 -19
-4 -26 -16 -36 -56 -13 -60 -5 -72 44 -63 36 7 85 27 85 36 0 4 -10 9 -22 13
-20 5 -21 8 -8 17 11 8 12 12 3 16 -29 11 -12 31 30 34 72 6 117 0 117 -18 0
-13 11 -14 78 -8 42 4 80 11 83 16 3 5 18 5 36 -1 16 -6 34 -10 39 -9 25 6 63
-15 68 -37 4 -14 13 -27 21 -31 24 -9 75 17 75 38 0 16 8 19 55 19 34 0 65 -6
80 -16 16 -11 25 -12 25 -5 0 9 5 9 20 1 11 -6 20 -20 20 -31 0 -12 -8 -23
-20 -26 -22 -6 -28 -43 -7 -43 6 0 23 -13 37 -30 23 -28 28 -29 65 -20 55 13
123 12 127 -1 3 -8 40 -11 113 -10 89 1 112 4 122 17 12 17 53 16 136 -2 19
-5 27 -2 27 8 0 13 26 21 160 45 38 7 45 12 45 32 0 13 -9 29 -20 35 -11 6
-22 13 -25 16 -3 3 -17 11 -32 19 -16 8 -28 20 -28 27 0 17 -24 24 -80 24 -38
0 -55 5 -76 25 -31 28 -27 48 13 69 37 19 138 27 154 12 9 -8 10 -6 4 9 -16
42 -17 56 -6 69 17 20 -21 62 -63 69 -19 3 -50 12 -68 20 -56 25 -68 27 -88
15 -16 -10 -23 -8 -44 16 -17 21 -33 29 -55 28 -29 -1 -36 6 -32 35 1 7 -5 13
-13 13 -21 0 -66 21 -66 31 0 5 -12 21 -26 36 -14 15 -32 35 -40 44 -8 9 -14
27 -14 41 0 23 5 27 42 33 24 4 53 14 65 22 12 8 27 12 32 8 13 -7 75 21 92
41 9 11 8 20 -5 39 -21 32 -74 31 -113 -2 -23 -21 -29 -22 -31 -9 -3 11 -16
16 -45 17 -70 3 -102 9 -162 32 -31 12 -75 50 -75 65 0 19 -48 52 -76 52 -16
0 -50 8 -76 17 -55 19 -63 43 -20 61 24 10 22 11 -23 6 -27 -3 -58 -7 -67 -10
-10 -3 -18 -1 -18 5 0 6 -17 11 -37 11 -29 0 -34 3 -25 12 16 16 15 68 0 68
-17 1 31 40 48 40 8 0 14 6 14 14 0 9 16 15 46 19 25 2 50 12 57 20 12 15 57
20 176 18 38 -1 43 -3 38 -21 -3 -11 -1 -20 4 -20 5 0 9 4 9 9 0 5 10 12 23
16 12 3 32 11 45 17 18 9 36 7 91 -10 37 -12 82 -22 100 -22 33 0 33 0 28 -42
-3 -24 -7 -52 -9 -63 -3 -18 3 -20 53 -23 50 -3 56 -1 69 23 7 14 17 25 21 25
4 0 10 11 13 24 10 40 126 67 294 69 l62 1 0 84 c0 83 0 84 -22 78 -13 -3 -49
-9 -80 -13 -32 -3 -58 -10 -58 -14 0 -5 -8 -9 -17 -9 -10 0 -31 -7 -47 -15
-35 -19 -36 -19 -36 0 0 9 -12 18 -30 21 -16 4 -28 11 -27 18 3 16 -181 21
-210 5 -17 -9 -26 -9 -38 1 -8 7 -28 10 -45 8 -16 -3 -30 -1 -30 4 0 4 -18 8
-40 8 -25 0 -40 -5 -40 -13 0 -7 -9 -18 -20 -25 -24 -15 -60 3 -60 30 0 11
-13 21 -40 29 -52 16 -120 -2 -120 -31 0 -12 -15 -26 -43 -39 -40 -19 -47 -20
-83 -7 -21 8 -38 18 -37 23 1 6 -10 16 -25 23 -15 7 -35 16 -44 21 -10 5 -32
9 -49 9 -17 0 -37 7 -45 15 -9 8 -28 15 -44 15 -16 0 -30 5 -32 10 -4 12 -66
-8 -86 -27 -21 -21 -69 -16 -75 6 -3 11 1 22 8 25 8 3 22 24 33 48 10 24 34
60 53 80 64 70 74 87 71 115 -2 15 -10 34 -17 42 -15 16 -20 10 119 162 40 43
57 57 53 41 -3 -12 -2 -22 3 -22 4 0 10 13 13 29 3 16 12 35 19 42 7 8 22 30
32 49 11 19 44 67 73 106 29 40 60 85 70 102 10 16 39 62 66 101 26 39 47 74
47 76 0 2 14 28 31 57 31 52 140 269 172 341 21 46 22 64 5 49 -7 -5 -24 -12
-38 -14 -17 -2 -26 -10 -28 -25 -2 -13 -8 -23 -13 -23 -5 0 -9 -10 -9 -22 0
-12 -8 -30 -17 -40 -17 -18 -22 -32 -27 -73 -1 -11 -9 -21 -17 -23 -20 -4 -53
-67 -43 -83 5 -9 2 -11 -9 -6 -11 4 -14 2 -11 -7 3 -7 -6 -21 -20 -30 -15 -9
-26 -23 -26 -31 0 -8 -4 -15 -9 -15 -5 0 -20 -21 -32 -46 -27 -52 -36 -61 -52
-45 -8 8 -8 11 0 11 6 0 17 17 24 38 7 20 18 46 24 57 16 26 28 88 16 80 -5
-3 -12 -1 -16 5 -3 5 -1 10 4 10 6 0 11 5 11 11 0 6 -7 8 -16 5 -28 -11 -4 54
43 113 2 3 10 -4 18 -15 12 -16 14 -17 15 -2 0 9 -4 18 -9 20 -5 1 -12 15 -16
29 -5 20 -1 32 15 47 12 11 19 25 15 31 -3 6 -1 11 4 11 6 0 11 11 11 25 0 14
5 25 11 25 6 0 8 8 5 18 -21 68 -11 107 25 100 10 -2 15 9 16 32 6 101 10 137
17 158 9 27 -3 28 -32 2 -26 -24 -27 -20 -7 21 9 16 13 34 10 39 -9 15 6 79
21 95 8 8 16 31 19 52 2 21 7 48 11 61 4 13 2 22 -5 22 -13 0 -15 27 -2 32 5
2 3 12 -6 23 -15 20 -15 20 -8 -2 5 -19 3 -22 -12 -17 -15 5 -16 4 -3 -5 10
-7 11 -11 3 -11 -14 0 -55 -74 -46 -84 3 -3 1 -11 -4 -18 -6 -7 -14 -28 -18
-46 -7 -32 -25 -45 -25 -17 0 8 4 15 9 15 9 0 20 55 27 141 2 27 0 49 -4 49
-4 0 -7 20 -8 45 0 24 3 42 8 39 4 -3 8 11 8 30 0 20 0 38 0 41 0 3 -3 5 -7 6
-4 0 -12 -17 -18 -38 -6 -21 -13 -33 -17 -28 -3 6 -2 19 2 30 4 11 5 28 2 38
-3 13 -7 15 -18 6 -8 -6 -14 -17 -14 -23 0 -6 -8 -16 -18 -23 -11 -6 -25 -32
-32 -57 -13 -48 -17 -51 -38 -38 -13 9 -13 13 -16 128 -1 53 -4 70 -13 67 -20
-8 -15 15 5 26 16 10 14 12 -18 15 -9 0 -16 13 -18 34 -4 43 -22 41 -22 -2 0
-19 -5 -38 -12 -42 -8 -5 -9 5 -5 34 3 23 2 40 -3 37 -4 -2 -10 -30 -12 -60
-5 -59 -22 -90 -37 -67 -4 7 -5 32 -1 56 5 34 3 43 -6 39 -7 -3 -15 -14 -18
-26 -5 -25 1 51 9 103 11 71 20 248 13 244 -5 -3 -8 1 -9 8 0 7 -4 4 -9 -7
-12 -28 -12 -37 0 -30 6 3 10 2 10 -4 0 -5 -5 -13 -10 -16 -8 -5 -7 -11 1 -21
9 -11 9 -31 1 -82 -6 -37 -18 -119 -27 -182 -49 -330 -130 -597 -246 -810 -84
-155 -101 -185 -115 -201 -8 -8 -14 -19 -14 -24 0 -14 -60 -66 -70 -60 -4 3
-10 -1 -12 -10 -2 -10 -8 -12 -17 -6 -11 7 -8 19 15 61 15 28 42 64 59 79 45
39 105 121 105 143 0 11 5 16 10 13 6 -4 10 7 10 25 0 17 4 29 10 25 11 -7 35
38 45 85 3 19 11 49 16 65 79 265 121 439 139 587 5 40 13 100 19 133 15 91
20 280 10 375 -10 86 -32 188 -69 315 -12 39 -25 84 -30 100 -19 66 -79 209
-80 190 -1 -16 -4 -13 -14 10 -10 22 -10 34 -2 44 8 11 8 13 -1 7 -8 -4 -13
-1 -13 9 0 9 -4 14 -9 10 -12 -7 -33 57 -26 77 6 15 -58 151 -112 235 -18 29
-33 60 -33 69 0 9 -15 35 -33 58 -19 23 -40 52 -47 66 -7 14 -16 27 -20 30 -3
3 -28 38 -55 78 -31 47 -81 101 -137 150 -48 41 -86 78 -83 80 2 3 11 -1 20
-8 8 -7 25 -10 38 -6 17 4 30 0 42 -14 17 -19 73 -43 127 -54 19 -4 26 -11 21
-21 -3 -10 -12 -13 -25 -9 -17 5 -18 4 -6 -15 15 -25 28 -27 28 -6 0 8 4 15 9
15 5 0 11 -7 15 -15 8 -22 49 -18 77 6 17 14 32 19 51 15 21 -4 28 -2 28 10 0
9 -5 12 -11 8 -6 -3 -15 0 -20 7 -8 12 -11 12 -18 -1 -6 -8 -13 -11 -17 -8 -3
4 -15 -2 -27 -13 -11 -10 -24 -19 -28 -19 -14 0 -61 56 -75 88 -12 29 -16 32
-29 22 -12 -10 -15 -10 -15 3 0 19 -58 31 -76 16 -11 -9 -15 -7 -20 6 -5 11
-14 15 -28 11 -15 -4 -28 1 -39 14 -17 21 -47 27 -47 11 0 -17 -39 -7 -43 11
-3 10 -13 18 -22 18 -10 0 -43 15 -74 33 -31 18 -67 39 -81 45 -30 15 -56 62
-34 62 8 0 14 5 14 10 0 6 -9 10 -20 10 -13 0 -20 6 -19 18 0 10 3 12 6 5 7
-19 50 -16 65 5 9 11 27 17 55 17 36 0 42 -3 40 -20 -1 -12 3 -19 12 -17 7 1
20 -3 29 -10 10 -9 13 -9 9 -1 -11 17 11 26 28 11 33 -30 45 -38 45 -32 0 3 8
-4 18 -15 l17 -22 0 25 c0 15 -6 26 -12 26 -7 0 -13 5 -13 12 0 6 -3 8 -7 5
-7 -8 -33 11 -33 24 0 5 7 9 16 9 8 0 12 -4 9 -10 -3 -5 1 -10 10 -10 9 0 26
-7 39 -16 15 -9 27 -11 30 -5 4 5 -3 12 -14 16 -11 3 -20 15 -20 26 0 10 -4
19 -10 19 -5 0 -10 5 -10 10 0 6 9 10 19 10 11 0 22 4 26 10 7 11 -14 50 -37
68 -10 7 -18 20 -18 28 0 8 -4 14 -10 14 -5 0 -10 9 -10 19 0 11 -4 22 -8 25
-5 3 -6 27 -2 53 5 27 4 49 -1 51 -5 2 -9 10 -9 18 0 9 -4 13 -9 10 -5 -3 -14
1 -21 9 -7 8 -19 15 -27 15 -19 0 -29 30 -12 40 20 13 7 20 -48 30 -26 4 -38
8 -25 9 19 1 22 5 17 22 -6 19 -4 20 32 13 l38 -7 -35 35 c-19 20 -38 34 -42
32 -11 -7 -21 17 -12 26 13 12 54 -7 54 -25 0 -9 5 -13 10 -10 6 4 26 -10 45
-29 40 -41 64 -39 57 4 -2 17 -8 30 -12 30 -5 0 -11 9 -15 19 -3 11 -15 23
-26 26 -11 4 -18 9 -15 12 9 9 -14 43 -29 43 -8 0 -15 5 -15 10 0 6 9 10 20
10 11 0 20 5 20 10 0 12 -10 13 -30 1 -21 -14 -33 -2 -15 16 14 13 19 13 49
-1 19 -9 41 -16 50 -16 9 0 25 -9 36 -20 25 -25 26 -25 33 1 7 26 -2 51 -15
43 -6 -4 -14 -1 -18 6 -5 7 -17 14 -28 15 -11 0 -35 13 -54 26 -45 35 -223
139 -237 139 -6 0 -11 4 -11 10 0 10 -70 43 -135 65 -103 33 -219 66 -267 76
-29 6 -69 15 -88 19 -148 34 -261 42 -296 21 -18 -10 -18 -11 4 -17 31 -9 29
-33 -3 -26 -14 2 -25 0 -25 -7 0 -7 -8 -7 -27 1 -16 6 -40 10 -55 9 -16 -1
-28 3 -28 9 0 5 -9 10 -19 10 -11 0 -23 5 -26 10 -4 6 5 10 19 10 14 0 26 5
26 10 0 7 -34 10 -90 8 -65 -2 -89 -6 -86 -15 3 -6 -6 -19 -20 -28 -19 -12
-23 -20 -15 -29 11 -13 5 -26 -10 -26 -5 0 -6 7 -3 15 4 8 2 15 -4 15 -5 0
-13 7 -16 16 -3 8 -2 13 3 10 4 -3 19 6 32 20 l23 25 -74 -5 c-74 -4 -104 0
-95 14 2 4 -15 4 -38 -1 -67 -13 -90 -11 -83 6 5 13 0 15 -32 9 -20 -4 -38
-11 -40 -15 -2 -5 -11 -5 -21 0 -11 6 -32 6 -57 0 -21 -6 -54 -10 -72 -9 -20
0 -31 -3 -28 -9 4 -5 -2 -14 -11 -20 -15 -9 -16 -12 -4 -20 12 -8 9 -11 -12
-16 -15 -4 -27 -12 -27 -17 0 -6 -6 -8 -14 -5 -8 3 -59 -9 -113 -28 l-98 -34
-3 -36 c-2 -27 -8 -36 -20 -34 -30 3 -43 -1 -37 -10 7 -12 -7 -21 -38 -23 -15
-1 -23 -7 -20 -15 5 -12 -40 -30 -64 -25 -8 2 -10 -3 -7 -13 5 -11 0 -15 -19
-15 -13 0 -30 -7 -37 -15 -7 -8 -8 -15 -2 -15 16 0 21 -38 6 -51 -8 -6 -14
-22 -14 -35 0 -17 -7 -25 -24 -30 -16 -4 -23 -11 -19 -20 9 -23 -27 -43 -72
-39 -39 4 -39 3 -14 -10 14 -7 30 -25 37 -39 11 -24 15 -26 53 -20 29 5 40 4
36 -4 -4 -5 -16 -8 -27 -5 -12 3 -22 -1 -26 -11 -7 -18 -34 -22 -34 -5 0 5 -8
9 -18 7 -9 -1 -32 7 -49 20 l-32 22 -25 -25 c-14 -14 -38 -26 -53 -26 -26 -2
-25 -2 7 -9 19 -4 27 -8 18 -9 -23 -1 -23 -21 -1 -21 14 0 14 -3 5 -12 -10
-10 -15 -10 -21 1 -11 18 -45 10 -49 -12 -2 -11 3 -17 15 -18 10 -1 5 -5 -12
-10 -23 -6 -18 -7 23 -4 34 3 50 1 46 -6 -3 -6 2 -16 12 -23 12 -9 14 -15 5
-20 -6 -4 -18 -2 -26 4 -11 9 -15 9 -15 1 0 -14 31 -45 53 -54 16 -6 16 -8 0
-25 -13 -13 -19 -14 -21 -5 -2 7 -10 13 -17 13 -8 0 -12 -6 -9 -14 3 -8 -3
-19 -15 -25 -24 -13 -34 -14 -27 -2 3 5 -1 14 -10 21 -12 11 -17 11 -27 0 -9
-10 -9 -13 0 -17 9 -3 9 -12 2 -29 -12 -33 -12 -34 6 -34 8 0 15 -4 15 -9 0
-5 -7 -11 -15 -15 -9 -3 -15 0 -15 8 0 22 -52 39 -83 27 -31 -12 -36 -31 -7
-31 14 0 18 -5 13 -17 -7 -19 -22 -33 -37 -33 -4 0 -6 7 -2 15 3 9 0 15 -8 15
-8 0 -16 -6 -19 -14 -4 -9 -14 -12 -28 -9 -15 4 -20 2 -15 -5 8 -13 -37 -28
-53 -17 -6 3 -11 0 -11 -7 0 -9 -3 -9 -10 2 -10 14 -7 -11 7 -62 10 -38 31 -8
24 35 0 4 4 7 9 7 6 0 10 -18 10 -39 0 -22 5 -43 10 -46 6 -3 10 -1 10 4 0 6
7 11 15 11 17 0 20 -16 5 -25 -5 -3 -10 -10 -10 -16 0 -5 9 -4 19 3 15 9 23 9
37 -3 16 -13 17 -12 11 5 -6 15 -4 17 12 13 12 -3 26 2 33 11 11 13 10 15 -5
9 -24 -9 -18 13 8 27 27 16 60 46 61 57 1 5 2 12 3 15 0 4 7 1 15 -5 11 -9 19
-9 35 1 11 7 24 9 28 4 4 -4 0 -12 -10 -17 -9 -6 -17 -18 -17 -27 0 -13 5 -12
20 8 11 14 20 31 20 38 0 6 5 12 12 12 6 0 20 7 30 17 14 13 18 13 18 2 0 -11
2 -11 11 1 9 12 10 12 5 -3 -3 -10 -6 -23 -6 -28 0 -5 -8 -9 -17 -10 -12 0 -8
-5 11 -13 19 -9 25 -16 17 -20 -7 -4 -18 -3 -24 3 -10 7 -20 4 -38 -13 -13
-12 -31 -20 -38 -18 -8 3 -20 -3 -27 -13 -9 -11 -21 -16 -35 -12 -11 3 -18 3
-15 0 7 -7 -58 -53 -75 -53 -8 0 -9 -3 0 -13 6 -8 8 -17 4 -20 -3 -4 2 -10 12
-13 9 -4 20 -2 24 3 3 6 25 20 48 32 23 11 44 25 48 31 6 10 45 14 45 5 0 -10
-40 -45 -51 -45 -6 0 -9 -6 -6 -14 4 -10 -1 -12 -16 -9 -18 4 -19 3 -7 -6 8
-6 11 -11 5 -12 -5 -1 -14 -2 -20 -3 -13 -1 -85 -49 -85 -56 0 -14 48 -3 84
18 32 19 37 20 32 6 -6 -16 -5 -16 16 0 36 25 79 48 84 43 2 -2 -26 -23 -63
-47 -110 -70 -331 -238 -405 -308 -70 -66 -84 -72 -47 -21 18 26 19 28 2 23
-11 -4 -6 4 12 19 44 37 142 132 128 123 -7 -4 -13 -2 -13 3 0 6 -9 11 -19 11
-14 0 -18 -5 -14 -20 4 -14 0 -20 -10 -20 -8 0 -18 -6 -20 -12 -3 -7 -6 -3 -6
9 -1 12 -5 24 -10 27 -4 3 -6 -5 -4 -19 4 -20 2 -23 -15 -19 -15 4 -21 -1 -26
-21 -11 -45 -14 -24 -5 35 5 30 11 72 13 93 2 21 7 57 10 80 11 81 -12 3 -38
-129 -14 -71 -25 -158 -25 -194 1 -59 -2 -72 -40 -136 -22 -39 -41 -78 -41
-86 0 -9 -11 -59 -25 -111 -32 -123 -168 -738 -205 -927 -75 -380 -87 -575
-65 -1065 9 -198 20 -434 25 -525 6 -91 19 -325 30 -520 28 -501 29 -520 46
-520 7 0 17 -12 20 -26 9 -35 -1 -151 -15 -167 -6 -8 -15 -46 -21 -86 -12 -84
-27 -124 -63 -167 -15 -18 -27 -39 -27 -49 0 -34 -20 -55 -53 -55 -24 0 -28 3
-17 10 13 9 13 11 0 19 -18 12 -30 5 -30 -17 0 -10 -13 -22 -30 -29 -24 -9
-30 -9 -30 2 0 7 5 15 11 17 19 6 29 279 11 285 -4 2 -6 29 -6 60 1 32 -3 64
-8 71 -7 8 -7 16 1 25 8 10 5 19 -12 38 -12 13 -22 33 -23 44 -1 11 -5 28 -9
38 -4 10 -4 17 1 16 19 -3 34 2 34 11 0 18 -44 79 -60 84 -8 2 -5 4 8 5 12 0
22 6 22 11 0 6 9 10 20 10 11 0 20 4 20 8 0 14 -42 11 -73 -4 -28 -15 -31 -15
-50 5 -17 16 -19 23 -9 33 23 23 14 41 -17 36 -17 -2 -29 0 -28 5 1 5 -15 15
-35 23 -40 14 -46 10 -25 -15 18 -21 97 -160 97 -171 0 -4 8 -11 17 -14 25
-10 4 -24 -42 -29 l-40 -4 41 -1 c40 -2 42 -3 57 -49 25 -76 40 -210 34 -288
-7 -73 7 -115 36 -115 14 0 41 -39 33 -48 -3 -3 -6 0 -6 7 0 7 -4 10 -8 7 -5
-3 -30 12 -56 34 -33 28 -63 42 -104 51 -31 6 -74 19 -95 28 -31 13 -39 22
-43 52 -4 20 -11 36 -18 36 -35 -1 -46 5 -46 23 0 11 -7 20 -15 20 -20 0 -39
37 -22 43 6 3 -3 6 -21 6 -26 1 -33 5 -30 19 3 11 -6 20 -26 28 -23 8 -30 17
-32 39 0 16 -11 35 -24 45 -14 11 -21 23 -17 33 6 17 -15 29 -36 21 -7 -2 -25
9 -40 26 l-27 30 62 0 c35 -1 115 -8 178 -16 144 -20 235 -27 200 -15 -14 4
-113 18 -220 30 -107 13 -201 25 -208 27 -9 2 -3 14 18 34 16 16 30 38 30 48
0 10 5 23 10 28 7 7 7 19 1 35 -10 24 -10 24 -10 -4 -1 -44 -27 -89 -66 -116
-32 -21 -42 -23 -101 -17 -80 8 -118 26 -144 69 -35 57 -24 122 30 179 17 17
28 38 26 45 -3 7 8 23 24 35 16 11 27 25 25 29 -3 4 4 5 16 2 15 -4 17 -8 8
-14 -11 -6 -10 -9 1 -13 42 -13 77 -13 94 0 29 20 56 19 30 -2 -17 -14 -17
-15 -1 -10 10 3 21 6 23 6 2 0 4 8 4 18 1 15 2 15 11 -2 9 -15 13 -16 20 -5 6
10 9 11 9 2 0 -7 5 -13 11 -13 7 0 9 10 6 25 -3 17 0 24 7 22 6 -3 10 -9 9
-15 -2 -6 4 -9 12 -6 11 5 13 2 9 -10 -3 -9 -1 -16 5 -16 17 0 12 21 -19 75
-56 98 -145 284 -184 385 -153 400 -215 797 -188 1203 10 157 52 453 67 477 3
5 10 32 15 62 15 77 88 301 142 433 32 79 131 274 176 348 23 37 42 69 42 72
0 2 11 21 25 42 14 21 31 46 38 57 36 56 179 242 215 280 23 25 42 47 42 50 0
14 36 46 52 46 9 0 20 5 23 10 3 6 20 10 36 10 17 0 65 9 107 19 43 11 88 22
102 24 18 3 14 5 -12 6 -21 0 -38 5 -38 10 0 5 16 30 35 55 19 26 35 48 35 51
0 2 13 23 29 47 43 65 128 248 155 336 40 127 46 153 61 247 18 110 19 179 3
208 -8 15 -11 79 -9 203 2 157 0 183 -14 198 -9 9 -18 16 -21 16 -9 0 -44 -35
-44 -44 0 -5 -16 -24 -36 -42 -25 -22 -35 -37 -31 -49 4 -9 3 -14 -2 -11 -7 5
-21 -14 -21 -28 0 -1 16 -2 36 -3 42 -1 51 -8 36 -26 -9 -10 -8 -18 3 -33 18
-23 19 -64 3 -64 -21 0 -41 17 -34 28 3 6 0 13 -6 16 -10 5 -10 7 -1 12 20 9
15 34 -7 34 -11 0 -20 6 -20 13 0 6 -5 4 -11 -6 -6 -10 -15 -14 -22 -10 -7 4
-6 0 2 -10 7 -9 21 -17 30 -17 15 -1 15 -2 0 -13 -9 -7 -14 -16 -12 -22 1 -5
-23 -18 -55 -28 -66 -21 -89 -33 -80 -43 4 -3 64 -10 133 -13 75 -4 130 -12
137 -19 15 -15 18 -49 6 -87 -5 -16 -10 -58 -13 -92 -2 -34 -8 -70 -14 -80 -5
-10 -13 -35 -16 -55 -3 -21 -9 -38 -13 -38 -11 0 -35 -87 -28 -98 3 -5 -1 -15
-9 -22 -8 -7 -15 -18 -15 -25 0 -7 -9 -24 -20 -38 -11 -14 -18 -32 -14 -40 3
-8 -2 -21 -10 -30 -9 -9 -16 -20 -16 -26 0 -5 -9 -16 -19 -23 -11 -8 -23 -26
-26 -41 -4 -15 -18 -36 -31 -46 -13 -10 -24 -26 -24 -35 0 -9 -4 -16 -10 -16
-5 0 -10 -6 -10 -12 0 -17 -88 -101 -120 -114 -14 -6 -51 -19 -82 -29 -32 -10
-58 -23 -58 -28 0 -6 -3 -7 -7 -4 -3 4 -14 0 -24 -9 -25 -22 -30 -7 -34 94 -4
115 -13 160 -34 166 -9 3 -40 7 -68 10 -52 6 -53 5 -76 -32 -13 -20 -27 -50
-31 -67 -4 -16 -10 -41 -13 -55 -3 -14 -14 -35 -24 -48 -10 -13 -21 -37 -24
-55 -4 -18 -10 -36 -13 -41 -3 -6 -7 -33 -8 -61 -2 -27 -9 -66 -17 -85 -16
-38 -32 -172 -28 -235 1 -32 -4 -46 -28 -72 -16 -17 -27 -34 -24 -37 10 -10
-32 -86 -51 -92 -31 -10 -116 -68 -156 -106 -100 -96 -170 -265 -170 -410 0
-21 -4 -38 -10 -38 -22 0 -34 182 -14 222 8 15 14 38 14 52 0 14 5 28 10 31 6
4 8 11 4 16 -7 12 15 41 27 34 4 -3 6 8 4 25 -2 16 1 30 6 30 6 0 8 4 5 9 -3
5 1 11 9 14 13 6 30 51 38 105 2 13 16 34 31 48 18 17 25 32 21 44 -3 10 -1
27 4 37 6 10 15 37 21 61 6 24 17 45 24 48 8 3 12 14 9 25 -6 21 31 69 52 69
7 0 15 18 19 40 4 26 11 40 21 40 22 0 18 37 -3 42 -23 7 -51 -30 -32 -42 9
-5 9 -9 1 -14 -6 -4 -11 -2 -11 4 0 6 -6 10 -12 9 -26 -3 -37 2 -40 19 -3 15
-6 14 -16 -5 -12 -21 -11 -23 13 -23 40 0 33 -37 -10 -56 -35 -14 -36 -17 -34
-62 3 -61 -9 -112 -26 -112 -8 0 -15 -10 -17 -22 -3 -21 -4 -21 -21 -3 -12 11
-17 27 -14 43 4 21 2 23 -24 20 -18 -3 -29 0 -29 7 0 18 60 128 76 141 7 6 11
14 8 17 -9 8 52 118 61 109 5 -4 5 -2 1 5 -7 13 25 72 61 112 14 14 30 33 38
41 7 8 18 34 25 57 9 29 17 40 27 36 9 -4 14 0 12 8 -3 20 21 79 32 79 5 0 9
8 9 18 0 10 4 22 9 28 16 16 54 143 49 162 -3 12 2 24 14 31 11 7 17 19 14 26
-7 18 33 95 48 92 6 -1 10 6 10 16 -1 11 5 17 18 17 11 0 22 8 25 20 3 11 10
20 15 20 5 0 7 4 4 8 -3 5 5 15 18 22 13 7 29 23 35 36 6 14 18 27 26 30 8 4
12 11 8 17 -3 5 -2 7 3 4 17 -10 34 9 53 59 10 27 23 48 28 47 6 -1 28 17 50
40 22 23 48 47 59 53 10 6 20 20 22 32 3 21 -3 24 -65 37 -63 13 -39 53 92
156 39 30 113 81 165 113 52 32 115 72 139 88 42 28 50 30 151 31 58 0 112 -3
119 -8 10 -5 12 -4 7 3 -4 7 -3 12 3 12 5 0 17 3 25 6 12 5 15 2 9 -12 -5 -13
-3 -16 10 -11 23 9 56 -29 70 -80 6 -25 19 -45 28 -48 27 -9 37 -54 32 -138
-6 -86 0 -92 52 -57 17 12 48 29 71 40 22 10 46 26 53 34 7 8 19 12 27 9 10
-4 17 2 21 15 3 12 11 18 18 15 8 -2 22 1 32 7 17 11 17 11 0 6 -11 -3 -15 -2
-12 4 3 6 16 10 27 10 11 0 26 7 33 16 10 14 15 15 35 4 14 -7 25 -8 29 -2 5
8 27 17 101 39 12 4 11 7 -5 14 -14 6 -6 7 23 3 29 -4 42 -2 42 6 0 8 8 10 21
7 12 -3 28 0 36 9 16 15 38 19 29 5 -4 -5 3 -7 14 -4 11 3 17 10 14 15 -4 6 2
8 14 3 12 -3 36 1 54 9 18 9 56 23 83 31 28 9 63 20 78 25 25 8 27 7 17 -5
-10 -12 -9 -15 4 -15 9 0 16 6 16 13 0 13 52 29 135 43 22 3 47 15 55 25 15
18 57 26 245 50 39 4 160 11 270 15 217 7 388 -6 620 -47 66 -12 136 -23 155
-24 19 -1 46 -7 60 -13 101 -40 144 -41 70 -2 -74 39 -53 37 70 -5 202 -71
579 -268 835 -438 147 -98 172 -117 306 -233 582 -508 920 -1144 1035 -1949
22 -153 25 -558 5 -727 -7 -65 -11 -128 -7 -140 3 -14 22 -31 47 -42 44 -22
149 -128 149 -152 0 -18 66 -83 94 -94 12 -4 38 -10 59 -14 l37 -7 0 2921 0
2920 -1056 0 c-968 0 -1058 -1 -1069 -16 -11 -15 -21 -16 -101 -4 -66 10 -327
14 -1003 17 l-913 3 7 -47 c10 -74 71 -317 105 -423 262 -809 282 -860 366
-950 25 -27 116 -101 202 -166 162 -122 260 -213 242 -224 -5 -3 -49 0 -97 8
-55 9 -177 14 -328 15 -364 2 -610 -29 -955 -123 -186 -50 -216 -57 -192 -42
9 6 10 16 4 33 -5 13 -10 60 -11 104 -1 43 -7 87 -12 97 -6 10 -6 18 -1 18 10
0 9 34 -7 255 -19 242 -42 449 -53 462 -5 7 -7 17 -3 23 3 5 -5 72 -19 147
-29 164 -45 287 -53 403 -5 69 -3 88 10 98 13 11 13 18 -6 61 -19 47 -19 51
-3 100 17 54 15 71 -10 71 -10 0 -14 12 -14 40 l0 40 -565 0 c-311 0 -565 -3
-565 -7 0 -7 39 -342 60 -513 18 -144 28 -254 36 -365 4 -55 11 -105 16 -112
6 -7 12 -37 15 -68 5 -51 4 -55 -16 -55 -25 0 -36 35 -28 85 4 26 1 38 -19 56
-18 17 -23 30 -19 49 5 25 -24 193 -42 239 l-10 25 -7 -27 c-3 -15 -11 -27
-16 -27 -18 0 -29 38 -34 121 -5 88 -24 333 -30 384 -9 72 -19 172 -18 193 l0
22 -734 0 -734 0 0 -4540z m3709 4516 c7 -8 11 -27 9 -43 -2 -22 -8 -28 -28
-28 -29 0 -38 31 -20 64 13 25 23 26 39 7z m711 -66 c0 -13 -1 -13 -10 0 -5 8
-10 22 -10 30 0 13 1 13 10 0 5 -8 10 -22 10 -30z m630 20 c9 -16 8 -20 -5
-20 -8 0 -15 9 -15 20 0 11 2 20 5 20 2 0 9 -9 15 -20z m-638 -67 c-3 -16 -7
-22 -10 -15 -4 13 4 42 11 42 2 0 2 -12 -1 -27z m932 -19 c9 -8 18 -25 20 -37
11 -61 25 -124 31 -144 6 -19 2 -22 -39 -28 -30 -5 -51 -3 -60 4 -19 16 -32
171 -17 200 14 25 43 27 65 5z m-1304 -65 c0 -17 7 -37 36 -106 8 -17 14 -39
14 -48 0 -9 5 -25 11 -37 6 -11 8 -22 5 -25 -9 -9 -75 169 -90 242 -6 28 -5
29 9 11 8 -11 15 -28 15 -37z m1709 -19 c14 0 19 5 15 15 -4 10 0 15 12 15 11
0 30 3 44 7 21 5 23 4 14 -8 -7 -8 -15 -29 -19 -46 -5 -27 -2 -37 20 -57 33
-31 24 -48 -23 -44 -39 3 -52 -13 -32 -37 18 -21 -16 -31 -135 -40 -93 -6
-102 -5 -128 15 -31 25 -35 40 -9 40 26 0 76 56 107 118 33 66 61 80 92 46 12
-13 31 -24 42 -24z m-1318 23 c6 -88 5 -144 -2 -149 -5 -3 -10 4 -10 15 -1 12
-2 24 -3 29 -10 36 -17 103 -11 111 10 17 25 13 26 -6z m-241 -61 c0 -25 -16
-46 -29 -38 -6 4 -11 23 -11 42 0 32 2 34 20 24 11 -6 20 -18 20 -28z m-1 -94
c9 -24 3 -68 -10 -68 -15 0 -31 41 -25 66 8 30 24 31 35 2z m23 -288 c48 -140
56 -180 35 -180 -8 0 -19 6 -25 13 -22 28 -105 265 -106 306 l-2 45 29 -35
c17 -20 45 -81 69 -149z m-3527 63 c28 -31 30 -66 3 -71 -12 -2 -23 10 -37 39
-31 62 -12 80 34 32z m-120 -24 c0 -7 -8 -15 -17 -17 -18 -3 -25 18 -11 32 10
10 28 1 28 -15z m3569 -44 c3 -9 -3 -19 -15 -26 -26 -14 -34 -6 -19 20 13 25
26 27 34 6z m-3312 -27 c-9 -9 -15 -9 -24 0 -10 10 -10 15 2 22 20 12 38 -6
22 -22z m-444 -20 c-6 -18 -28 -21 -28 -4 0 9 7 16 16 16 9 0 14 -5 12 -12z
m3782 -3 c0 -2 7 -30 15 -62 13 -47 15 -89 9 -220 -4 -90 -11 -160 -15 -157
-5 3 -9 17 -9 32 0 15 -6 110 -14 212 -7 102 -11 188 -9 193 4 8 23 10 23 2z
m-3531 -197 c-13 -24 -52 -20 -57 6 -3 11 4 26 14 33 15 11 20 10 35 -3 14
-13 16 -21 8 -36z m3468 16 c-3 -4 -14 -3 -24 0 -15 6 -15 8 -3 16 16 10 39
-4 27 -16z m180 -24 c3 -18 15 -35 30 -43 17 -8 35 -37 57 -92 18 -44 43 -103
56 -132 23 -54 22 -87 -3 -77 -17 6 -131 241 -147 302 -6 24 -14 50 -17 58 -3
8 0 14 6 14 6 0 14 -14 18 -30z m-3488 -94 c23 -28 -17 -68 -45 -45 -17 14
-18 31 -2 47 16 16 33 15 47 -2z m1904 -127 c-17 -17 -37 -1 -22 17 8 10 15
12 23 4 7 -7 7 -13 -1 -21z m-983 -98 c0 -4 -13 -18 -30 -31 -16 -13 -30 -28
-30 -35 0 -21 -39 -50 -51 -38 -19 19 -5 47 28 56 19 6 33 18 37 31 5 20 46
35 46 17z m2577 -687 c-3 -3 -12 -4 -19 -1 -8 3 -5 6 6 6 11 1 17 -2 13 -5z
m-347 -13 c0 -11 -168 -27 -177 -17 -4 3 9 6 28 7 43 0 123 10 128 15 8 7 21
4 21 -5z m517 3 c-3 -3 -12 -4 -19 -1 -8 3 -5 6 6 6 11 1 17 -2 13 -5z m-2006
-45 c11 -5 17 -14 14 -20 -4 -5 2 -9 11 -9 10 0 14 -3 10 -7 -11 -11 -60 -10
-68 2 -11 15 -9 45 3 45 6 0 19 -5 30 -11z m1139 -39 c-8 -5 -22 -9 -30 -9
-10 0 -8 3 5 9 27 12 43 12 25 0z m-804 -91 c4 -7 21 -9 43 -5 l36 6 -40 -23
c-62 -35 -153 -70 -164 -62 -10 6 27 43 79 78 29 20 36 21 46 6z m1438 -14
c-5 -20 1 -32 25 -57 17 -17 31 -35 31 -40 0 -16 -19 -8 -30 13 -6 11 -21 24
-33 28 -23 9 -30 47 -12 68 17 20 26 14 19 -12z m241 5 c-3 -5 -12 -7 -20 -3
-21 7 -19 13 6 13 11 0 18 -4 14 -10z m-1380 -30 c-3 -5 -16 -10 -28 -9 -20 1
-20 2 3 9 14 4 26 8 28 9 2 1 0 -3 -3 -9z m-436 -54 c-2 -2 -20 -11 -39 -20
l-35 -17 24 21 c13 11 30 20 39 20 8 0 13 -2 11 -4z m-469 -25 c0 -15 -29 -46
-36 -38 -4 4 -2 7 4 7 7 0 12 5 12 11 0 5 -4 7 -10 4 -11 -7 -12 -3 -4 19 5
14 34 12 34 -3z m2125 -21 c3 -5 1 -10 -4 -10 -6 0 -11 5 -11 10 0 6 2 10 4
10 3 0 8 -4 11 -10z m1140 -49 c3 -5 1 -12 -5 -16 -5 -3 -10 1 -10 9 0 18 6
21 15 7z m-2123 -7 c8 -7 -35 -51 -45 -46 -5 2 -11 -5 -14 -17 -5 -19 -12 -23
-65 -37 -19 -4 -20 -3 -8 6 11 9 12 13 3 17 -22 8 -14 32 12 39 14 3 25 10 25
14 0 5 9 6 20 3 12 -3 22 1 26 11 6 15 35 22 46 10z m41 -24 c-5 -19 -23 -29
-23 -12 0 7 20 32 26 32 1 0 0 -9 -3 -20z m1983 -7 c9 -12 13 -14 14 -5 0 7 5
10 11 7 6 -5 3 -13 -10 -22 -25 -17 -41 -10 -41 18 0 24 9 24 26 2z m81 -29
c4 -10 13 -14 28 -10 15 4 28 -1 40 -14 16 -17 16 -20 2 -20 -9 0 -19 5 -22
10 -12 20 -26 10 -15 -10 8 -15 8 -20 -1 -20 -6 0 -13 9 -16 20 -4 15 -14 20
-37 20 -42 0 -51 10 -23 26 30 17 37 16 44 -2z m-2117 -12 c0 -14 -11 -21 -26
-15 -8 3 -11 9 -8 14 7 11 34 12 34 1z m-60 -42 c0 -5 -2 -10 -4 -10 -3 0 -8
5 -11 10 -3 6 -1 10 4 10 6 0 11 -4 11 -10z m70 -4 c0 -16 -18 -31 -27 -22 -8
8 5 36 17 36 5 0 10 -6 10 -14z m2105 -16 c3 -6 -1 -7 -9 -4 -18 7 -21 14 -7
14 6 0 13 -4 16 -10z m-4165 -10 c0 -5 -5 -10 -11 -10 -5 0 -7 5 -4 10 3 6 8
10 11 10 2 0 4 -4 4 -10z m2020 -40 c0 -33 -15 -38 -46 -15 -10 8 -28 15 -39
15 -18 1 -17 2 5 15 14 8 37 14 53 15 23 0 27 -4 27 -30z m-117 -14 c32 7 37
-10 8 -26 -27 -14 -51 -2 -51 24 0 15 3 17 9 8 5 -9 17 -11 34 -6z m83 -53
c-10 -10 -19 5 -10 18 6 11 8 11 12 0 2 -7 1 -15 -2 -18z m2369 -32 c3 -5 1
-12 -5 -16 -5 -3 -10 1 -10 9 0 18 6 21 15 7z m-2385 -15 c0 -11 -19 -15 -25
-6 -3 5 1 10 9 10 9 0 16 -2 16 -4z m2230 -16 c0 -4 -6 -10 -13 -13 -7 -3 -13
3 -13 13 0 10 6 16 13 13 7 -3 13 -9 13 -13z m-2255 -21 c-4 -5 -10 -7 -15 -4
-5 3 -11 1 -15 -5 -3 -5 1 -10 9 -10 14 0 14 -3 4 -20 -8 -12 -23 -20 -38 -19
-17 1 -19 3 -7 6 9 2 17 8 17 13 0 5 -7 7 -15 4 -9 -4 -15 0 -15 10 0 9 -8 16
-21 16 -11 0 -18 3 -16 8 3 4 30 8 61 9 34 1 54 -2 51 -8z m1060 -19 c-3 -5
-12 -10 -18 -10 -7 0 -6 4 3 10 19 12 23 12 15 0z m-3302 -77 c3 -26 12 -52
21 -58 38 -29 -22 -205 -70 -205 -42 0 -58 40 -49 118 5 37 10 92 11 122 1 30
2 58 3 63 0 4 18 7 40 7 38 0 38 0 44 -47z m94 11 c2 -16 8 -30 14 -32 16 -6
10 -36 -15 -66 l-23 -30 -2 83 c-2 62 1 82 10 79 7 -2 14 -17 16 -34z m4393
21 c0 -8 -9 -15 -20 -15 -25 0 -26 17 -2 23 9 3 18 5 20 6 1 0 2 -6 2 -14z
m-2460 -55 c0 -5 -2 -10 -4 -10 -3 0 -8 5 -11 10 -3 6 -1 10 4 10 6 0 11 -4
11 -10z m2500 -29 c0 -5 8 -12 18 -14 14 -4 14 -5 1 -6 -9 0 -22 6 -29 14 -9
10 -9 15 -1 15 6 0 11 -4 11 -9z m-2535 -11 c-3 -5 -12 -10 -18 -10 -7 0 -6 4
3 10 19 12 23 12 15 0z m4465 -19 c0 -28 -11 -52 -21 -45 -10 6 -12 48 -2 57
12 13 23 7 23 -12z m-4433 -17 c-3 -3 -12 -4 -19 -1 -8 3 -5 6 6 6 11 1 17 -2
13 -5z m-1769 -16 c9 -13 2 -86 -13 -136 -6 -17 -4 -21 8 -17 12 5 13 0 7 -32
-18 -82 -86 -223 -109 -223 -19 0 -51 29 -51 47 0 7 -6 13 -14 13 -9 0 -12 8
-8 25 5 28 22 24 22 -6 0 -10 6 -19 14 -19 21 0 28 16 14 32 -18 19 -49 78
-58 110 -7 22 -6 26 8 20 23 -8 51 -43 52 -63 0 -8 6 -24 14 -34 12 -17 14
-16 18 14 3 20 0 38 -9 46 -7 8 -13 20 -13 29 0 8 -9 22 -21 30 -21 14 -21 15
-3 45 10 16 21 28 26 25 4 -3 8 0 8 6 0 22 36 60 47 49 7 -7 12 -5 17 6 3 9 2
13 -4 10 -14 -9 -12 9 2 23 15 15 33 15 46 0z m-157 -39 c-9 -22 -10 -22 -10
-3 -1 11 2 24 6 27 12 12 14 0 4 -24z m6345 -11 c-3 -13 -6 -27 -6 -31 0 -5
-4 -5 -10 -2 -17 10 -12 55 6 55 12 0 15 -6 10 -22z m-6356 -24 c0 -3 -5 -10
-10 -17 -21 -25 -60 -88 -60 -97 0 -6 -3 -10 -7 -10 -5 0 -8 15 -9 33 -1 17 1
26 3 20 9 -25 21 -13 19 18 0 19 4 33 12 35 7 1 8 0 2 -3 -13 -6 -13 -33 -1
-33 11 0 24 36 17 48 -2 4 4 9 15 9 10 1 19 0 19 -3z m4155 -33 c-3 -6 -11
-11 -17 -11 -6 0 -6 6 2 15 14 17 26 13 15 -4z m-2425 -1 c0 -5 -2 -10 -4 -10
-3 0 -8 5 -11 10 -3 6 -1 10 4 10 6 0 11 -4 11 -10z m2370 -2 c0 -4 -9 -8 -20
-8 -11 0 -20 4 -20 8 0 4 9 8 20 8 11 0 20 -4 20 -8z m-2255 -38 c-9 -14 -25
5 -25 30 0 12 3 12 16 -2 9 -9 13 -21 9 -28z m2295 4 c0 -2 -9 -4 -21 -4 -11
0 -18 4 -14 10 5 8 35 3 35 -6z m2196 -49 c-9 -24 -39 -10 -42 19 -2 20 3 29
19 35 19 7 23 5 25 -16 2 -14 1 -31 -2 -38z m-4586 45 c0 -5 -7 -10 -16 -10
-8 0 -12 5 -9 10 3 6 10 10 16 10 5 0 9 -4 9 -10z m-56 -42 c-2 -3 2 -8 8 -11
7 -3 -2 -5 -19 -4 -19 0 -33 5 -33 12 0 7 11 12 24 11 13 0 22 -4 20 -8z
m-100 -13 c-4 -8 -11 -12 -16 -9 -6 4 -5 10 3 15 19 12 19 11 13 -6z m56 -31
c0 -2 -9 -13 -20 -24 -18 -18 -22 -19 -35 -6 -19 19 -19 27 0 20 8 -4 17 1 21
9 5 13 34 14 34 1z m4690 -34 c0 -39 -13 -59 -25 -40 -4 6 -2 17 5 25 7 9 8
15 0 20 -5 3 -10 1 -10 -6 0 -7 -2 -10 -5 -7 -9 9 14 59 25 53 5 -3 10 -24 10
-45z m-6390 -7 c-11 -17 -11 -17 -6 0 3 10 6 24 7 30 0 9 2 9 5 0 3 -7 0 -20
-6 -30z m27 -5 c-3 -7 -5 -2 -5 12 0 14 2 19 5 13 2 -7 2 -19 0 -25z m6041
-30 c-5 -17 -113 -71 -130 -66 -22 8 49 66 85 71 18 2 36 5 40 5 5 1 7 -4 5
-10z m-4088 -42 c0 -2 -7 -7 -16 -10 -8 -3 -12 -2 -9 4 6 10 25 14 25 6z
m-1943 -58 c-3 -8 -6 -5 -6 6 -1 11 2 17 5 13 3 -3 4 -12 1 -19z m1773 8 c0
-11 -19 -15 -25 -6 -3 5 1 10 9 10 9 0 16 -2 16 -4z m4424 -2 c9 -3 16 -12 16
-20 0 -8 7 -14 15 -14 8 0 15 -2 15 -4 0 -2 3 -12 6 -20 5 -14 2 -15 -22 -6
-31 12 -64 43 -64 60 0 11 11 13 34 4z m145 -66 c1 -5 -11 -8 -26 -8 -25 1
-26 2 -10 14 9 7 17 19 18 27 0 13 17 -17 18 -33z m-6334 2 c3 -6 16 -8 28 -5
30 7 52 -9 43 -31 -4 -11 -10 -14 -14 -9 -4 6 -23 11 -42 13 -39 4 -66 21 -34
23 15 1 14 3 -6 9 -23 7 -23 8 -3 9 12 1 25 -4 28 -9z m35 -110 c0 -5 -6 -10
-13 -10 -8 0 -19 -10 -25 -22 -8 -18 -11 -19 -11 -6 -1 9 9 24 21 32 26 19 28
19 28 6z m6265 0 c3 -5 1 -29 -5 -52 -9 -33 -14 -39 -21 -26 -7 13 -7 59 0 86
2 6 21 1 26 -8z m-5798 -23 c-1 -5 9 -13 23 -17 l25 -6 -23 -13 c-47 -25 -95
12 -61 46 13 13 39 6 36 -10z m2355 -109 c-7 -7 -12 -8 -12 -2 0 14 12 26 19
19 2 -3 -1 -11 -7 -17z m-2456 2 c15 0 24 -6 24 -15 0 -8 -5 -15 -12 -15 -6 0
-9 -2 -6 -5 11 -11 37 7 31 22 -5 13 2 14 48 8 30 -4 55 -11 57 -16 2 -4 10
-5 18 -2 22 8 17 -4 -15 -38 -16 -16 -39 -45 -52 -63 -12 -18 -35 -41 -50 -52
-15 -10 -25 -22 -23 -26 3 -5 -2 -11 -10 -14 -9 -3 -16 -11 -16 -18 0 -18 -37
-38 -43 -23 -3 8 -9 6 -19 -7 -13 -17 -15 -17 -21 -3 -3 9 -9 39 -13 67 -5 41
-4 51 10 56 12 4 23 -1 33 -16 l16 -22 22 28 c23 29 24 47 2 38 -9 -3 -12 10
-12 46 0 43 2 50 20 51 13 0 9 4 -12 10 -18 5 -33 12 -33 15 0 4 7 3 16 0 9
-3 27 -6 40 -6z m2394 -35 c0 -5 -5 -3 -10 5 -5 8 -10 20 -10 25 0 6 5 3 10
-5 5 -8 10 -19 10 -25z m-3010 15 c0 -5 -7 -7 -15 -4 -8 4 -15 8 -15 10 0 2 7
4 15 4 8 0 15 -4 15 -10z m2935 0 c-10 -17 -45 -32 -45 -20 0 6 10 15 23 20
29 12 29 12 22 0z m-86 -41 c-19 -10 -42 -18 -51 -19 -10 0 -18 -5 -18 -12 0
-6 -3 -8 -6 -5 -4 3 -16 1 -28 -5 -11 -7 -23 -13 -26 -13 -3 -1 -18 -7 -33
-13 -16 -7 -32 -12 -36 -12 -5 0 -14 -7 -21 -15 -7 -8 -16 -13 -20 -10 -4 3
-13 -2 -20 -10 -7 -8 -19 -15 -27 -15 -7 0 -44 -20 -82 -45 -38 -25 -71 -45
-74 -45 -14 0 -159 -104 -196 -141 -9 -9 -43 -35 -76 -57 -33 -22 -67 -50 -75
-61 -8 -12 -20 -21 -27 -21 -6 0 -13 -10 -15 -22 -2 -19 -10 -23 -38 -25 -19
-1 -28 1 -19 3 11 3 15 12 12 24 -3 12 2 22 15 29 12 6 24 20 27 32 4 13 12
18 22 15 9 -4 13 -1 11 6 -4 12 38 58 53 58 5 0 9 7 9 15 0 9 7 18 16 22 9 3
33 22 53 42 34 34 185 141 197 141 4 0 26 14 51 30 24 17 50 30 56 30 7 0 21
6 32 14 11 7 49 24 85 36 36 13 71 28 77 33 7 5 20 7 28 3 9 -3 13 -2 10 4 -3
6 2 11 12 12 33 2 38 3 51 11 7 5 12 3 12 -4 0 -8 7 -7 22 3 12 8 33 12 46 10
25 -5 24 -5 -9 -23z m801 -63 c36 -4 90 -14 120 -21 30 -8 69 -17 85 -21 17
-4 32 -8 35 -9 27 -6 148 -50 169 -61 14 -8 36 -14 47 -14 12 0 24 -7 27 -14
3 -8 22 -18 42 -22 30 -5 67 -28 122 -74 7 -5 15 -10 18 -10 3 0 23 -17 43
-38 21 -21 45 -41 55 -45 9 -3 17 -11 17 -17 0 -6 4 -9 9 -6 5 3 11 -3 14 -14
3 -11 12 -20 19 -20 8 0 20 -11 26 -24 11 -24 32 -50 105 -127 21 -22 35 -44
32 -48 -3 -5 2 -12 11 -15 9 -4 14 -9 10 -13 -3 -3 3 -12 14 -20 11 -8 20 -22
20 -31 0 -10 9 -23 20 -30 11 -7 20 -21 20 -31 0 -11 5 -23 11 -26 6 -4 8 -13
5 -21 -6 -16 40 -124 53 -124 5 0 16 -26 25 -57 10 -32 20 -65 23 -73 3 -8 8
-24 10 -35 2 -11 10 -47 19 -80 14 -53 31 -325 21 -325 -2 0 -12 33 -22 73 -9
39 -25 90 -35 112 -10 22 -21 58 -24 80 -4 22 -11 44 -16 49 -6 6 -10 18 -10
29 0 11 -4 15 -12 11 -8 -5 -9 -2 -5 9 8 21 -2 49 -14 41 -5 -3 -6 2 -3 10 4
11 0 16 -12 17 -11 0 -13 3 -7 6 10 3 9 11 -3 34 -8 16 -19 27 -23 24 -5 -3
-12 2 -15 11 -3 8 -2 12 4 9 17 -11 12 3 -49 124 -79 157 -92 176 -228 321
-215 229 -250 258 -399 334 -99 50 -166 72 -363 121 -95 24 -178 48 -182 52
-11 11 77 10 171 -1z m-3603 -265 c-3 -25 -3 -39 -1 -29 3 9 11 19 19 22 9 3
12 0 8 -10 -3 -7 0 -14 6 -14 6 0 11 -4 11 -10 0 -5 -11 -10 -24 -10 -25 0
-49 21 -44 38 2 5 -1 12 -7 14 -5 1 -11 -9 -13 -24 -2 -16 -9 -28 -16 -28 -9
0 -6 16 12 54 33 68 56 66 49 -3z m-189 15 c7 -4 12 -12 12 -17 0 -6 -10 -3
-22 5 -27 19 -89 21 -106 4 -9 -9 -12 -9 -12 0 0 20 30 29 74 22 23 -3 47 -10
54 -14z m-159 -13 c-6 -16 -10 -29 -10 -30 8 -28 -26 -37 -40 -11 -9 16 -8 19
2 13 9 -6 10 -3 5 11 -4 10 -4 15 0 11 4 -4 13 2 21 13 21 29 34 25 22 -7z
m4354 1 c76 -39 185 -114 253 -176 32 -29 69 -62 81 -73 25 -23 163 -197 163
-206 0 -3 -7 -6 -15 -6 -8 0 -12 3 -10 7 7 11 -75 91 -87 84 -6 -4 -8 -3 -5 4
4 5 -14 28 -40 50 -50 40 -178 132 -187 132 -2 0 -38 16 -79 35 -41 19 -80 35
-88 35 -7 0 -9 3 -5 7 3 4 -19 17 -51 30 -66 27 -85 29 -57 7 17 -14 17 -15 1
-10 -10 3 -22 6 -27 6 -4 0 -10 8 -12 18 -4 12 -22 23 -54 31 -27 7 -65 18
-84 24 -33 11 -34 12 -9 15 15 2 82 -16 150 -39 130 -44 207 -58 172 -31 -17
14 -17 14 5 9 12 -3 22 -4 22 -2 0 2 -22 17 -50 35 -47 30 -58 40 -45 40 3 0
29 -12 58 -26z m-301 -17 c31 -7 60 -16 64 -20 10 -10 -8 -8 -116 13 -76 14
-86 18 -50 18 25 1 71 -5 102 -11z m118 -37 c18 -12 2 -12 -25 0 -13 6 -15 9
-5 9 8 0 22 -4 30 -9z m-3759 -23 c-13 -13 -26 -3 -16 12 3 6 11 8 17 5 6 -4
6 -10 -1 -17z m-475 -19 c-18 -26 -22 -17 -5 14 6 11 13 17 16 15 3 -3 -2 -16
-11 -29z m235 19 c-1 -4 -1 -16 -1 -27 0 -11 -6 -20 -14 -20 -8 0 -17 -9 -21
-19 -6 -19 -33 -36 -43 -26 -3 3 0 5 6 5 7 0 12 4 12 10 0 6 -10 5 -25 -2 -15
-7 -24 -17 -21 -25 3 -7 -1 -13 -9 -13 -8 0 -15 -4 -15 -9 0 -11 -46 -20 -70
-14 -14 4 -18 14 -16 41 2 43 12 62 46 85 27 19 85 23 95 7 3 -5 11 -10 16
-10 6 0 8 4 4 9 -3 5 5 11 17 14 29 5 40 4 39 -6z m200 -9 c18 -23 25 -48 13
-48 -4 0 -13 8 -20 18 -13 16 -13 16 -14 0 0 -10 -7 -18 -15 -18 -8 0 -15 -6
-15 -14 0 -8 7 -16 15 -20 8 -3 15 -15 15 -26 0 -17 -4 -20 -22 -14 -26 8 -48
28 -48 44 0 8 -10 11 -24 8 -22 -5 -23 -3 -13 19 6 13 16 22 24 19 9 -4 13 4
13 24 0 28 3 30 36 30 25 0 41 -7 55 -22z m-112 -119 c-18 -11 -69 -11 -69 0
0 13 74 30 79 18 2 -5 -3 -13 -10 -18z m118 -1 c-3 -7 -5 -2 -5 12 0 14 2 19
5 13 2 -7 2 -19 0 -25z m-112 -18 c-3 -5 -14 -10 -23 -10 -15 0 -15 2 -2 10
20 13 33 13 25 0z m2015 -20 c0 -5 -9 -10 -21 -10 -15 0 -19 -5 -15 -15 6 -17
4 -18 -18 -9 -12 5 -13 8 -3 18 22 23 57 32 57 16z m-1625 -23 c-8 -13 -13
-26 -10 -29 7 -7 -15 -67 -58 -158 -20 -41 -45 -104 -57 -140 -12 -36 -26 -69
-31 -74 -5 -6 -9 -18 -9 -28 0 -10 -4 -26 -9 -36 -5 -9 -15 -43 -22 -76 -15
-67 -37 -98 -51 -72 -5 8 -13 65 -19 126 -8 92 -8 120 6 173 28 109 128 248
224 309 54 34 55 34 36 5z m-350 -25 c3 -8 2 -18 -1 -21 -4 -3 -9 0 -11 7 -3
6 -16 12 -29 12 -21 0 -24 -4 -24 -40 0 -22 -4 -40 -9 -40 -13 0 -18 89 -6 94
24 9 74 2 80 -12z m1925 -7 c0 -7 -10 -15 -21 -18 -15 -4 -20 -12 -17 -24 5
-19 -18 -50 -29 -39 -3 3 -12 1 -20 -5 -14 -13 -16 -9 -7 15 3 9 13 16 21 16
10 0 12 6 8 19 -4 13 1 27 12 39 19 20 53 18 53 -3z m-2043 -27 c-3 -7 -5 -2
-5 12 0 14 2 19 5 13 2 -7 2 -19 0 -25z m123 -18 c0 -5 -9 -10 -21 -10 -11 0
-17 5 -14 10 3 6 13 10 21 10 8 0 14 -4 14 -10z m1825 -80 c-3 -5 -10 -10 -16
-10 -5 0 -9 5 -9 10 0 6 7 10 16 10 8 0 12 -4 9 -10z m1268 -49 c26 -22 36
-43 53 -109 17 -65 12 -96 -21 -134 -30 -35 -38 -35 -55 -2 -12 22 -12 27 0
34 8 5 22 7 31 5 23 -8 44 41 27 64 -30 40 -80 55 -104 31 -15 -15 -44 -1 -44
19 0 10 -11 28 -25 41 -33 31 -32 45 5 60 22 9 37 9 61 1 28 -10 30 -9 18 6
-12 14 -11 15 11 8 14 -4 33 -15 43 -24z m1515 -106 c-3 -3 -9 2 -12 12 -6 14
-5 15 5 6 7 -7 10 -15 7 -18z m-4899 -48 c6 -8 8 -17 4 -21 -4 -3 -8 -17 -10
-29 -2 -12 -8 -34 -14 -49 -6 -14 -8 -37 -4 -50 5 -18 4 -20 -4 -8 -9 11 -10
4 -5 -27 5 -36 4 -43 -10 -43 -19 0 -22 -16 -3 -23 9 -3 7 -12 -7 -37 -17 -29
-19 -58 -20 -310 -1 -182 -4 -276 -11 -273 -5 3 -4 0 3 -8 6 -7 12 -28 12 -47
0 -23 -4 -32 -12 -29 -7 2 -12 10 -11 16 2 6 -2 11 -7 11 -6 0 -10 -6 -10 -12
0 -9 -2 -10 -8 -2 -4 6 -19 10 -35 8 -17 -2 -25 1 -21 8 4 7 -2 8 -17 3 -13
-4 -25 -11 -27 -15 -1 -4 -15 -5 -30 -2 l-27 6 24 6 c36 8 39 29 4 27 -26 -2
-29 1 -39 53 -8 43 -7 58 3 68 7 8 11 17 8 22 -3 5 -1 11 5 15 16 10 12 35 -7
35 -15 0 -15 2 1 19 10 11 24 17 32 14 16 -6 19 -33 4 -33 -5 0 -10 -18 -10
-41 0 -37 2 -40 23 -33 48 14 54 22 25 33 -16 6 -28 15 -28 21 0 6 5 8 12 4 8
-5 9 -2 4 11 -5 14 -4 15 6 7 11 -8 13 -3 10 29 -3 25 2 48 12 64 20 30 36 32
36 5 0 -11 5 -20 10 -20 13 0 13 27 0 35 -13 8 -13 82 0 90 6 3 10 0 10 -7 0
-9 3 -9 10 2 14 22 12 40 -5 40 -11 0 -15 10 -14 38 1 20 3 29 6 20 2 -10 8
-18 13 -18 5 0 8 33 6 73 -2 39 1 91 6 114 15 61 2 128 -29 157 -14 13 -23 30
-20 37 4 10 6 9 6 -3 1 -10 9 -18 18 -18 13 0 14 3 5 12 -9 9 -5 16 18 30 17
10 39 18 50 18 10 0 22 5 25 10 8 14 20 13 34 -3z m-228 -71 c5 -6 9 -21 9
-34 0 -21 -2 -22 -15 -12 -13 11 -14 5 -9 -47 6 -55 5 -60 -15 -66 -11 -3 -24
-1 -27 4 -3 5 0 9 5 9 6 0 11 8 11 18 0 15 2 15 11 2 7 -11 8 -4 3 25 -3 22
-10 44 -15 50 -12 12 -12 28 0 21 11 -7 25 49 16 64 -3 5 -3 16 2 23 5 8 9 2
11 -18 2 -16 8 -34 13 -39z m6 17 c-3 -10 -5 -2 -5 17 0 19 2 27 5 18 2 -10 2
-26 0 -35z m4023 1 c0 -9 -37 15 -51 33 -10 12 -5 11 19 -6 17 -12 32 -24 32
-27z m-3743 4 c-3 -7 -5 -2 -5 12 0 14 2 19 5 13 2 -7 2 -19 0 -25z m-237 2
c0 -11 -4 -20 -10 -20 -5 0 -10 9 -10 20 0 11 5 20 10 20 6 0 10 -9 10 -20z
m296 -17 c-11 -11 -17 4 -9 23 7 18 8 18 11 1 2 -10 1 -21 -2 -24z m3182 19
c2 -7 -3 -12 -12 -12 -9 0 -16 7 -16 16 0 17 22 14 28 -4z m-89 -36 c18 -19
20 -26 10 -26 -15 0 -69 50 -69 63 0 12 33 -9 59 -37z m1343 1 c29 -24 63 -58
76 -77 36 -54 27 -121 -22 -162 -34 -28 -40 -21 -11 13 21 26 25 40 23 78 -3
43 -6 47 -37 57 -19 6 -45 23 -57 38 -13 14 -30 26 -39 26 -9 0 -13 5 -10 10
4 6 11 8 16 5 5 -4 9 -2 9 4 0 5 -4 13 -10 16 -13 8 -13 35 0 35 5 0 33 -19
62 -43z m-16 -104 c-10 -10 -19 5 -10 18 6 11 8 11 12 0 2 -7 1 -15 -2 -18z
m-4806 13 c0 -3 -4 -8 -10 -11 -5 -3 -10 -1 -10 4 0 6 5 11 10 11 6 0 10 -2
10 -4z m80 -71 c0 -8 -4 -15 -10 -15 -5 0 -10 7 -10 15 0 8 5 15 10 15 6 0 10
-7 10 -15z m60 -4 c0 -30 -17 -34 -22 -6 -4 17 -1 25 8 25 8 0 14 -9 14 -19z
m207 -3 c-3 -8 -6 -5 -6 6 -1 11 2 17 5 13 3 -3 4 -12 1 -19z m4423 18 c0 -3
-4 -8 -10 -11 -5 -3 -10 -1 -10 4 0 6 5 11 10 11 6 0 10 -2 10 -4z m-4723 -78
c-3 -7 -5 -2 -5 12 0 14 2 19 5 13 2 -7 2 -19 0 -25z m-28 -5 c0 -25 -1 -25
-8 -8 -5 11 -7 23 -4 28 8 14 13 7 12 -20z m-32 -15 c-3 -8 -6 -5 -6 6 -1 11
2 17 5 13 3 -3 4 -12 1 -19z m153 13 c0 -6 -4 -13 -10 -16 -5 -3 -10 1 -10 9
0 9 5 16 10 16 6 0 10 -4 10 -9z m4570 -1 c24 -15 7 -19 -20 -5 -15 8 -19 14
-10 14 8 1 22 -3 30 -9z m-1210 -10 c0 -5 -5 -10 -11 -10 -5 0 -7 5 -4 10 3 6
8 10 11 10 2 0 4 -4 4 -10z m-3463 -52 c-3 -8 -6 -5 -6 6 -1 11 2 17 5 13 3
-3 4 -12 1 -19z m3737 -80 c-15 -49 -23 -64 -46 -89 -40 -43 -78 -63 -114 -60
-23 2 -35 -3 -42 -16 -6 -10 -14 -15 -18 -11 -4 4 13 33 37 65 24 32 44 63 44
68 1 6 5 9 11 8 5 -1 32 11 59 27 63 35 79 37 69 8z m-864 -59 c0 -6 4 -8 9
-5 4 3 6 -6 3 -21 -5 -26 -4 -26 40 -20 25 3 58 2 74 -3 28 -8 29 -8 4 -11
-14 -1 -34 -2 -45 -1 -17 1 -17 0 5 -14 l25 -15 -35 6 c-47 7 -105 50 -124 90
-22 46 -20 49 14 25 17 -12 30 -26 30 -31z m630 48 c0 -2 -10 -12 -22 -23
l-23 -19 19 23 c18 21 26 27 26 19z m-3550 -11 c0 -3 -4 -8 -10 -11 -5 -3 -10
-1 -10 4 0 6 5 11 10 11 6 0 10 -2 10 -4z m10 -46 c0 -5 -9 -10 -20 -10 -11 0
-20 5 -20 10 0 6 9 10 20 10 11 0 20 -4 20 -10z m4059 -17 c36 -16 83 -58 75
-65 -3 -4 -58 4 -201 29 -37 6 -43 28 -15 49 21 17 92 10 141 -13z m-4094
-111 c1 -59 -2 -94 -6 -77 -9 42 -11 185 -1 185 4 0 7 -48 7 -108z m610 1 c-4
-60 -12 -111 -18 -115 -10 -6 -35 -4 -94 8 -16 3 -23 0 -23 -11 0 -19 -9 -19
-32 2 -10 9 -18 30 -18 47 0 17 -4 46 -9 64 -5 17 -6 32 -1 32 5 0 10 -5 12
-11 2 -6 4 7 5 30 1 23 5 46 8 51 3 6 45 10 92 10 l85 0 -7 -107z m4395 99 c0
-5 -18 -14 -40 -21 -22 -6 -40 -16 -40 -21 0 -6 -3 -9 -8 -7 -13 4 -92 -87
-93 -108 -1 -16 -2 -16 -6 -3 -7 25 33 94 71 123 45 34 116 57 116 37z m-778
-126 c33 -6 38 -11 53 -56 9 -27 21 -78 26 -112 23 -146 23 -148 0 -179 -14
-19 -17 -29 -9 -30 10 0 10 -2 1 -6 -7 -2 -13 -13 -13 -23 0 -10 -5 -22 -11
-25 -5 -4 -14 -17 -19 -30 -9 -25 -61 -55 -93 -55 -17 0 -18 2 -6 17 9 11 3 9
-15 -5 -38 -29 -90 -29 -197 3 -68 20 -90 32 -116 62 -18 20 -33 47 -33 60 0
13 -7 40 -15 60 -9 20 -13 43 -10 50 2 8 1 12 -4 9 -13 -8 -24 80 -13 101 6
10 57 64 115 120 l104 102 109 -29 c60 -15 126 -31 146 -34z m-4152 45 c0 -11
-26 -22 -34 -14 -12 12 -5 23 14 23 11 0 20 -4 20 -9z m4910 -62 c0 -5 -10 -9
-21 -9 -18 0 -19 2 -9 15 12 15 30 12 30 -6z m-43 -81 c9 -10 22 -18 30 -18 7
0 13 -5 13 -11 0 -6 -14 -3 -32 8 -26 15 -33 26 -35 53 -1 24 0 27 4 10 3 -14
12 -33 20 -42z m-130 20 c-3 -8 -6 -5 -6 6 -1 11 2 17 5 13 3 -3 4 -12 1 -19z
m-4816 -71 l-5 -32 -6 35 c-7 38 -2 59 9 41 4 -6 5 -26 2 -44z m519 33 c0 -5
-2 -10 -4 -10 -3 0 -8 5 -11 10 -3 6 -1 10 4 10 6 0 11 -4 11 -10z m4351 -70
c14 -14 41 -36 60 -48 29 -20 30 -23 9 -17 -40 11 -93 59 -107 96 -10 26 -10
29 0 14 6 -10 24 -31 38 -45z m1369 -2 c0 -5 -4 -8 -10 -8 -5 0 -10 10 -10 23
0 18 2 19 10 7 5 -8 10 -18 10 -22z m110 17 c0 -8 -2 -15 -4 -15 -2 0 -6 7
-10 15 -3 8 -1 15 4 15 6 0 10 -7 10 -15z m-6333 -73 c-19 -24 -30 4 -16 38
l14 31 6 -28 c3 -15 1 -34 -4 -41z m3011 3 c58 -49 135 -185 104 -185 -6 0
-14 9 -17 20 -9 28 -50 53 -85 52 -46 -1 -86 -28 -108 -74 l-21 -42 -16 37
c-19 46 -19 45 6 120 32 97 78 122 137 72z m1497 -147 c-15 -49 -88 -159 -143
-214 -71 -72 -228 -154 -295 -154 -24 0 -19 8 9 13 113 19 326 189 395 314 36
67 44 76 34 41z m1890 -28 c3 -5 1 -10 -4 -10 -6 0 -11 5 -11 10 0 6 2 10 4
10 3 0 8 -4 11 -10z m-5773 -120 c3 -47 13 -123 22 -170 9 -47 14 -93 12 -102
-2 -10 -1 -20 4 -23 4 -3 11 -31 15 -62 4 -32 12 -64 18 -71 6 -7 11 -45 13
-83 1 -38 5 -73 9 -77 4 -4 4 9 0 28 -13 64 11 19 45 -85 18 -55 34 -107 35
-115 1 -8 9 -29 18 -47 9 -18 17 -41 17 -51 0 -11 7 -25 15 -32 8 -7 15 -23
15 -37 0 -24 6 -34 46 -78 12 -13 20 -26 18 -28 -3 -2 2 -17 11 -33 15 -30 21
-59 7 -37 -6 9 -17 10 -42 3 -22 -6 -38 -6 -46 1 -7 5 -62 10 -123 10 -109 1
-111 1 -117 25 -6 22 0 74 12 117 3 9 12 17 20 17 18 0 55 -21 70 -39 9 -12
12 -11 18 4 4 10 2 21 -3 25 -16 9 -26 116 -12 125 9 5 8 13 -3 29 -8 13 -16
56 -19 102 -10 174 -34 272 -77 314 -6 6 -42 81 -58 122 -7 15 -9 34 -6 42 3
8 1 17 -5 21 -34 20 12 280 48 273 12 -3 17 -22 23 -88z m2428 45 c-7 -8 -16
-12 -21 -9 -13 8 -1 24 18 24 13 0 13 -3 3 -15z m3467 -7 c-3 -8 -6 -5 -6 6
-1 11 2 17 5 13 3 -3 4 -12 1 -19z m-6140 -40 c-3 -7 -5 -2 -5 12 0 14 2 19 5
13 2 -7 2 -19 0 -25z m-39 4 c2 -7 -2 -10 -12 -6 -9 3 -16 11 -16 16 0 13 23
5 28 -10z m3370 0 c2 -7 -2 -10 -12 -6 -9 3 -16 11 -16 16 0 13 23 5 28 -10z
m40 -17 c-3 -3 -9 2 -12 12 -6 14 -5 15 5 6 7 -7 10 -15 7 -18z m320 -2 c-10
-2 -28 -2 -40 0 -13 2 -5 4 17 4 22 1 32 -1 23 -4z m878 -25 c57 -50 94 -107
93 -142 l-1 -31 -14 33 c-9 22 -27 38 -49 48 -25 10 -35 21 -35 36 0 12 -14
37 -32 55 -43 45 -12 45 38 1z m-4591 -8 c-34 -7 -40 -5 -31 8 3 5 18 7 33 4
l28 -6 -30 -6z m3829 11 c14 -5 16 -10 7 -15 -6 -4 -19 -2 -28 6 -9 7 -14 8
-10 2 4 -7 0 -15 -9 -18 -28 -11 -34 -6 -16 13 19 21 28 23 56 12z m-3697 -63
c-2 -13 -4 -5 -4 17 -1 22 1 32 4 23 2 -10 2 -28 0 -40z m3523 32 c13 -9 13
-11 0 -20 -8 -5 -19 -10 -25 -10 -5 0 -3 5 5 10 10 6 11 10 3 10 -7 0 -13 5
-13 10 0 13 11 13 30 0z m-3678 -17 c26 -23 24 -53 -4 -53 -30 0 -58 19 -40
27 6 2 12 13 12 24 0 23 8 24 32 2z m3448 4 c25 -7 51 -16 58 -20 6 -5 17 -5
23 -2 5 4 19 -1 30 -11 18 -16 19 -16 13 -1 -3 9 -2 17 4 17 5 0 12 -7 16 -15
3 -8 16 -14 28 -14 17 1 18 2 6 6 -10 2 -18 9 -18 14 0 14 26 11 40 -6 16 -20
54 -19 86 1 13 9 27 14 31 11 3 -4 13 -2 23 3 10 5 20 6 24 3 9 -9 -14 -33
-32 -33 -8 0 -23 -10 -33 -21 -15 -17 -34 -23 -89 -27 -62 -4 -74 -2 -93 16
-12 11 -47 30 -77 42 -59 22 -111 49 -95 49 6 0 30 -5 55 -12z m410 -11 c0 -3
-4 -8 -10 -11 -5 -3 -10 -1 -10 4 0 6 5 11 10 11 6 0 10 -2 10 -4z m664 -10
c-21 -15 -30 -14 -19 3 3 6 14 11 23 11 13 0 13 -2 -4 -14z m-4494 -66 c0 -5
-4 -10 -10 -10 -5 0 -10 5 -10 10 0 6 5 10 10 10 6 0 10 -4 10 -10z m149 -49
c6 -21 18 -44 26 -51 8 -7 15 -18 15 -26 0 -7 8 -28 19 -46 20 -36 27 -138 24
-345 -2 -147 -5 -172 -20 -166 -8 3 -13 -4 -13 -18 0 -13 -5 -31 -10 -39 -7
-11 -10 0 -10 38 0 33 -4 52 -12 52 -6 0 -8 3 -5 6 3 4 2 15 -4 25 -7 15 -6
19 6 19 9 0 15 -9 15 -22 0 -32 15 -55 23 -35 8 21 -4 167 -14 173 -5 3 -9 22
-9 43 0 20 -5 42 -11 48 -7 7 -13 32 -14 56 -1 25 -6 51 -11 58 -5 8 -7 24 -5
37 1 12 -3 38 -9 58 -7 20 -12 55 -12 77 1 23 -3 44 -8 47 -4 3 -6 17 -3 32 7
36 27 26 42 -21z m3382 -1 c33 0 61 -5 65 -12 10 -16 -134 -4 -203 17 -80 24
-72 35 9 14 39 -11 98 -19 129 -19z m-186 2 c-3 -3 -11 0 -18 7 -9 10 -8 11 6
5 10 -3 15 -9 12 -12z m332 -8 c-3 -3 -12 -4 -19 -1 -8 3 -5 6 6 6 11 1 17 -2
13 -5z m-3911 -50 c51 -50 54 -65 8 -32 -27 19 -71 78 -58 78 2 0 25 -21 50
-46z m3670 36 c16 -6 70 -14 119 -19 l90 -10 -95 3 c-58 2 -109 9 -130 19 -39
17 -28 22 16 7z m-3439 -22 c-3 -8 -6 -5 -6 6 -1 11 2 17 5 13 3 -3 4 -12 1
-19z m20 -10 c-3 -7 -5 -2 -5 12 0 14 2 19 5 13 2 -7 2 -19 0 -25z m3676 15
c-7 -2 -19 -2 -25 0 -7 3 -2 5 12 5 14 0 19 -2 13 -5z m-3713 -43 c0 -5 -4
-10 -10 -10 -5 0 -10 5 -10 10 0 6 5 10 10 10 6 0 10 -4 10 -10z m-50 -60 c0
-5 -5 -10 -11 -10 -5 0 -7 5 -4 10 3 6 8 10 11 10 2 0 4 -4 4 -10z m4209 -48
c35 -23 51 -68 37 -103 -6 -16 -13 -29 -17 -29 -3 0 -12 18 -19 41 -14 42 -59
99 -79 99 -6 0 -11 5 -11 11 0 14 57 2 89 -19z m-4114 -2 c-3 -6 1 -13 10 -17
13 -4 15 -13 11 -34 -3 -16 -1 -29 4 -29 5 0 12 -9 15 -20 3 -11 14 -20 23
-21 12 0 11 -3 -5 -9 -27 -11 -29 -25 -8 -46 17 -17 9 -44 -12 -44 -10 0 -14
-7 -10 -20 3 -11 2 -22 -2 -24 -11 -7 -30 83 -30 143 0 33 -5 58 -13 63 -10 8
-10 11 -1 15 9 3 10 10 3 23 -7 13 -6 20 3 23 18 8 19 8 12 -3z m2961 -18
c-18 -16 -18 -16 -6 6 6 13 14 21 18 18 3 -4 -2 -14 -12 -24z m-326 0 c0 -4
19 -15 42 -25 32 -14 38 -21 27 -28 -12 -8 -12 -10 1 -19 8 -5 23 -7 33 -4 9
3 17 1 17 -5 0 -6 9 -11 20 -11 11 0 20 5 20 10 0 14 19 12 35 -4 26 -25 -53
-29 -127 -6 -56 18 -66 25 -76 54 -15 40 -15 46 -2 46 6 0 10 -3 10 -8z
m-2660 -70 c0 -15 -2 -15 -10 -2 -13 20 -13 33 0 25 6 -3 10 -14 10 -23z
m2945 7 c-4 -5 -14 -9 -24 -9 -9 0 -22 -5 -29 -12 -9 -9 -12 -9 -12 0 0 6 12
18 27 26 28 14 48 12 38 -5z m450 -18 c3 -5 -3 -11 -12 -13 -10 -2 3 -7 28
-11 25 -4 55 -16 67 -27 36 -34 92 -126 92 -151 -1 -24 -1 -24 -13 -3 -26 45
-53 70 -79 72 -19 1 -28 -3 -28 -13 0 -8 -9 -19 -21 -25 -11 -6 -29 -30 -39
-53 -10 -23 -19 -34 -19 -24 -1 27 26 75 50 88 11 6 18 13 15 16 -9 10 -56
-27 -68 -52 -6 -14 -15 -22 -21 -18 -5 3 -6 -3 -2 -16 13 -42 -13 -20 -34 30
-25 56 -22 91 10 147 12 22 15 32 6 33 -7 0 2 7 18 14 36 17 42 18 50 6z
m1425 -5 c0 -3 -4 -8 -10 -11 -5 -3 -10 -1 -10 4 0 6 5 11 10 11 6 0 10 -2 10
-4z m-2084 -31 c10 -8 14 -15 8 -15 -5 0 -19 7 -30 15 -10 8 -14 15 -8 15 5 0
19 -7 30 -15z m1441 -27 c-3 -8 -6 -5 -6 6 -1 11 2 17 5 13 3 -3 4 -12 1 -19z
m-274 -157 c20 -13 35 -27 32 -29 -9 -9 -80 47 -98 77 -25 42 -21 50 6 10 12
-19 39 -45 60 -58z m-3770 56 c20 -20 20 -20 -6 -13 -21 5 -25 3 -21 -9 4 -8
2 -15 -4 -15 -10 0 -22 23 -22 44 0 19 31 15 53 -7z m-47 -72 c-9 -34 -11 -31
-20 20 -7 38 -6 39 10 23 12 -11 15 -24 10 -43z m4519 -5 c-55 -56 -168 -138
-259 -190 -77 -43 -43 -11 59 54 57 38 105 71 107 75 2 3 23 22 48 41 25 19
55 45 68 57 13 13 26 23 30 23 3 0 -21 -27 -53 -60z m1475 30 c0 -5 -4 -10
-10 -10 -5 0 -10 5 -10 10 0 6 5 10 10 10 6 0 10 -4 10 -10z m-6098 -75 c-2
-14 -6 -25 -8 -25 -2 0 -4 11 -4 25 0 14 4 25 9 25 4 0 6 -11 3 -25z m150 16
c-9 -5 -11 -17 -6 -34 5 -21 2 -27 -10 -27 -9 0 -16 8 -16 21 0 11 -4 17 -10
14 -12 -7 -12 -3 -4 19 4 9 18 16 33 16 17 0 22 -3 13 -9z m-132 -134 c13 -9
19 -28 22 -67 3 -50 1 -55 -17 -52 -40 6 -45 12 -45 50 0 59 14 144 18 110 2
-15 12 -34 22 -41z m130 47 c0 -8 -4 -12 -10 -9 -5 3 -10 10 -10 16 0 5 5 9
10 9 6 0 10 -7 10 -16z m30 -34 c0 -13 9 -22 25 -26 25 -6 27 -10 27 -64 0
-75 -2 -103 -8 -97 -4 3 -6 27 -6 52 1 28 -3 43 -9 40 -5 -4 -7 -11 -4 -16 3
-5 0 -6 -8 -3 -16 6 -37 75 -37 119 0 15 4 24 10 20 6 -3 10 -15 10 -25z
m-100 -50 c0 -4 -6 -12 -12 -18 -10 -8 -13 -5 -13 13 0 14 5 21 13 18 6 -3 12
-9 12 -13z m4224 -25 c-4 -8 -14 -15 -23 -15 -14 1 -13 3 3 15 25 19 27 19 20
0z m1736 -5 c0 -5 -5 -10 -11 -10 -5 0 -7 5 -4 10 3 6 8 10 11 10 2 0 4 -4 4
-10z m-1110 -4 c0 -3 -4 -8 -10 -11 -5 -3 -10 -1 -10 4 0 6 5 11 10 11 6 0 10
-2 10 -4z m-4825 -65 c-1 -27 -6 -55 -10 -60 -9 -16 -28 -2 -21 15 3 8 0 14
-6 14 -14 0 -2 61 15 72 22 14 26 8 22 -41z m4785 35 c0 -3 -4 -8 -10 -11 -5
-3 -10 -1 -10 4 0 6 5 11 10 11 6 0 10 -2 10 -4z m-760 -36 c0 -5 -4 -10 -10
-10 -5 0 -10 5 -10 10 0 6 5 10 10 10 6 0 10 -4 10 -10z m1905 -19 c-3 -12
-14 -21 -23 -21 -16 1 -15 2 1 11 9 5 17 17 17 26 0 9 3 14 6 10 3 -3 3 -15
-1 -26z m-1225 -16 c-7 -8 -18 -15 -24 -15 -6 0 -2 7 8 15 25 19 32 19 16 0z
m-785 -5 c-3 -5 -14 -10 -24 -10 -9 0 -22 -5 -29 -12 -9 -9 -12 -9 -12 0 0 7
10 17 23 22 30 12 49 12 42 0z m-3845 -35 c-11 -13 -10 -14 5 -9 15 6 17 3 13
-13 -3 -12 0 -20 7 -20 7 0 10 9 8 21 -4 19 -3 19 7 3 11 -18 8 -302 -4 -314
-3 -4 -6 -1 -6 6 0 7 -11 27 -24 44 -33 44 -76 124 -87 161 -10 33 -3 87 10
83 4 -1 22 13 40 32 30 32 57 38 31 6z m3760 11 c0 -3 -4 -8 -10 -11 -5 -3
-10 -1 -10 4 0 6 5 11 10 11 6 0 10 -2 10 -4z m2034 -39 c2 -14 -2 -28 -8 -30
-7 -3 -11 10 -12 34 0 42 16 39 20 -4z m-1226 20 c-26 -25 -79 -59 -85 -54 -2
3 8 12 24 21 16 8 35 22 42 30 8 9 18 16 23 16 5 0 3 -6 -4 -13z m-4170 -34
c-10 -2 -28 -2 -40 0 -13 2 -5 4 17 4 22 1 32 -1 23 -4z m67 -23 c-6 -9 -9 -9
-16 1 -10 17 0 34 13 21 6 -6 7 -16 3 -22z m-217 -41 c-18 -12 -23 8 -6 28 12
15 13 15 16 -2 2 -10 -2 -21 -10 -26z m4072 -64 c0 -2 -10 -10 -22 -16 -21
-11 -22 -11 -9 4 13 16 31 23 31 12z m260 -73 c0 -11 -78 -54 -90 -50 -6 2 11
15 37 30 58 32 53 30 53 20z m265 -43 c8 -13 6 -15 -23 -24 -22 -6 -23 -5 -13
14 13 23 26 27 36 10z m-380 -29 c-3 -5 -10 -10 -16 -10 -5 0 -9 5 -9 10 0 6
7 10 16 10 8 0 12 -4 9 -10z m-65 -40 c-24 -15 -36 -11 -14 4 10 8 21 12 24
10 2 -3 -2 -9 -10 -14z m500 -11 c0 -10 -34 -12 -43 -2 -4 3 -2 12 4 20 9 10
15 10 25 2 8 -6 14 -15 14 -20z m-560 -19 c0 -5 -5 -10 -11 -10 -5 0 -7 5 -4
10 3 6 8 10 11 10 2 0 4 -4 4 -10z m605 -38 c0 -18 -20 -15 -23 4 -3 10 1 15
10 12 7 -3 13 -10 13 -16z m-689 -7 c-11 -8 -25 -15 -30 -15 -6 0 -2 7 8 15
11 8 25 15 30 15 6 0 2 -7 -8 -15z m-101 -45 c-69 -32 -115 -47 -100 -33 6 5
33 18 60 28 28 10 54 22 60 26 5 5 16 9 25 8 8 0 -12 -13 -45 -29z m-125 -50
c-8 -5 -19 -10 -25 -10 -5 0 -3 5 5 10 8 5 20 10 25 10 6 0 3 -5 -5 -10z
m1005 -10 c3 -5 -1 -10 -10 -10 -9 0 -13 5 -10 10 3 6 8 10 10 10 2 0 7 -4 10
-10z m449 -31 c-6 -11 -60 -61 -105 -99 -139 -118 -330 -260 -459 -341 -89
-57 -231 -132 -237 -126 -4 5 63 47 75 47 4 0 30 15 58 33 28 18 77 49 110 67
75 43 107 66 158 112 23 21 44 38 49 38 4 0 7 9 7 20 0 14 5 18 17 13 11 -4
14 -3 9 5 -5 8 0 12 12 12 16 0 19 5 15 21 -5 16 -2 20 8 17 8 -3 13 -11 11
-18 -2 -7 13 1 33 19 20 17 40 31 46 31 5 0 9 8 7 18 -2 9 3 16 10 15 6 -2 20
5 31 15 10 9 34 28 52 42 19 14 43 35 54 46 21 23 51 32 39 13z m-386 -51 c-6
-18 -28 -21 -28 -4 0 9 7 16 16 16 9 0 14 -5 12 -12z m-4601 -27 c0 -11 -5
-18 -9 -15 -4 3 -5 11 -1 19 7 21 12 19 10 -4z m4640 -18 c4 -10 11 -21 17
-25 8 -5 7 -11 -2 -20 -9 -9 -12 -9 -12 4 0 9 -7 18 -15 22 -17 6 -21 36 -5
36 6 0 14 -8 17 -17z m-4442 -273 c22 -10 65 -23 95 -30 30 -7 72 -17 93 -22
l39 -9 -7 -52 c-11 -85 -13 -90 -43 -82 -15 3 -39 9 -54 12 -15 3 -33 11 -39
19 -6 8 -15 14 -20 14 -18 0 -179 153 -179 170 0 14 61 3 115 -20z m5190 -60
c3 -5 -1 -10 -9 -10 -9 0 -16 5 -16 10 0 6 4 10 9 10 6 0 13 -4 16 -10z m270
0 c3 -5 3 -10 -2 -10 -4 0 -19 -3 -33 -6 -24 -6 -25 -6 -5 9 24 19 32 21 40 7z
m325 -106 c0 -10 -7 -14 -22 -12 -32 5 -35 28 -4 28 17 0 26 -5 26 -16z m-912
-106 c-3 -42 -28 -68 -28 -29 0 18 -6 21 -40 21 -22 0 -40 5 -40 10 0 6 18 10
40 10 29 0 40 4 40 15 0 8 7 15 16 15 12 0 14 -9 12 -42z m-428 -143 c0 -15
-6 -25 -14 -25 -19 0 -28 14 -20 34 10 25 34 19 34 -9z m-243 -47 c-3 -8 -6
-5 -6 6 -1 11 2 17 5 13 3 -3 4 -12 1 -19z m-3017 -164 c62 -8 97 -23 123 -53
21 -26 21 -31 3 -31 -7 0 -19 -6 -26 -14 -8 -11 -25 -13 -63 -9 -29 3 -53 10
-55 15 -2 4 -10 8 -17 8 -23 0 -65 49 -65 77 0 21 3 24 23 19 12 -3 47 -9 77
-12z m380 -44 c0 -5 -18 -10 -39 -10 -22 0 -41 -5 -43 -12 -5 -15 -28 -1 -28
18 0 10 14 14 55 14 30 0 55 -4 55 -10z m-2080 -80 c0 -29 -4 -40 -15 -40 -11
0 -15 11 -15 40 0 29 4 40 15 40 11 0 15 -11 15 -40z m1945 30 c-3 -5 -10 -10
-16 -10 -5 0 -9 5 -9 10 0 6 7 10 16 10 8 0 12 -4 9 -10z m3999 -55 c3 -9 0
-15 -9 -15 -8 0 -15 7 -15 15 0 8 4 15 9 15 5 0 11 -7 15 -15z m-3889 -65 c4
-6 15 -8 26 -5 28 9 79 -4 79 -21 0 -11 -17 -14 -78 -14 -43 0 -82 3 -86 7 -4
4 3 15 16 25 27 20 34 22 43 8z m-2135 -70 c0 -29 -4 -40 -15 -40 -11 0 -15
11 -15 40 0 29 4 40 15 40 11 0 15 -11 15 -40z m212 28 c-9 -9 -15 -9 -24 0
-9 9 -7 12 12 12 19 0 21 -3 12 -12z m-829 -25 c4 -3 0 -15 -10 -25 -10 -12
-12 -18 -4 -18 7 0 9 -5 6 -10 -4 -6 -13 -4 -23 7 -12 12 -13 18 -4 21 6 2 12
10 12 18 0 15 12 19 23 7z m-168 -230 c30 -34 32 -53 5 -53 -11 0 -20 3 -20 8
0 4 -16 16 -35 26 -39 21 -44 32 -17 39 34 9 43 7 67 -20z m99 -47 c22 -11 24
-15 11 -20 -30 -11 -45 -6 -45 14 0 24 0 24 34 6z"/>
<path d="M5707 9873 c-4 -3 -7 -14 -7 -24 0 -12 6 -16 20 -12 22 6 28 43 7 43
-8 0 -17 -3 -20 -7z"/>
<path d="M890 7505 c0 -14 8 -29 21 -35 29 -16 32 -9 13 28 -19 38 -34 41 -34
7z"/>
<path d="M1200 7334 c0 -22 -2 -25 -15 -14 -12 10 -15 10 -15 -4 0 -9 -4 -16
-10 -16 -5 0 -10 5 -10 10 0 6 -5 10 -12 10 -9 0 -9 -3 0 -12 16 -16 15 -29 0
-27 -36 4 -46 -1 -41 -23 3 -13 15 -31 27 -41 11 -10 15 -16 9 -12 -7 3 -13 2
-13 -3 0 -8 22 -22 35 -22 1 0 0 20 -2 44 -4 33 -1 49 10 60 19 19 34 20 40 4
3 -7 6 6 6 30 1 23 -1 42 -4 42 -3 0 -5 -12 -5 -26z"/>
<path d="M1396 6464 c-4 -9 -4 -19 -2 -21 8 -8 26 8 26 23 0 19 -16 18 -24 -2z"/>
<path d="M4875 6210 c3 -5 11 -10 16 -10 6 0 7 5 4 10 -3 6 -11 10 -16 10 -6
0 -7 -4 -4 -10z"/>
<path d="M515 6170 c3 -5 11 -10 16 -10 6 0 7 5 4 10 -3 6 -11 10 -16 10 -6 0
-7 -4 -4 -10z"/>
<path d="M1050 5750 c0 -5 5 -10 10 -10 6 0 10 5 10 10 0 6 -4 10 -10 10 -5 0
-10 -4 -10 -10z"/>
<path d="M3878 5743 c7 -3 16 -2 19 1 4 3 -2 6 -13 5 -11 0 -14 -3 -6 -6z"/>
<path d="M400 4931 c0 -6 5 -13 10 -16 6 -3 10 1 10 9 0 9 -4 16 -10 16 -5 0
-10 -4 -10 -9z"/>
<path d="M397 4879 c-4 -16 -3 -18 9 -8 16 13 19 29 5 29 -5 0 -11 -9 -14 -21z"/>
<path d="M320 4872 c0 -5 7 -13 16 -16 10 -4 14 -1 12 6 -5 15 -28 23 -28 10z"/>
<path d="M4180 4928 c-118 -60 -162 -210 -93 -315 36 -56 148 -114 218 -112
78 1 100 16 26 16 -115 1 -180 73 -167 187 3 27 13 57 22 67 10 11 14 19 10
19 -4 0 -18 -12 -31 -27 l-24 -28 6 25 c6 22 4 23 -9 12 -13 -11 -17 -9 -23
15 -5 21 -8 24 -16 12 -19 -30 -9 13 12 50 27 47 56 68 121 85 42 12 47 15 23
15 -17 1 -51 -9 -75 -21z"/>
<path d="M4292 4734 c-12 -8 -22 -24 -22 -35 0 -27 35 -59 66 -59 14 0 23 -4
19 -10 -3 -5 -1 -10 5 -10 6 0 13 8 16 18 3 9 10 25 15 34 13 26 11 35 -13 58
-26 24 -56 26 -86 4z m46 -37 c4 -18 -14 -31 -33 -23 -19 7 -7 45 13 42 10 -2
18 -10 20 -19z"/>
<path d="M4040 4650 c0 -5 5 -10 11 -10 5 0 7 5 4 10 -3 6 -8 10 -11 10 -2 0
-4 -4 -4 -10z"/>
<path d="M951 3954 c0 -11 3 -14 6 -6 3 7 2 16 -1 19 -3 4 -6 -2 -5 -13z"/>
<path d="M971 3774 c0 -11 3 -14 6 -6 3 7 2 16 -1 19 -3 4 -6 -2 -5 -13z"/>
<path d="M1038 3483 c7 -3 16 -2 19 1 4 3 -2 6 -13 5 -11 0 -14 -3 -6 -6z"/>
<path d="M661 3854 c0 -11 3 -14 6 -6 3 7 2 16 -1 19 -3 4 -6 -2 -5 -13z"/>
<path d="M3950 8250 c19 -13 30 -13 30 0 0 6 -10 10 -22 10 -19 0 -20 -2 -8
-10z"/>
<path d="M3350 8110 c0 -5 4 -10 9 -10 6 0 13 5 16 10 3 6 -1 10 -9 10 -9 0
-16 -4 -16 -10z"/>
<path d="M3286 8101 c-11 -4 -15 -10 -10 -13 5 -4 18 0 29 8 20 15 12 17 -19
5z"/>
<path d="M3028 8023 c7 -3 16 -2 19 1 4 3 -2 6 -13 5 -11 0 -14 -3 -6 -6z"/>
<path d="M3100 8020 c0 -5 5 -10 10 -10 6 0 10 5 10 10 0 6 -4 10 -10 10 -5 0
-10 -4 -10 -10z"/>
<path d="M2060 7996 c0 -8 4 -17 8 -20 4 -2 8 4 8 15 0 10 -4 19 -8 19 -4 0
-8 -6 -8 -14z"/>
<path d="M2025 7980 c-3 -5 -1 -10 4 -10 6 0 11 5 11 10 0 6 -2 10 -4 10 -3 0
-8 -4 -11 -10z"/>
<path d="M3096 7877 c-16 -12 -17 -15 -3 -29 9 -9 13 -18 10 -22 -4 -3 3 -6
15 -6 27 0 39 20 20 34 -8 6 -17 17 -19 24 -3 10 -8 10 -23 -1z"/>
<path d="M3050 7795 c0 -8 5 -15 10 -15 6 0 10 7 10 15 0 8 -4 15 -10 15 -5 0
-10 -7 -10 -15z"/>
<path d="M3020 7760 c-9 -6 -10 -10 -3 -10 6 0 15 5 18 10 8 12 4 12 -15 0z"/>
<path d="M2916 7692 c-4 -7 -14 -11 -22 -8 -8 3 -14 2 -14 -3 0 -9 41 -23 48
-16 2 2 2 12 0 22 -3 14 -5 15 -12 5z"/>
<path d="M2876 7648 c7 -11 34 -10 34 1 0 6 -9 9 -19 8 -11 0 -17 -5 -15 -9z"/>
<path d="M5555 7600 c3 -5 11 -10 16 -10 6 0 7 5 4 10 -3 6 -11 10 -16 10 -6
0 -7 -4 -4 -10z"/>
<path d="M5627 7581 c5 -20 33 -38 33 -21 0 8 -28 40 -35 40 -2 0 -1 -9 2 -19z"/>
<path d="M5672 7580 c7 -10 14 -18 15 -16 6 6 -9 36 -18 36 -5 0 -4 -9 3 -20z"/>
<path d="M5560 7540 c0 -5 5 -10 10 -10 6 0 10 5 10 10 0 6 -4 10 -10 10 -5 0
-10 -4 -10 -10z"/>
<path d="M2855 7492 c-17 -12 -17 -42 0 -42 8 0 15 4 15 9 0 5 3 16 6 25 6 17
-4 21 -21 8z"/>
<path d="M2790 7445 c-7 -9 -8 -15 -2 -15 5 0 12 7 16 15 3 8 4 15 2 15 -2 0
-9 -7 -16 -15z"/>
<path d="M2870 7430 c-8 -5 -11 -12 -7 -16 4 -4 13 -2 19 4 15 15 7 24 -12 12z"/>
<path d="M2100 7380 c0 -5 5 -10 10 -10 6 0 10 5 10 10 0 6 -4 10 -10 10 -5 0
-10 -4 -10 -10z"/>
<path d="M2081 7367 c-1 -10 -6 -15 -12 -12 -6 4 -5 -2 2 -13 7 -11 19 -18 26
-15 8 3 10 10 5 17 -5 6 -12 18 -15 26 -4 12 -6 11 -6 -3z"/>
<path d="M2525 7310 c-4 -17 -5 -34 -2 -36 3 -3 8 9 12 26 4 17 5 34 2 36 -3
3 -8 -9 -12 -26z"/>
<path d="M2028 7323 c6 -2 18 -2 25 0 6 3 1 5 -13 5 -14 0 -19 -2 -12 -5z"/>
<path d="M2045 7301 c-3 -5 4 -13 16 -16 23 -8 34 -1 24 14 -8 13 -32 14 -40
2z"/>
<path d="M2044 7269 c-3 -6 -13 -8 -22 -4 -13 5 -13 2 2 -14 10 -11 15 -25 11
-30 -3 -6 -2 -11 4 -11 15 0 26 23 13 28 -20 6 -13 20 11 24 19 3 19 4 5 10
-10 4 -20 3 -24 -3z"/>
<path d="M2481 7141 c-24 -103 -24 -104 -11 -96 6 3 10 21 10 40 0 18 4 35 8
37 8 3 25 108 18 108 -2 0 -13 -40 -25 -89z"/>
<path d="M2020 7180 c-6 -11 -7 -20 -2 -20 6 0 12 9 15 20 3 11 3 20 1 20 -2
0 -8 -9 -14 -20z"/>
<path d="M5700 7160 c19 -13 30 -13 30 0 0 6 -10 10 -22 10 -19 0 -20 -2 -8
-10z"/>
<path d="M2544 7104 c3 -9 6 -20 6 -26 0 -7 5 -6 14 2 18 14 10 40 -11 40 -10
0 -13 -6 -9 -16z"/>
<path d="M1926 7073 c-6 -14 -5 -15 5 -6 7 7 10 15 7 18 -3 3 -9 -2 -12 -12z"/>
<path d="M5395 7070 c3 -5 13 -10 21 -10 14 0 24 -7 59 -37 7 -7 19 -13 25
-13 19 0 5 25 -16 29 -10 2 -26 12 -35 22 -17 19 -65 27 -54 9z"/>
<path d="M5760 7060 c0 -5 9 -10 21 -10 11 0 17 5 14 10 -3 6 -13 10 -21 10
-8 0 -14 -4 -14 -10z"/>
<path d="M2676 7038 c3 -5 -2 -15 -12 -23 -29 -21 -5 -41 27 -23 13 7 25 13
27 14 9 4 -13 33 -29 37 -11 3 -16 1 -13 -5z"/>
<path d="M5860 7036 c0 -8 7 -19 15 -23 18 -10 24 -54 9 -60 -7 -2 -19 3 -28
12 -15 15 -16 15 -16 -5 0 -23 21 -50 39 -50 6 0 13 11 17 25 7 30 20 32 34 6
5 -11 19 -23 30 -26 23 -7 27 -35 5 -35 -8 0 -15 7 -15 16 0 9 -5 14 -12 12
-21 -7 -20 -26 1 -33 12 -3 21 -13 21 -21 0 -19 17 -18 28 2 8 15 11 15 31 -5
29 -29 27 -34 -14 -29 -23 3 -32 1 -25 -6 15 -15 43 -16 59 -3 11 9 15 9 18 0
3 -7 11 -13 18 -13 7 0 16 -7 19 -16 3 -8 11 -12 16 -9 6 4 15 -7 21 -24 6
-17 14 -31 17 -31 4 0 21 -21 37 -45 28 -42 45 -56 45 -37 0 4 -6 14 -12 21
-11 11 -10 13 5 8 20 -8 23 6 3 22 -11 9 -15 9 -19 -1 -2 -7 -8 -10 -12 -6 -4
4 -2 15 6 24 12 15 12 16 -6 10 -18 -5 -21 -2 -20 21 0 15 -5 28 -12 28 -6 0
-21 12 -33 28 -12 15 -27 27 -34 27 -7 0 -26 15 -43 33 -17 17 -45 45 -63 61
-30 28 -35 51 -5 26 15 -12 22 0 8 14 -4 4 -8 17 -8 28 0 12 -6 23 -14 26 -10
3 -12 0 -7 -13 6 -18 -9 -45 -25 -45 -5 0 -9 14 -9 30 0 17 -5 30 -11 30 -6 0
-8 7 -5 16 4 11 1 14 -12 12 -9 -1 -23 1 -29 5 -8 5 -13 3 -13 -7z"/>
<path d="M5831 7024 c0 -11 3 -14 6 -6 3 7 2 16 -1 19 -3 4 -6 -2 -5 -13z"/>
<path d="M5756 7023 c-3 -3 -3 -10 0 -14 7 -12 34 -11 34 0 0 11 -26 22 -34
14z"/>
<path d="M5542 6988 c3 -7 13 -15 24 -17 16 -3 17 -1 5 13 -16 19 -34 21 -29
4z"/>
<path d="M5806 6992 c-3 -6 -1 -14 5 -17 15 -10 25 3 12 16 -7 7 -13 7 -17 1z"/>
<path d="M2615 6976 c-16 -12 -16 -13 -1 -19 11 -4 16 -1 16 11 0 15 2 15 10
2 6 -9 10 -10 10 -3 0 19 -16 23 -35 9z"/>
<path d="M6100 6975 c-6 -7 -19 -11 -28 -8 -13 5 -14 3 -6 -6 9 -10 18 -10 39
2 15 8 23 17 18 20 -6 4 -16 0 -23 -8z"/>
<path d="M6030 6956 c0 -2 7 -9 15 -16 13 -11 14 -10 9 4 -5 14 -24 23 -24 12z"/>
<path d="M2687 6922 c-15 -7 -25 -17 -22 -22 7 -11 35 -3 65 20 22 17 23 19 5
17 -11 -1 -32 -7 -48 -15z"/>
<path d="M6010 6932 c0 -11 41 -44 48 -38 3 3 -3 15 -13 26 -18 20 -35 26 -35
12z"/>
<path d="M2457 6924 c-4 -4 -7 -14 -7 -23 0 -11 3 -12 11 -4 6 6 10 16 7 23
-2 6 -7 8 -11 4z"/>
<path d="M5797 6789 c7 -7 15 -10 18 -7 3 3 -2 9 -12 12 -14 6 -15 5 -6 -5z"/>
<path d="M2045 6780 c-13 -6 -15 -9 -5 -9 8 0 22 4 30 9 18 12 2 12 -25 0z"/>
<path d="M6017 6754 c-11 -11 -8 -44 4 -44 5 0 8 4 4 9 -9 16 15 23 32 10 13
-11 15 -11 12 6 -4 20 -38 32 -52 19z"/>
<path d="M6077 6721 c-2 -10 -1 -25 4 -32 7 -11 9 -11 9 3 0 9 5 18 12 20 6 2
8 10 4 16 -11 18 -23 15 -29 -7z"/>
<path d="M5981 6701 c13 -11 26 -17 29 -14 6 6 -30 33 -43 33 -5 0 1 -9 14
-19z"/>
<path d="M6113 6684 c-4 -10 1 -22 10 -29 10 -7 17 -17 17 -22 0 -5 12 -23 28
-40 21 -23 32 -29 47 -22 18 7 15 9 -17 13 -7 0 -14 10 -16 21 -2 11 -15 31
-29 44 -13 12 -22 29 -19 37 3 8 1 14 -5 14 -5 0 -12 -7 -16 -16z"/>
<path d="M1175 6657 c-10 -15 -16 -30 -13 -32 8 -9 40 33 36 47 -3 8 -11 2
-23 -15z"/>
<path d="M6050 6670 c0 -5 5 -10 10 -10 6 0 10 5 10 10 0 6 -4 10 -10 10 -5 0
-10 -4 -10 -10z"/>
<path d="M6095 6641 c-3 -5 -1 -12 5 -16 5 -3 10 1 10 9 0 18 -6 21 -15 7z"/>
<path d="M6253 6625 c-7 -8 -10 -21 -7 -29 10 -25 19 -18 20 14 1 17 1 30 0
30 -1 -1 -7 -7 -13 -15z"/>
<path d="M6190 6610 c0 -5 5 -10 11 -10 5 0 7 5 4 10 -3 6 -8 10 -11 10 -2 0
-4 -4 -4 -10z"/>
<path d="M6290 6581 c0 -5 5 -13 10 -16 6 -3 10 -2 10 4 0 5 -4 13 -10 16 -5
3 -10 2 -10 -4z"/>
<path d="M6270 6540 c0 -5 4 -10 9 -10 6 0 13 5 16 10 3 6 -1 10 -9 10 -9 0
-16 -4 -16 -10z"/>
<path d="M6310 6539 c0 -5 5 -7 10 -4 6 3 10 8 10 11 0 2 -4 4 -10 4 -5 0 -10
-5 -10 -11z"/>
<path d="M6280 6512 c0 -12 19 -26 26 -19 2 2 -2 10 -11 17 -9 8 -15 8 -15 2z"/>
<path d="M920 6450 c0 -5 5 -10 10 -10 6 0 10 5 10 10 0 6 -4 10 -10 10 -5 0
-10 -4 -10 -10z"/>
<path d="M6288 6383 c6 -2 18 -2 25 0 6 3 1 5 -13 5 -14 0 -19 -2 -12 -5z"/>
<path d="M1946 6352 c-11 -2 -37 -15 -58 -29 -71 -47 -62 -155 17 -193 46 -22
75 -26 75 -9 0 6 6 9 13 6 6 -2 11 -10 10 -16 -4 -16 10 -14 33 5 13 11 15 17
7 20 -25 11 -12 23 22 22 19 -1 35 -5 35 -9 0 -15 -71 -68 -103 -77 -18 -5
-56 -6 -83 -2 -60 9 -65 6 -25 -14 46 -24 121 -20 172 8 57 32 83 76 84 142 0
56 -17 97 -55 131 -26 23 -60 31 -60 13 0 -5 7 -10 15 -10 16 0 20 -12 8 -23
-3 -4 -11 -1 -17 7 -14 17 -66 33 -90 28z m56 -62 c11 0 18 -7 18 -20 0 -11 5
-20 10 -20 14 0 13 -41 -2 -73 -8 -16 -21 -27 -33 -27 -12 0 -26 -5 -33 -12
-9 -9 -15 -9 -24 0 -7 7 -20 12 -30 12 -10 0 -18 7 -18 15 0 8 -4 15 -10 15
-13 0 -5 73 9 78 6 2 11 10 11 18 0 13 11 18 37 15 6 -1 15 3 18 10 5 8 10 8
18 0 6 -6 19 -11 29 -11z m65 -2 c-3 -8 -6 -5 -6 6 -1 11 2 17 5 13 3 -3 4
-12 1 -19z m21 -63 c-3 -3 -9 2 -12 12 -6 14 -5 15 5 6 7 -7 10 -15 7 -18z
m42 5 c0 -5 -2 -10 -4 -10 -3 0 -8 5 -11 10 -3 6 -1 10 4 10 6 0 11 -4 11 -10z
m-53 -57 c-3 -10 -5 -4 -5 12 0 17 2 24 5 18 2 -7 2 -21 0 -30z m36 31 c9 -9
-4 -35 -14 -28 -5 3 -9 12 -9 20 0 14 12 19 23 8z m-83 -74 c0 -5 -5 -10 -11
-10 -5 0 -7 5 -4 10 3 6 8 10 11 10 2 0 4 -4 4 -10z"/>
<path d="M6156 6237 c3 -10 9 -15 12 -12 3 3 0 11 -7 18 -10 9 -11 8 -5 -6z"/>
<path d="M6180 6215 c0 -18 19 -40 26 -32 4 4 0 15 -9 24 -9 10 -17 13 -17 8z"/>
<path d="M1790 6193 c0 -26 20 -73 32 -73 12 0 10 13 -12 56 -15 30 -19 34
-20 17z"/>
<path d="M6220 6165 c0 -9 -5 -13 -10 -10 -6 4 0 -18 13 -47 46 -101 92 -193
100 -196 4 -2 7 -10 7 -18 0 -8 5 -14 10 -14 6 0 10 -6 10 -14 0 -7 6 -19 14
-25 17 -14 30 -72 28 -120 -1 -19 3 -53 10 -75 6 -23 11 -44 10 -48 -1 -4 5
-25 12 -47 8 -21 13 -48 10 -58 -2 -10 2 -61 10 -113 8 -53 14 -79 15 -58 1
26 5 36 14 32 10 -3 12 9 10 52 -1 31 -6 61 -12 68 -5 6 -12 31 -16 56 -4 25
-12 51 -17 58 -7 8 -7 12 -1 12 10 0 8 119 -2 147 -2 6 1 13 6 15 6 2 -6 33
-25 68 -20 36 -39 73 -42 83 -4 9 -10 17 -15 17 -5 0 -9 7 -9 15 0 8 -5 15
-11 15 -5 0 -15 14 -20 30 -6 17 -15 30 -20 30 -5 0 -9 7 -9 15 0 8 -4 15 -9
15 -9 0 -61 82 -61 96 0 3 7 1 15 -6 11 -9 15 -10 15 -1 0 7 -7 19 -15 27 -13
14 -15 14 -15 -1z m200 -444 c0 -45 -6 -37 -13 18 -4 29 -2 40 4 30 5 -7 9
-29 9 -48z"/>
<path d="M1835 6122 c-13 -14 -2 -22 30 -22 19 0 35 4 35 9 0 10 -57 21 -65
13z"/>
<path d="M6350 5815 c0 -5 5 -17 10 -25 5 -8 10 -10 10 -5 0 6 -5 17 -10 25
-5 8 -10 11 -10 5z"/>
<path d="M1356 5788 c-9 -27 -24 -313 -17 -321 4 -4 16 -1 26 7 21 15 34 98
34 228 1 68 -2 79 -19 88 -15 8 -21 8 -24 -2z"/>
<path d="M1449 5788 c-5 -16 -8 -57 -14 -180 l-7 -146 63 -4 c72 -5 76 -3 81
32 3 23 0 25 -42 28 l-45 3 6 102 c4 56 7 103 8 104 1 1 16 0 34 -3 17 -2 39
-1 48 1 22 7 17 47 -7 56 -17 7 -123 12 -125 7z"/>
<path d="M6619 5761 c12 -8 12 -12 2 -25 -7 -8 -11 -21 -8 -28 4 -8 8 -4 13
10 5 17 9 20 15 11 4 -8 11 -10 15 -6 9 8 -24 47 -40 47 -6 0 -5 -4 3 -9z"/>
<path d="M6576 5731 c-4 -7 -5 -15 -2 -18 9 -9 19 4 14 18 -4 11 -6 11 -12 0z"/>
<path d="M6540 5721 c0 -5 5 -13 10 -16 6 -3 10 -2 10 4 0 5 -4 13 -10 16 -5
3 -10 2 -10 -4z"/>
<path d="M6655 5690 c-3 -5 1 -10 9 -10 9 0 16 5 16 10 0 6 -4 10 -9 10 -6 0
-13 -4 -16 -10z"/>
<path d="M6830 5500 c0 -5 5 -10 11 -10 5 0 7 5 4 10 -3 6 -8 10 -11 10 -2 0
-4 -4 -4 -10z"/>
<path d="M1506 5323 c-4 -49 -9 -107 -12 -130 l-5 -43 -89 0 c-86 0 -88 0 -94
-26 -4 -15 -6 -28 -4 -29 2 -2 55 -6 119 -10 l116 -8 6 34 c4 19 9 87 13 151
5 88 4 121 -6 133 -28 33 -38 17 -44 -72z"/>
<path d="M6460 5266 c0 -8 5 -18 10 -21 6 -3 10 1 10 9 0 8 -4 18 -10 21 -5 3
-10 -1 -10 -9z"/>
<path d="M6540 5038 c0 -31 3 -39 10 -28 13 20 13 57 0 65 -6 4 -10 -11 -10
-37z"/>
<path d="M1297 5003 c-4 -27 -9 -101 -13 -165 l-7 -118 71 0 c82 0 77 -10 88
158 4 75 10 102 19 102 23 0 24 -12 14 -124 -8 -96 -7 -111 7 -128 30 -32 39
-21 42 50 2 37 7 107 12 156 5 49 7 93 4 98 -3 4 -36 8 -74 8 l-68 0 -6 -97
c-9 -138 -14 -163 -33 -163 -13 0 -14 15 -8 120 6 101 5 122 -8 135 -25 25
-34 18 -40 -32z"/>
<path d="M6505 4940 c-4 -12 -5 -24 -2 -27 3 -2 8 5 12 17 4 12 5 24 2 27 -3
2 -8 -5 -12 -17z"/>
<path d="M6570 4949 c0 -5 5 -7 10 -4 6 3 10 8 10 11 0 2 -4 4 -10 4 -5 0 -10
-5 -10 -11z"/>
<path d="M6875 4720 c-3 -5 -1 -10 4 -10 6 0 11 5 11 10 0 6 -2 10 -4 10 -3 0
-8 -4 -11 -10z"/>
<path d="M1276 4671 c-10 -15 -27 -304 -19 -312 5 -4 16 -2 26 6 14 10 20 35
27 107 15 149 13 186 -9 198 -12 6 -22 6 -25 1z"/>
<path d="M1356 4573 c-4 -54 -9 -126 -13 -160 -5 -58 -4 -63 14 -63 30 0 41
34 52 164 10 125 4 156 -30 156 -13 0 -17 -17 -23 -97z"/>
<path d="M1455 4658 c-8 -23 -20 -310 -14 -314 4 -2 16 4 28 14 18 15 21 32
27 153 7 133 6 137 -15 148 -17 9 -22 9 -26 -1z"/>
<path d="M6867 4306 c-6 -15 1 -26 15 -26 4 0 8 9 8 20 0 23 -15 27 -23 6z"/>
<path d="M1236 4198 c-3 -62 -9 -132 -12 -155 -6 -39 -4 -43 15 -43 26 0 41
28 41 80 l0 42 93 -3 92 -4 3 28 c3 27 3 27 -57 28 -34 1 -65 3 -71 4 -5 1
-19 3 -30 4 -17 1 -20 8 -20 50 0 61 -7 81 -30 81 -15 0 -18 -15 -24 -112z"/>
<path d="M7017 4043 c-12 -11 -8 -23 8 -23 9 0 15 -10 16 -27 1 -19 3 -22 6
-10 10 38 -11 80 -30 60z"/>
<path d="M7000 3959 c0 -11 5 -17 10 -14 6 3 10 13 10 21 0 8 -4 14 -10 14 -5
0 -10 -9 -10 -21z"/>
<path d="M1648 3615 c-28 -29 -33 -41 -30 -70 3 -28 7 -33 17 -25 7 6 11 19 8
29 -3 12 2 20 16 24 12 3 21 12 21 20 0 12 9 15 34 14 19 -2 38 -6 42 -10 4
-4 15 -7 23 -7 21 0 41 -52 29 -74 -10 -17 -2 -40 11 -31 15 9 20 62 10 99
-13 46 -43 66 -100 66 -40 0 -51 -5 -81 -35z"/>
<path d="M1869 3578 c4 -28 6 -29 9 -9 2 13 0 27 -5 32 -6 6 -7 -3 -4 -23z"/>
<path d="M1892 3536 c-14 -48 -52 -98 -97 -126 -47 -29 -131 -24 -175 9 -37
27 -39 13 -4 -23 39 -38 117 -56 182 -41 79 18 150 146 113 204 -7 11 -12 5
-19 -23z"/>
<path d="M1560 3508 c0 -9 5 -20 10 -23 13 -8 13 5 0 25 -8 13 -10 13 -10 -2z"/>
<path d="M1765 3459 c-4 -6 -5 -13 -2 -16 7 -7 27 6 27 18 0 12 -17 12 -25 -2z"/>
<path d="M6700 3213 c-21 -8 -49 -33 -73 -67 -18 -25 -18 -29 -4 -23 9 3 17 2
17 -3 0 -17 30 -11 47 10 10 11 25 20 35 20 21 0 33 37 18 55 -13 16 -16 17
-40 8z"/>
<path d="M1222 3140 c0 -14 2 -19 5 -12 2 6 2 18 0 25 -3 6 -5 1 -5 -13z"/>
<path d="M1080 3071 c0 -6 9 -16 19 -23 34 -24 36 -61 6 -96 -28 -33 -19 -45
10 -15 26 26 36 60 24 90 -14 36 -59 70 -59 44z"/>
<path d="M969 3023 c-1 -10 -3 -28 -4 -41 -3 -29 47 -72 83 -72 27 1 26 1 -6
15 -49 21 -65 41 -60 76 3 16 1 32 -4 35 -4 3 -9 -3 -9 -13z"/>
<path d="M1016 3014 c-18 -25 -18 -26 4 -49 18 -20 25 -21 50 -12 51 19 41 87
-13 87 -12 0 -30 -12 -41 -26z m71 -11 c5 -15 -48 -26 -61 -13 -8 8 -7 13 4
20 18 11 53 7 57 -7z"/>
<path d="M1230 2796 c0 -2 7 -9 15 -16 12 -10 15 -10 15 4 0 9 -7 16 -15 16
-8 0 -15 -2 -15 -4z"/>
<path d="M1345 2650 c-3 -5 -1 -10 4 -10 6 0 11 5 11 10 0 6 -2 10 -4 10 -3 0
-8 -4 -11 -10z"/>
<path d="M6865 2570 c-3 -5 -1 -10 4 -10 6 0 11 5 11 10 0 6 -2 10 -4 10 -3 0
-8 -4 -11 -10z"/>
<path d="M5082 1669 c6 -18 56 -20 62 -3 4 10 -4 14 -30 14 -22 0 -34 -4 -32
-11z"/>
<path d="M7620 1380 c-28 -16 -31 -19 -14 -20 13 0 24 -8 27 -20 3 -12 14 -20
26 -20 18 0 21 6 21 40 0 46 -8 48 -60 20z"/>
<path d="M3560 1343 c-19 -6 -63 -12 -98 -12 -63 -1 -132 -22 -132 -40 0 -12
62 -25 110 -23 19 1 63 3 98 4 38 1 56 5 45 9 -17 7 -17 8 0 8 9 1 17 7 17 15
0 8 7 16 15 18 14 3 13 5 -2 18 -15 13 -24 13 -53 3z"/>
<path d="M5888 1043 c6 -2 18 -2 25 0 6 3 1 5 -13 5 -14 0 -19 -2 -12 -5z"/>
<path d="M6697 1023 c-13 -12 -7 -33 8 -33 8 0 15 9 15 20 0 20 -11 26 -23 13z"/>
<path d="M6740 1015 c-10 -12 -9 -16 4 -21 9 -3 23 -3 32 0 13 5 14 9 4 21 -7
8 -16 15 -20 15 -4 0 -13 -7 -20 -15z"/>
<path d="M585 999 c-10 -15 3 -25 16 -12 7 7 7 13 1 17 -6 3 -14 1 -17 -5z"/>
<path d="M375 950 c3 -5 10 -10 16 -10 5 0 9 5 9 10 0 6 -7 10 -16 10 -8 0
-12 -4 -9 -10z"/>
<path d="M1440 950 c0 -5 18 -10 40 -10 22 0 40 5 40 10 0 6 -18 10 -40 10
-22 0 -40 -4 -40 -10z"/>
<path d="M750 930 c0 -5 5 -10 10 -10 6 0 10 5 10 10 0 6 -4 10 -10 10 -5 0
-10 -4 -10 -10z"/>
<path d="M1042 891 c-31 -26 -27 -39 13 -47 49 -9 65 0 65 36 0 26 -3 30 -28
30 -16 0 -39 -8 -50 -19z"/>
<path d="M320 850 c0 -5 11 -10 24 -10 14 0 28 5 31 10 4 6 -7 10 -24 10 -17
0 -31 -4 -31 -10z"/>
<path d="M2312 768 c-20 -20 -14 -29 21 -26 20 2 32 8 32 18 0 19 -36 25 -53
8z"/>
<path d="M180 706 c-14 -6 -37 -19 -52 -29 -22 -15 -37 -18 -78 -12 l-50 7 0
-56 c0 -49 2 -56 20 -56 11 0 20 -4 20 -9 0 -18 49 -59 79 -66 17 -4 29 -11
25 -16 -3 -5 4 -9 15 -9 34 0 24 -14 -27 -35 l-47 -21 -42 24 -43 24 0 -101
c0 -92 2 -101 19 -101 10 0 36 16 57 35 36 33 84 47 84 25 0 -5 11 -10 25 -10
15 0 25 6 25 14 0 8 7 17 16 20 12 5 15 0 12 -22 -3 -23 1 -27 25 -30 29 -4
35 6 15 26 -9 9 -7 12 9 12 24 0 38 29 28 60 -3 11 -13 20 -21 20 -19 0 -19
79 0 125 17 39 22 41 50 20 31 -24 56 -19 56 10 0 22 4 25 39 25 22 0 41 4 43
10 2 5 19 7 41 3 31 -5 37 -10 37 -29 0 -15 -6 -24 -15 -24 -21 0 -30 -27 -15
-45 8 -10 30 -15 61 -15 l49 0 0 40 c0 30 -4 40 -16 40 -14 0 -16 8 -11 42 5
36 2 45 -23 69 -15 16 -30 33 -32 39 -2 6 -20 -1 -41 -15 l-37 -26 -26 26
c-30 30 -54 32 -54 5 0 -19 -4 -20 -37 -14 -21 4 -44 13 -51 21 -17 16 -34 17
-50 1 -8 -8 -18 -9 -34 -1 -16 7 -31 6 -48 -1z m315 -56 c3 -5 1 -10 -4 -10
-6 0 -11 5 -11 10 0 6 2 10 4 10 3 0 8 -4 11 -10z"/>
<path d="M2034 695 c-13 -20 -15 -36 -8 -82 8 -49 12 -58 31 -61 17 -3 26 3
32 21 6 14 20 29 33 33 31 9 118 84 118 101 0 15 -36 18 -45 3 -3 -5 -21 -10
-40 -10 -19 0 -37 5 -40 10 -13 20 -64 11 -81 -15z"/>
<path d="M780 626 c0 -8 5 -18 10 -21 6 -3 10 3 10 14 0 12 -4 21 -10 21 -5 0
-10 -6 -10 -14z"/>
<path d="M461 546 c-9 -10 -8 -15 4 -20 10 -4 15 1 15 14 0 24 -4 25 -19 6z"/>
<path d="M0 496 c0 -9 5 -16 10 -16 6 0 10 4 10 9 0 6 -4 13 -10 16 -5 3 -10
-1 -10 -9z"/>
<path d="M358 491 c-12 -14 -13 -22 -5 -30 17 -17 44 -13 49 7 11 41 -16 56
-44 23z"/>
<path d="M4020 472 c0 -15 16 -30 38 -36 32 -10 27 6 -8 26 -17 9 -30 14 -30
10z"/>
<path d="M3891 431 c-16 -10 -6 -31 15 -31 8 0 14 9 14 20 0 22 -7 25 -29 11z"/>
<path d="M7223 402 c-15 -2 -23 -10 -23 -23 0 -24 15 -24 46 0 26 20 16 30
-23 23z"/>
<path d="M2 174 c5 -27 72 -41 93 -20 18 18 18 18 -10 21 -11 1 -35 6 -53 10
-29 6 -33 5 -30 -11z"/>
</g>
</svg>
